%TF.GenerationSoftware,KiCad,Pcbnew,5.99.0-unknown-7afc3f7df9~127~ubuntu20.04.1*%
%TF.CreationDate,2021-04-27T13:31:12+02:00*%
%TF.ProjectId,bbb-can-bus-cape,6262622d-6361-46e2-9d62-75732d636170,rev?*%
%TF.SameCoordinates,Original*%
%TF.FileFunction,Legend,Bot*%
%TF.FilePolarity,Positive*%
%FSLAX46Y46*%
G04 Gerber Fmt 4.6, Leading zero omitted, Abs format (unit mm)*
G04 Created by KiCad (PCBNEW 5.99.0-unknown-7afc3f7df9~127~ubuntu20.04.1) date 2021-04-27 13:31:12*
%MOMM*%
%LPD*%
G01*
G04 APERTURE LIST*
%ADD10C,0.300000*%
%ADD11C,0.010000*%
G04 APERTURE END LIST*
D10*
X133525814Y-122730971D02*
X134240100Y-122730971D01*
X134240100Y-121230971D01*
X146812957Y-121232400D02*
X146955814Y-121160971D01*
X147170100Y-121160971D01*
X147384385Y-121232400D01*
X147527242Y-121375257D01*
X147598671Y-121518114D01*
X147670100Y-121803828D01*
X147670100Y-122018114D01*
X147598671Y-122303828D01*
X147527242Y-122446685D01*
X147384385Y-122589542D01*
X147170100Y-122660971D01*
X147027242Y-122660971D01*
X146812957Y-122589542D01*
X146741528Y-122518114D01*
X146741528Y-122018114D01*
X147027242Y-122018114D01*
X146098671Y-122660971D02*
X146098671Y-121160971D01*
X145241528Y-122660971D01*
X145241528Y-121160971D01*
X144527242Y-122660971D02*
X144527242Y-121160971D01*
X144170100Y-121160971D01*
X143955814Y-121232400D01*
X143812957Y-121375257D01*
X143741528Y-121518114D01*
X143670100Y-121803828D01*
X143670100Y-122018114D01*
X143741528Y-122303828D01*
X143812957Y-122446685D01*
X143955814Y-122589542D01*
X144170100Y-122660971D01*
X144527242Y-122660971D01*
X140434385Y-119740971D02*
X140434385Y-118240971D01*
X139934385Y-119312400D01*
X139434385Y-118240971D01*
X139434385Y-119740971D01*
X137862957Y-119598114D02*
X137934385Y-119669542D01*
X138148671Y-119740971D01*
X138291528Y-119740971D01*
X138505814Y-119669542D01*
X138648671Y-119526685D01*
X138720100Y-119383828D01*
X138791528Y-119098114D01*
X138791528Y-118883828D01*
X138720100Y-118598114D01*
X138648671Y-118455257D01*
X138505814Y-118312400D01*
X138291528Y-118240971D01*
X138148671Y-118240971D01*
X137934385Y-118312400D01*
X137862957Y-118383828D01*
X137220100Y-119740971D02*
X137220100Y-118240971D01*
X136648671Y-118240971D01*
X136505814Y-118312400D01*
X136434385Y-118383828D01*
X136362957Y-118526685D01*
X136362957Y-118740971D01*
X136434385Y-118883828D01*
X136505814Y-118955257D01*
X136648671Y-119026685D01*
X137220100Y-119026685D01*
X135791528Y-118383828D02*
X135720100Y-118312400D01*
X135577242Y-118240971D01*
X135220100Y-118240971D01*
X135077242Y-118312400D01*
X135005814Y-118383828D01*
X134934385Y-118526685D01*
X134934385Y-118669542D01*
X135005814Y-118883828D01*
X135862957Y-119740971D01*
X134934385Y-119740971D01*
X133577242Y-118240971D02*
X134291528Y-118240971D01*
X134362957Y-118955257D01*
X134291528Y-118883828D01*
X134148671Y-118812400D01*
X133791528Y-118812400D01*
X133648671Y-118883828D01*
X133577242Y-118955257D01*
X133505814Y-119098114D01*
X133505814Y-119455257D01*
X133577242Y-119598114D01*
X133648671Y-119669542D01*
X133791528Y-119740971D01*
X134148671Y-119740971D01*
X134291528Y-119669542D01*
X134362957Y-119598114D01*
X132077242Y-119740971D02*
X132934385Y-119740971D01*
X132505814Y-119740971D02*
X132505814Y-118240971D01*
X132648671Y-118455257D01*
X132791528Y-118598114D01*
X132934385Y-118669542D01*
X131505814Y-118383828D02*
X131434385Y-118312400D01*
X131291528Y-118240971D01*
X130934385Y-118240971D01*
X130791528Y-118312400D01*
X130720100Y-118383828D01*
X130648671Y-118526685D01*
X130648671Y-118669542D01*
X130720100Y-118883828D01*
X131577242Y-119740971D01*
X130648671Y-119740971D01*
X130005814Y-119169542D02*
X128862957Y-119169542D01*
X127291528Y-119598114D02*
X127362957Y-119669542D01*
X127577242Y-119740971D01*
X127720100Y-119740971D01*
X127934385Y-119669542D01*
X128077242Y-119526685D01*
X128148671Y-119383828D01*
X128220100Y-119098114D01*
X128220100Y-118883828D01*
X128148671Y-118598114D01*
X128077242Y-118455257D01*
X127934385Y-118312400D01*
X127720100Y-118240971D01*
X127577242Y-118240971D01*
X127362957Y-118312400D01*
X127291528Y-118383828D01*
X126720100Y-119312400D02*
X126005814Y-119312400D01*
X126862957Y-119740971D02*
X126362957Y-118240971D01*
X125862957Y-119740971D01*
X125362957Y-119740971D02*
X125362957Y-118240971D01*
X124505814Y-119740971D01*
X124505814Y-118240971D01*
X163104385Y-120270971D02*
X163104385Y-118770971D01*
X162604385Y-119842400D01*
X162104385Y-118770971D01*
X162104385Y-120270971D01*
X160532957Y-120128114D02*
X160604385Y-120199542D01*
X160818671Y-120270971D01*
X160961528Y-120270971D01*
X161175814Y-120199542D01*
X161318671Y-120056685D01*
X161390100Y-119913828D01*
X161461528Y-119628114D01*
X161461528Y-119413828D01*
X161390100Y-119128114D01*
X161318671Y-118985257D01*
X161175814Y-118842400D01*
X160961528Y-118770971D01*
X160818671Y-118770971D01*
X160604385Y-118842400D01*
X160532957Y-118913828D01*
X159890100Y-120270971D02*
X159890100Y-118770971D01*
X159318671Y-118770971D01*
X159175814Y-118842400D01*
X159104385Y-118913828D01*
X159032957Y-119056685D01*
X159032957Y-119270971D01*
X159104385Y-119413828D01*
X159175814Y-119485257D01*
X159318671Y-119556685D01*
X159890100Y-119556685D01*
X158461528Y-118913828D02*
X158390100Y-118842400D01*
X158247242Y-118770971D01*
X157890100Y-118770971D01*
X157747242Y-118842400D01*
X157675814Y-118913828D01*
X157604385Y-119056685D01*
X157604385Y-119199542D01*
X157675814Y-119413828D01*
X158532957Y-120270971D01*
X157604385Y-120270971D01*
X156247242Y-118770971D02*
X156961528Y-118770971D01*
X157032957Y-119485257D01*
X156961528Y-119413828D01*
X156818671Y-119342400D01*
X156461528Y-119342400D01*
X156318671Y-119413828D01*
X156247242Y-119485257D01*
X156175814Y-119628114D01*
X156175814Y-119985257D01*
X156247242Y-120128114D01*
X156318671Y-120199542D01*
X156461528Y-120270971D01*
X156818671Y-120270971D01*
X156961528Y-120199542D01*
X157032957Y-120128114D01*
X154747242Y-120270971D02*
X155604385Y-120270971D01*
X155175814Y-120270971D02*
X155175814Y-118770971D01*
X155318671Y-118985257D01*
X155461528Y-119128114D01*
X155604385Y-119199542D01*
X153390100Y-118770971D02*
X154104385Y-118770971D01*
X154175814Y-119485257D01*
X154104385Y-119413828D01*
X153961528Y-119342400D01*
X153604385Y-119342400D01*
X153461528Y-119413828D01*
X153390100Y-119485257D01*
X153318671Y-119628114D01*
X153318671Y-119985257D01*
X153390100Y-120128114D01*
X153461528Y-120199542D01*
X153604385Y-120270971D01*
X153961528Y-120270971D01*
X154104385Y-120199542D01*
X154175814Y-120128114D01*
X152675814Y-119699542D02*
X151532957Y-119699542D01*
X149961528Y-120128114D02*
X150032957Y-120199542D01*
X150247242Y-120270971D01*
X150390100Y-120270971D01*
X150604385Y-120199542D01*
X150747242Y-120056685D01*
X150818671Y-119913828D01*
X150890100Y-119628114D01*
X150890100Y-119413828D01*
X150818671Y-119128114D01*
X150747242Y-118985257D01*
X150604385Y-118842400D01*
X150390100Y-118770971D01*
X150247242Y-118770971D01*
X150032957Y-118842400D01*
X149961528Y-118913828D01*
X149390100Y-119842400D02*
X148675814Y-119842400D01*
X149532957Y-120270971D02*
X149032957Y-118770971D01*
X148532957Y-120270971D01*
X148032957Y-120270971D02*
X148032957Y-118770971D01*
X147175814Y-120270971D01*
X147175814Y-118770971D01*
X139458671Y-122730971D02*
X139458671Y-121230971D01*
X139458671Y-121945257D02*
X138601528Y-121945257D01*
X138601528Y-122730971D02*
X138601528Y-121230971D01*
X157268671Y-69642400D02*
X155768671Y-69642400D01*
X157268671Y-70356685D02*
X155768671Y-70356685D01*
X157268671Y-71213828D01*
X155768671Y-71213828D01*
X155768671Y-71713828D02*
X155768671Y-72570971D01*
X157268671Y-72142400D02*
X155768671Y-72142400D01*
X156482957Y-73070971D02*
X156482957Y-73570971D01*
X157268671Y-73785257D02*
X157268671Y-73070971D01*
X155768671Y-73070971D01*
X155768671Y-73785257D01*
X157268671Y-75285257D02*
X156554385Y-74785257D01*
X157268671Y-74428114D02*
X155768671Y-74428114D01*
X155768671Y-74999542D01*
X155840100Y-75142400D01*
X155911528Y-75213828D01*
X156054385Y-75285257D01*
X156268671Y-75285257D01*
X156411528Y-75213828D01*
X156482957Y-75142400D01*
X156554385Y-74999542D01*
X156554385Y-74428114D01*
X156482957Y-76428114D02*
X156482957Y-75928114D01*
X157268671Y-75928114D02*
X155768671Y-75928114D01*
X155768671Y-76642400D01*
X156840100Y-77142400D02*
X156840100Y-77856685D01*
X157268671Y-76999542D02*
X155768671Y-77499542D01*
X157268671Y-77999542D01*
X157125814Y-79356685D02*
X157197242Y-79285257D01*
X157268671Y-79070971D01*
X157268671Y-78928114D01*
X157197242Y-78713828D01*
X157054385Y-78570971D01*
X156911528Y-78499542D01*
X156625814Y-78428114D01*
X156411528Y-78428114D01*
X156125814Y-78499542D01*
X155982957Y-78570971D01*
X155840100Y-78713828D01*
X155768671Y-78928114D01*
X155768671Y-79070971D01*
X155840100Y-79285257D01*
X155911528Y-79356685D01*
X156482957Y-79999542D02*
X156482957Y-80499542D01*
X157268671Y-80713828D02*
X157268671Y-79999542D01*
X155768671Y-79999542D01*
X155768671Y-80713828D01*
X156482957Y-82999542D02*
X156554385Y-83213828D01*
X156625814Y-83285257D01*
X156768671Y-83356685D01*
X156982957Y-83356685D01*
X157125814Y-83285257D01*
X157197242Y-83213828D01*
X157268671Y-83070971D01*
X157268671Y-82499542D01*
X155768671Y-82499542D01*
X155768671Y-82999542D01*
X155840100Y-83142400D01*
X155911528Y-83213828D01*
X156054385Y-83285257D01*
X156197242Y-83285257D01*
X156340100Y-83213828D01*
X156411528Y-83142400D01*
X156482957Y-82999542D01*
X156482957Y-82499542D01*
X155768671Y-84285257D02*
X155768671Y-84570971D01*
X155840100Y-84713828D01*
X155982957Y-84856685D01*
X156268671Y-84928114D01*
X156768671Y-84928114D01*
X157054385Y-84856685D01*
X157197242Y-84713828D01*
X157268671Y-84570971D01*
X157268671Y-84285257D01*
X157197242Y-84142400D01*
X157054385Y-83999542D01*
X156768671Y-83928114D01*
X156268671Y-83928114D01*
X155982957Y-83999542D01*
X155840100Y-84142400D01*
X155768671Y-84285257D01*
X156840100Y-85499542D02*
X156840100Y-86213828D01*
X157268671Y-85356685D02*
X155768671Y-85856685D01*
X157268671Y-86356685D01*
X157268671Y-87713828D02*
X156554385Y-87213828D01*
X157268671Y-86856685D02*
X155768671Y-86856685D01*
X155768671Y-87428114D01*
X155840100Y-87570971D01*
X155911528Y-87642400D01*
X156054385Y-87713828D01*
X156268671Y-87713828D01*
X156411528Y-87642400D01*
X156482957Y-87570971D01*
X156554385Y-87428114D01*
X156554385Y-86856685D01*
X157268671Y-88356685D02*
X155768671Y-88356685D01*
X155768671Y-88713828D01*
X155840100Y-88928114D01*
X155982957Y-89070971D01*
X156125814Y-89142400D01*
X156411528Y-89213828D01*
X156625814Y-89213828D01*
X156911528Y-89142400D01*
X157054385Y-89070971D01*
X157197242Y-88928114D01*
X157268671Y-88713828D01*
X157268671Y-88356685D01*
X155768671Y-90785257D02*
X157268671Y-91285257D01*
X155768671Y-91785257D01*
X157268671Y-93070971D02*
X157268671Y-92213828D01*
X157268671Y-92642400D02*
X155768671Y-92642400D01*
X155982957Y-92499542D01*
X156125814Y-92356685D01*
X156197242Y-92213828D01*
X157125814Y-93713828D02*
X157197242Y-93785257D01*
X157268671Y-93713828D01*
X157197242Y-93642400D01*
X157125814Y-93713828D01*
X157268671Y-93713828D01*
X155768671Y-94713828D02*
X155768671Y-94856685D01*
X155840100Y-94999542D01*
X155911528Y-95070971D01*
X156054385Y-95142400D01*
X156340100Y-95213828D01*
X156697242Y-95213828D01*
X156982957Y-95142400D01*
X157125814Y-95070971D01*
X157197242Y-94999542D01*
X157268671Y-94856685D01*
X157268671Y-94713828D01*
X157197242Y-94570971D01*
X157125814Y-94499542D01*
X156982957Y-94428114D01*
X156697242Y-94356685D01*
X156340100Y-94356685D01*
X156054385Y-94428114D01*
X155911528Y-94499542D01*
X155840100Y-94570971D01*
X155768671Y-94713828D01*
X155918671Y-122660971D02*
X155918671Y-121160971D01*
X155918671Y-121875257D02*
X155061528Y-121875257D01*
X155061528Y-122660971D02*
X155061528Y-121160971D01*
X130352957Y-121302400D02*
X130495814Y-121230971D01*
X130710100Y-121230971D01*
X130924385Y-121302400D01*
X131067242Y-121445257D01*
X131138671Y-121588114D01*
X131210100Y-121873828D01*
X131210100Y-122088114D01*
X131138671Y-122373828D01*
X131067242Y-122516685D01*
X130924385Y-122659542D01*
X130710100Y-122730971D01*
X130567242Y-122730971D01*
X130352957Y-122659542D01*
X130281528Y-122588114D01*
X130281528Y-122088114D01*
X130567242Y-122088114D01*
X129638671Y-122730971D02*
X129638671Y-121230971D01*
X128781528Y-122730971D01*
X128781528Y-121230971D01*
X128067242Y-122730971D02*
X128067242Y-121230971D01*
X127710100Y-121230971D01*
X127495814Y-121302400D01*
X127352957Y-121445257D01*
X127281528Y-121588114D01*
X127210100Y-121873828D01*
X127210100Y-122088114D01*
X127281528Y-122373828D01*
X127352957Y-122516685D01*
X127495814Y-122659542D01*
X127710100Y-122730971D01*
X128067242Y-122730971D01*
X149985814Y-122660971D02*
X150700100Y-122660971D01*
X150700100Y-121160971D01*
D11*
%TO.C,REF\u002A\u002A*%
X127910713Y-101543985D02*
X127927785Y-101769520D01*
X127927785Y-101769520D02*
X128013637Y-102414803D01*
X128013637Y-102414803D02*
X128150571Y-102986269D01*
X128150571Y-102986269D02*
X128340471Y-103486700D01*
X128340471Y-103486700D02*
X128585220Y-103918881D01*
X128585220Y-103918881D02*
X128886703Y-104285594D01*
X128886703Y-104285594D02*
X129246804Y-104589623D01*
X129246804Y-104589623D02*
X129667407Y-104833752D01*
X129667407Y-104833752D02*
X130122501Y-105012019D01*
X130122501Y-105012019D02*
X130267669Y-105057269D01*
X130267669Y-105057269D02*
X130403612Y-105096673D01*
X130403612Y-105096673D02*
X130537648Y-105130695D01*
X130537648Y-105130695D02*
X130677098Y-105159799D01*
X130677098Y-105159799D02*
X130829280Y-105184450D01*
X130829280Y-105184450D02*
X131001512Y-105205113D01*
X131001512Y-105205113D02*
X131201115Y-105222251D01*
X131201115Y-105222251D02*
X131435405Y-105236330D01*
X131435405Y-105236330D02*
X131711703Y-105247814D01*
X131711703Y-105247814D02*
X132037327Y-105257168D01*
X132037327Y-105257168D02*
X132419596Y-105264856D01*
X132419596Y-105264856D02*
X132865829Y-105271343D01*
X132865829Y-105271343D02*
X133383345Y-105277092D01*
X133383345Y-105277092D02*
X133979463Y-105282570D01*
X133979463Y-105282570D02*
X134446874Y-105286486D01*
X134446874Y-105286486D02*
X137656014Y-105312830D01*
X137656014Y-105312830D02*
X137964839Y-105483529D01*
X137964839Y-105483529D02*
X138113618Y-105564359D01*
X138113618Y-105564359D02*
X138229180Y-105624510D01*
X138229180Y-105624510D02*
X138290690Y-105653206D01*
X138290690Y-105653206D02*
X138294857Y-105654227D01*
X138294857Y-105654227D02*
X138299625Y-105610367D01*
X138299625Y-105610367D02*
X138304019Y-105485418D01*
X138304019Y-105485418D02*
X138307914Y-105289335D01*
X138307914Y-105289335D02*
X138311188Y-105032067D01*
X138311188Y-105032067D02*
X138313716Y-104723567D01*
X138313716Y-104723567D02*
X138315375Y-104373788D01*
X138315375Y-104373788D02*
X138316042Y-103992679D01*
X138316042Y-103992679D02*
X138316050Y-103947238D01*
X138316050Y-103947238D02*
X138316050Y-102240249D01*
X138316050Y-102240249D02*
X137929132Y-102240249D01*
X137929132Y-102240249D02*
X137754278Y-102237338D01*
X137754278Y-102237338D02*
X137620551Y-102229571D01*
X137620551Y-102229571D02*
X137548852Y-102218394D01*
X137548852Y-102218394D02*
X137542214Y-102213454D01*
X137542214Y-102213454D02*
X137570017Y-102168272D01*
X137570017Y-102168272D02*
X137642985Y-102075285D01*
X137642985Y-102075285D02*
X137745459Y-101954426D01*
X137745459Y-101954426D02*
X137747830Y-101951716D01*
X137747830Y-101951716D02*
X137912033Y-101731163D01*
X137912033Y-101731163D02*
X138076915Y-101452622D01*
X138076915Y-101452622D02*
X138226277Y-101147567D01*
X138226277Y-101147567D02*
X138343921Y-100847471D01*
X138343921Y-100847471D02*
X138384124Y-100715339D01*
X138384124Y-100715339D02*
X138435186Y-100452385D01*
X138435186Y-100452385D02*
X138467770Y-100129729D01*
X138467770Y-100129729D02*
X138481411Y-99776906D01*
X138481411Y-99776906D02*
X138475645Y-99423453D01*
X138475645Y-99423453D02*
X138450008Y-99098907D01*
X138450008Y-99098907D02*
X138413118Y-98871790D01*
X138413118Y-98871790D02*
X138249560Y-98314824D01*
X138249560Y-98314824D02*
X138016465Y-97813405D01*
X138016465Y-97813405D02*
X137716723Y-97370799D01*
X137716723Y-97370799D02*
X137353227Y-96990268D01*
X137353227Y-96990268D02*
X136928869Y-96675077D01*
X136928869Y-96675077D02*
X136446540Y-96428488D01*
X136446540Y-96428488D02*
X136153863Y-96322108D01*
X136153863Y-96322108D02*
X135869394Y-96255438D01*
X135869394Y-96255438D02*
X135527897Y-96211255D01*
X135527897Y-96211255D02*
X135160873Y-96190812D01*
X135160873Y-96190812D02*
X135107467Y-96191484D01*
X135107467Y-96191484D02*
X135107467Y-99270088D01*
X135107467Y-99270088D02*
X135380188Y-99295617D01*
X135380188Y-99295617D02*
X135606837Y-99380625D01*
X135606837Y-99380625D02*
X135817113Y-99537741D01*
X135817113Y-99537741D02*
X135878772Y-99598085D01*
X135878772Y-99598085D02*
X136045468Y-99812600D01*
X136045468Y-99812600D02*
X136152256Y-100060541D01*
X136152256Y-100060541D02*
X136203949Y-100357589D01*
X136203949Y-100357589D02*
X136207754Y-100670398D01*
X136207754Y-100670398D02*
X136182623Y-100967090D01*
X136182623Y-100967090D02*
X136133468Y-101194254D01*
X136133468Y-101194254D02*
X136096548Y-101292910D01*
X136096548Y-101292910D02*
X135995926Y-101470725D01*
X135995926Y-101470725D02*
X135854415Y-101659129D01*
X135854415Y-101659129D02*
X135695592Y-101831025D01*
X135695592Y-101831025D02*
X135543033Y-101959318D01*
X135543033Y-101959318D02*
X135487069Y-101993385D01*
X135487069Y-101993385D02*
X135408695Y-102019868D01*
X135408695Y-102019868D02*
X135283988Y-102038697D01*
X135283988Y-102038697D02*
X135101033Y-102050748D01*
X135101033Y-102050748D02*
X134847920Y-102056900D01*
X134847920Y-102056900D02*
X134607025Y-102058170D01*
X134607025Y-102058170D02*
X134326173Y-102057310D01*
X134326173Y-102057310D02*
X134123098Y-102053834D01*
X134123098Y-102053834D02*
X133984543Y-102046403D01*
X133984543Y-102046403D02*
X133897254Y-102033676D01*
X133897254Y-102033676D02*
X133847976Y-102014311D01*
X133847976Y-102014311D02*
X133823454Y-101986968D01*
X133823454Y-101986968D02*
X133819549Y-101978511D01*
X133819549Y-101978511D02*
X133807521Y-101905018D01*
X133807521Y-101905018D02*
X133797683Y-101760068D01*
X133797683Y-101760068D02*
X133790922Y-101563234D01*
X133790922Y-101563234D02*
X133788125Y-101334090D01*
X133788125Y-101334090D02*
X133788122Y-101284335D01*
X133788122Y-101284335D02*
X133793010Y-100978043D01*
X133793010Y-100978043D02*
X133807549Y-100741412D01*
X133807549Y-100741412D02*
X133833728Y-100553385D01*
X133833728Y-100553385D02*
X133871963Y-100398071D01*
X133871963Y-100398071D02*
X134017659Y-100012810D01*
X134017659Y-100012810D02*
X134196784Y-99710689D01*
X134196784Y-99710689D02*
X134412203Y-99489091D01*
X134412203Y-99489091D02*
X134666783Y-99345402D01*
X134666783Y-99345402D02*
X134963387Y-99277004D01*
X134963387Y-99277004D02*
X135107467Y-99270088D01*
X135107467Y-99270088D02*
X135107467Y-96191484D01*
X135107467Y-96191484D02*
X134799823Y-96195360D01*
X134799823Y-96195360D02*
X134476248Y-96226154D01*
X134476248Y-96226154D02*
X134345520Y-96250174D01*
X134345520Y-96250174D02*
X133860129Y-96403550D01*
X133860129Y-96403550D02*
X133413523Y-96636773D01*
X133413523Y-96636773D02*
X133009986Y-96945439D01*
X133009986Y-96945439D02*
X132653802Y-97325147D01*
X132653802Y-97325147D02*
X132349253Y-97771495D01*
X132349253Y-97771495D02*
X132100624Y-98280079D01*
X132100624Y-98280079D02*
X131949645Y-98712471D01*
X131949645Y-98712471D02*
X131870326Y-99001457D01*
X131870326Y-99001457D02*
X131808692Y-99277870D01*
X131808692Y-99277870D02*
X131762742Y-99559615D01*
X131762742Y-99559615D02*
X131730474Y-99864596D01*
X131730474Y-99864596D02*
X131709886Y-100210716D01*
X131709886Y-100210716D02*
X131698977Y-100615879D01*
X131698977Y-100615879D02*
X131695905Y-100982187D01*
X131695905Y-100982187D02*
X131692931Y-102068390D01*
X131692931Y-102068390D02*
X131366430Y-102047583D01*
X131366430Y-102047583D02*
X131012171Y-101988495D01*
X131012171Y-101988495D02*
X130707672Y-101862802D01*
X130707672Y-101862802D02*
X130460536Y-101675855D01*
X130460536Y-101675855D02*
X130278366Y-101433006D01*
X130278366Y-101433006D02*
X130189473Y-101219173D01*
X130189473Y-101219173D02*
X130133449Y-100912792D01*
X130133449Y-100912792D02*
X130125404Y-100548057D01*
X130125404Y-100548057D02*
X130162372Y-100142066D01*
X130162372Y-100142066D02*
X130241386Y-99711918D01*
X130241386Y-99711918D02*
X130359482Y-99274709D01*
X130359482Y-99274709D02*
X130513692Y-98847537D01*
X130513692Y-98847537D02*
X130654730Y-98537107D01*
X130654730Y-98537107D02*
X130727152Y-98387752D01*
X130727152Y-98387752D02*
X130777734Y-98273831D01*
X130777734Y-98273831D02*
X130797471Y-98215896D01*
X130797471Y-98215896D02*
X130796838Y-98212751D01*
X130796838Y-98212751D02*
X130752629Y-98192759D01*
X130752629Y-98192759D02*
X130635450Y-98142837D01*
X130635450Y-98142837D02*
X130456525Y-98067683D01*
X130456525Y-98067683D02*
X130227083Y-97971995D01*
X130227083Y-97971995D02*
X129958349Y-97860470D01*
X129958349Y-97860470D02*
X129684092Y-97747107D01*
X129684092Y-97747107D02*
X128585647Y-97293895D01*
X128585647Y-97293895D02*
X128532698Y-97616266D01*
X128532698Y-97616266D02*
X128506131Y-97755991D01*
X128506131Y-97755991D02*
X128461512Y-97966038D01*
X128461512Y-97966038D02*
X128402889Y-98228413D01*
X128402889Y-98228413D02*
X128334314Y-98525122D01*
X128334314Y-98525122D02*
X128259837Y-98838172D01*
X128259837Y-98838172D02*
X128229571Y-98962830D01*
X128229571Y-98962830D02*
X128104485Y-99502130D01*
X128104485Y-99502130D02*
X128010704Y-99974287D01*
X128010704Y-99974287D02*
X127946331Y-100396925D01*
X127946331Y-100396925D02*
X127909471Y-100787670D01*
X127909471Y-100787670D02*
X127898230Y-101164148D01*
X127898230Y-101164148D02*
X127910713Y-101543985D01*
X127910713Y-101543985D02*
X127910713Y-101543985D01*
G36*
X135527897Y-96211255D02*
G01*
X135869394Y-96255438D01*
X136153863Y-96322108D01*
X136446540Y-96428488D01*
X136928869Y-96675077D01*
X137353227Y-96990268D01*
X137716723Y-97370799D01*
X138016465Y-97813405D01*
X138249560Y-98314824D01*
X138413118Y-98871790D01*
X138450008Y-99098907D01*
X138475645Y-99423453D01*
X138481411Y-99776906D01*
X138467770Y-100129729D01*
X138435186Y-100452385D01*
X138384124Y-100715339D01*
X138343921Y-100847471D01*
X138226277Y-101147567D01*
X138076915Y-101452622D01*
X137912033Y-101731163D01*
X137747830Y-101951716D01*
X137745459Y-101954426D01*
X137642985Y-102075285D01*
X137570017Y-102168272D01*
X137542214Y-102213454D01*
X137548852Y-102218394D01*
X137620551Y-102229571D01*
X137754278Y-102237338D01*
X137929132Y-102240249D01*
X138316050Y-102240249D01*
X138316050Y-103947238D01*
X138316042Y-103992679D01*
X138315375Y-104373788D01*
X138313716Y-104723567D01*
X138311188Y-105032067D01*
X138307914Y-105289335D01*
X138304019Y-105485418D01*
X138299625Y-105610367D01*
X138294857Y-105654227D01*
X138290690Y-105653206D01*
X138229180Y-105624510D01*
X138113618Y-105564359D01*
X137964839Y-105483529D01*
X137656014Y-105312830D01*
X134446874Y-105286486D01*
X133979463Y-105282570D01*
X133383345Y-105277092D01*
X132865829Y-105271343D01*
X132419596Y-105264856D01*
X132037327Y-105257168D01*
X131711703Y-105247814D01*
X131435405Y-105236330D01*
X131201115Y-105222251D01*
X131001512Y-105205113D01*
X130829280Y-105184450D01*
X130677098Y-105159799D01*
X130537648Y-105130695D01*
X130403612Y-105096673D01*
X130267669Y-105057269D01*
X130122501Y-105012019D01*
X129667407Y-104833752D01*
X129246804Y-104589623D01*
X128886703Y-104285594D01*
X128585220Y-103918881D01*
X128340471Y-103486700D01*
X128150571Y-102986269D01*
X128013637Y-102414803D01*
X127927785Y-101769520D01*
X127910713Y-101543985D01*
X127898230Y-101164148D01*
X127909471Y-100787670D01*
X127946331Y-100396925D01*
X128010704Y-99974287D01*
X128104485Y-99502130D01*
X128229571Y-98962830D01*
X128259837Y-98838172D01*
X128334314Y-98525122D01*
X128402889Y-98228413D01*
X128461512Y-97966038D01*
X128506131Y-97755991D01*
X128532698Y-97616266D01*
X128585647Y-97293895D01*
X129684092Y-97747107D01*
X129958349Y-97860470D01*
X130227083Y-97971995D01*
X130456525Y-98067683D01*
X130635450Y-98142837D01*
X130752629Y-98192759D01*
X130796838Y-98212751D01*
X130797471Y-98215896D01*
X130777734Y-98273831D01*
X130727152Y-98387752D01*
X130654730Y-98537107D01*
X130513692Y-98847537D01*
X130359482Y-99274709D01*
X130241386Y-99711918D01*
X130162372Y-100142066D01*
X130125404Y-100548057D01*
X130133449Y-100912792D01*
X130189473Y-101219173D01*
X130278366Y-101433006D01*
X130460536Y-101675855D01*
X130707672Y-101862802D01*
X131012171Y-101988495D01*
X131366430Y-102047583D01*
X131692931Y-102068390D01*
X131695078Y-101284335D01*
X133788122Y-101284335D01*
X133788125Y-101334090D01*
X133790922Y-101563234D01*
X133797683Y-101760068D01*
X133807521Y-101905018D01*
X133819549Y-101978511D01*
X133823454Y-101986968D01*
X133847976Y-102014311D01*
X133897254Y-102033676D01*
X133984543Y-102046403D01*
X134123098Y-102053834D01*
X134326173Y-102057310D01*
X134607025Y-102058170D01*
X134847920Y-102056900D01*
X135101033Y-102050748D01*
X135283988Y-102038697D01*
X135408695Y-102019868D01*
X135487069Y-101993385D01*
X135543033Y-101959318D01*
X135695592Y-101831025D01*
X135854415Y-101659129D01*
X135995926Y-101470725D01*
X136096548Y-101292910D01*
X136133468Y-101194254D01*
X136182623Y-100967090D01*
X136207754Y-100670398D01*
X136203949Y-100357589D01*
X136152256Y-100060541D01*
X136045468Y-99812600D01*
X135878772Y-99598085D01*
X135817113Y-99537741D01*
X135606837Y-99380625D01*
X135380188Y-99295617D01*
X135107467Y-99270088D01*
X134963387Y-99277004D01*
X134666783Y-99345402D01*
X134412203Y-99489091D01*
X134196784Y-99710689D01*
X134017659Y-100012810D01*
X133871963Y-100398071D01*
X133833728Y-100553385D01*
X133807549Y-100741412D01*
X133793010Y-100978043D01*
X133788122Y-101284335D01*
X131695078Y-101284335D01*
X131695905Y-100982187D01*
X131698977Y-100615879D01*
X131709886Y-100210716D01*
X131730474Y-99864596D01*
X131762742Y-99559615D01*
X131808692Y-99277870D01*
X131870326Y-99001457D01*
X131949645Y-98712471D01*
X132100624Y-98280079D01*
X132349253Y-97771495D01*
X132653802Y-97325147D01*
X133009986Y-96945439D01*
X133413523Y-96636773D01*
X133860129Y-96403550D01*
X134345520Y-96250174D01*
X134476248Y-96226154D01*
X134799823Y-96195360D01*
X135107467Y-96191484D01*
X135160873Y-96190812D01*
X135527897Y-96211255D01*
G37*
X135527897Y-96211255D02*
X135869394Y-96255438D01*
X136153863Y-96322108D01*
X136446540Y-96428488D01*
X136928869Y-96675077D01*
X137353227Y-96990268D01*
X137716723Y-97370799D01*
X138016465Y-97813405D01*
X138249560Y-98314824D01*
X138413118Y-98871790D01*
X138450008Y-99098907D01*
X138475645Y-99423453D01*
X138481411Y-99776906D01*
X138467770Y-100129729D01*
X138435186Y-100452385D01*
X138384124Y-100715339D01*
X138343921Y-100847471D01*
X138226277Y-101147567D01*
X138076915Y-101452622D01*
X137912033Y-101731163D01*
X137747830Y-101951716D01*
X137745459Y-101954426D01*
X137642985Y-102075285D01*
X137570017Y-102168272D01*
X137542214Y-102213454D01*
X137548852Y-102218394D01*
X137620551Y-102229571D01*
X137754278Y-102237338D01*
X137929132Y-102240249D01*
X138316050Y-102240249D01*
X138316050Y-103947238D01*
X138316042Y-103992679D01*
X138315375Y-104373788D01*
X138313716Y-104723567D01*
X138311188Y-105032067D01*
X138307914Y-105289335D01*
X138304019Y-105485418D01*
X138299625Y-105610367D01*
X138294857Y-105654227D01*
X138290690Y-105653206D01*
X138229180Y-105624510D01*
X138113618Y-105564359D01*
X137964839Y-105483529D01*
X137656014Y-105312830D01*
X134446874Y-105286486D01*
X133979463Y-105282570D01*
X133383345Y-105277092D01*
X132865829Y-105271343D01*
X132419596Y-105264856D01*
X132037327Y-105257168D01*
X131711703Y-105247814D01*
X131435405Y-105236330D01*
X131201115Y-105222251D01*
X131001512Y-105205113D01*
X130829280Y-105184450D01*
X130677098Y-105159799D01*
X130537648Y-105130695D01*
X130403612Y-105096673D01*
X130267669Y-105057269D01*
X130122501Y-105012019D01*
X129667407Y-104833752D01*
X129246804Y-104589623D01*
X128886703Y-104285594D01*
X128585220Y-103918881D01*
X128340471Y-103486700D01*
X128150571Y-102986269D01*
X128013637Y-102414803D01*
X127927785Y-101769520D01*
X127910713Y-101543985D01*
X127898230Y-101164148D01*
X127909471Y-100787670D01*
X127946331Y-100396925D01*
X128010704Y-99974287D01*
X128104485Y-99502130D01*
X128229571Y-98962830D01*
X128259837Y-98838172D01*
X128334314Y-98525122D01*
X128402889Y-98228413D01*
X128461512Y-97966038D01*
X128506131Y-97755991D01*
X128532698Y-97616266D01*
X128585647Y-97293895D01*
X129684092Y-97747107D01*
X129958349Y-97860470D01*
X130227083Y-97971995D01*
X130456525Y-98067683D01*
X130635450Y-98142837D01*
X130752629Y-98192759D01*
X130796838Y-98212751D01*
X130797471Y-98215896D01*
X130777734Y-98273831D01*
X130727152Y-98387752D01*
X130654730Y-98537107D01*
X130513692Y-98847537D01*
X130359482Y-99274709D01*
X130241386Y-99711918D01*
X130162372Y-100142066D01*
X130125404Y-100548057D01*
X130133449Y-100912792D01*
X130189473Y-101219173D01*
X130278366Y-101433006D01*
X130460536Y-101675855D01*
X130707672Y-101862802D01*
X131012171Y-101988495D01*
X131366430Y-102047583D01*
X131692931Y-102068390D01*
X131695078Y-101284335D01*
X133788122Y-101284335D01*
X133788125Y-101334090D01*
X133790922Y-101563234D01*
X133797683Y-101760068D01*
X133807521Y-101905018D01*
X133819549Y-101978511D01*
X133823454Y-101986968D01*
X133847976Y-102014311D01*
X133897254Y-102033676D01*
X133984543Y-102046403D01*
X134123098Y-102053834D01*
X134326173Y-102057310D01*
X134607025Y-102058170D01*
X134847920Y-102056900D01*
X135101033Y-102050748D01*
X135283988Y-102038697D01*
X135408695Y-102019868D01*
X135487069Y-101993385D01*
X135543033Y-101959318D01*
X135695592Y-101831025D01*
X135854415Y-101659129D01*
X135995926Y-101470725D01*
X136096548Y-101292910D01*
X136133468Y-101194254D01*
X136182623Y-100967090D01*
X136207754Y-100670398D01*
X136203949Y-100357589D01*
X136152256Y-100060541D01*
X136045468Y-99812600D01*
X135878772Y-99598085D01*
X135817113Y-99537741D01*
X135606837Y-99380625D01*
X135380188Y-99295617D01*
X135107467Y-99270088D01*
X134963387Y-99277004D01*
X134666783Y-99345402D01*
X134412203Y-99489091D01*
X134196784Y-99710689D01*
X134017659Y-100012810D01*
X133871963Y-100398071D01*
X133833728Y-100553385D01*
X133807549Y-100741412D01*
X133793010Y-100978043D01*
X133788122Y-101284335D01*
X131695078Y-101284335D01*
X131695905Y-100982187D01*
X131698977Y-100615879D01*
X131709886Y-100210716D01*
X131730474Y-99864596D01*
X131762742Y-99559615D01*
X131808692Y-99277870D01*
X131870326Y-99001457D01*
X131949645Y-98712471D01*
X132100624Y-98280079D01*
X132349253Y-97771495D01*
X132653802Y-97325147D01*
X133009986Y-96945439D01*
X133413523Y-96636773D01*
X133860129Y-96403550D01*
X134345520Y-96250174D01*
X134476248Y-96226154D01*
X134799823Y-96195360D01*
X135107467Y-96191484D01*
X135160873Y-96190812D01*
X135527897Y-96211255D01*
X121974336Y-71296657D02*
X121974454Y-72173661D01*
X121974454Y-72173661D02*
X121974472Y-72581895D01*
X121974472Y-72581895D02*
X121974472Y-79116235D01*
X121974472Y-79116235D02*
X122359656Y-79116235D01*
X122359656Y-79116235D02*
X122828393Y-79157347D01*
X122828393Y-79157347D02*
X123260698Y-79281427D01*
X123260698Y-79281427D02*
X123659140Y-79489590D01*
X123659140Y-79489590D02*
X124026289Y-79782950D01*
X124026289Y-79782950D02*
X124125449Y-79882203D01*
X124125449Y-79882203D02*
X124406718Y-80239241D01*
X124406718Y-80239241D02*
X124611854Y-80632918D01*
X124611854Y-80632918D02*
X124740950Y-81051539D01*
X124740950Y-81051539D02*
X124794099Y-81483412D01*
X124794099Y-81483412D02*
X124771394Y-81916845D01*
X124771394Y-81916845D02*
X124672928Y-82340145D01*
X124672928Y-82340145D02*
X124498796Y-82741619D01*
X124498796Y-82741619D02*
X124249088Y-83109574D01*
X124249088Y-83109574D02*
X124098435Y-83274828D01*
X124098435Y-83274828D02*
X123729060Y-83582778D01*
X123729060Y-83582778D02*
X123322869Y-83808594D01*
X123322869Y-83808594D02*
X122884504Y-83950306D01*
X122884504Y-83950306D02*
X122418610Y-84005947D01*
X122418610Y-84005947D02*
X122372777Y-84006686D01*
X122372777Y-84006686D02*
X121974487Y-84009604D01*
X121974487Y-84009604D02*
X121974480Y-84184659D01*
X121974480Y-84184659D02*
X121995555Y-84339950D01*
X121995555Y-84339950D02*
X122046834Y-84481807D01*
X122046834Y-84481807D02*
X122052132Y-84491182D01*
X122052132Y-84491182D02*
X122068756Y-84523221D01*
X122068756Y-84523221D02*
X122081703Y-84552643D01*
X122081703Y-84552643D02*
X122094744Y-84579553D01*
X122094744Y-84579553D02*
X122111650Y-84604058D01*
X122111650Y-84604058D02*
X122136192Y-84626265D01*
X122136192Y-84626265D02*
X122172141Y-84646280D01*
X122172141Y-84646280D02*
X122223269Y-84664208D01*
X122223269Y-84664208D02*
X122293345Y-84680157D01*
X122293345Y-84680157D02*
X122386143Y-84694232D01*
X122386143Y-84694232D02*
X122505432Y-84706541D01*
X122505432Y-84706541D02*
X122654984Y-84717188D01*
X122654984Y-84717188D02*
X122838569Y-84726282D01*
X122838569Y-84726282D02*
X123059960Y-84733927D01*
X123059960Y-84733927D02*
X123322927Y-84740231D01*
X123322927Y-84740231D02*
X123631241Y-84745300D01*
X123631241Y-84745300D02*
X123988673Y-84749239D01*
X123988673Y-84749239D02*
X124398995Y-84752156D01*
X124398995Y-84752156D02*
X124865978Y-84754156D01*
X124865978Y-84754156D02*
X125393392Y-84755346D01*
X125393392Y-84755346D02*
X125985009Y-84755833D01*
X125985009Y-84755833D02*
X126644601Y-84755722D01*
X126644601Y-84755722D02*
X127375937Y-84755121D01*
X127375937Y-84755121D02*
X128182789Y-84754134D01*
X128182789Y-84754134D02*
X129068929Y-84752869D01*
X129068929Y-84752869D02*
X130038128Y-84751432D01*
X130038128Y-84751432D02*
X131094156Y-84749930D01*
X131094156Y-84749930D02*
X131222815Y-84749755D01*
X131222815Y-84749755D02*
X132285578Y-84748408D01*
X132285578Y-84748408D02*
X133261071Y-84747265D01*
X133261071Y-84747265D02*
X134153064Y-84746205D01*
X134153064Y-84746205D02*
X134965326Y-84745106D01*
X134965326Y-84745106D02*
X135701628Y-84743849D01*
X135701628Y-84743849D02*
X136365737Y-84742312D01*
X136365737Y-84742312D02*
X136961424Y-84740373D01*
X136961424Y-84740373D02*
X137492459Y-84737912D01*
X137492459Y-84737912D02*
X137962609Y-84734808D01*
X137962609Y-84734808D02*
X138375646Y-84730940D01*
X138375646Y-84730940D02*
X138735338Y-84726186D01*
X138735338Y-84726186D02*
X139045455Y-84720425D01*
X139045455Y-84720425D02*
X139309766Y-84713537D01*
X139309766Y-84713537D02*
X139532040Y-84705400D01*
X139532040Y-84705400D02*
X139716048Y-84695894D01*
X139716048Y-84695894D02*
X139865558Y-84684897D01*
X139865558Y-84684897D02*
X139984340Y-84672288D01*
X139984340Y-84672288D02*
X140076163Y-84657946D01*
X140076163Y-84657946D02*
X140144796Y-84641750D01*
X140144796Y-84641750D02*
X140194010Y-84623579D01*
X140194010Y-84623579D02*
X140227574Y-84603312D01*
X140227574Y-84603312D02*
X140249256Y-84580828D01*
X140249256Y-84580828D02*
X140262826Y-84556006D01*
X140262826Y-84556006D02*
X140272055Y-84528724D01*
X140272055Y-84528724D02*
X140280710Y-84498862D01*
X140280710Y-84498862D02*
X140292562Y-84466299D01*
X140292562Y-84466299D02*
X140296170Y-84458344D01*
X140296170Y-84458344D02*
X140304277Y-84433343D01*
X140304277Y-84433343D02*
X140311726Y-84391499D01*
X140311726Y-84391499D02*
X140318543Y-84329157D01*
X140318543Y-84329157D02*
X140324755Y-84242664D01*
X140324755Y-84242664D02*
X140330388Y-84128367D01*
X140330388Y-84128367D02*
X140335468Y-83982612D01*
X140335468Y-83982612D02*
X140340023Y-83801744D01*
X140340023Y-83801744D02*
X140344079Y-83582110D01*
X140344079Y-83582110D02*
X140347661Y-83320057D01*
X140347661Y-83320057D02*
X140350798Y-83011931D01*
X140350798Y-83011931D02*
X140353515Y-82654078D01*
X140353515Y-82654078D02*
X140355839Y-82242844D01*
X140355839Y-82242844D02*
X140357796Y-81774576D01*
X140357796Y-81774576D02*
X140359412Y-81245620D01*
X140359412Y-81245620D02*
X140360716Y-80652323D01*
X140360716Y-80652323D02*
X140361732Y-79991030D01*
X140361732Y-79991030D02*
X140362487Y-79258087D01*
X140362487Y-79258087D02*
X140363009Y-78449842D01*
X140363009Y-78449842D02*
X140363323Y-77562640D01*
X140363323Y-77562640D02*
X140363455Y-76592829D01*
X140363455Y-76592829D02*
X140363434Y-75536753D01*
X140363434Y-75536753D02*
X140363400Y-75194660D01*
X140363400Y-75194660D02*
X140363227Y-74115156D01*
X140363227Y-74115156D02*
X140362944Y-73122993D01*
X140362944Y-73122993D02*
X140362521Y-72214475D01*
X140362521Y-72214475D02*
X140361931Y-71385905D01*
X140361931Y-71385905D02*
X140361144Y-70633584D01*
X140361144Y-70633584D02*
X140360131Y-69953815D01*
X140360131Y-69953815D02*
X140358863Y-69342901D01*
X140358863Y-69342901D02*
X140357312Y-68797144D01*
X140357312Y-68797144D02*
X140355449Y-68312848D01*
X140355449Y-68312848D02*
X140353244Y-67886314D01*
X140353244Y-67886314D02*
X140350669Y-67513845D01*
X140350669Y-67513845D02*
X140347695Y-67191744D01*
X140347695Y-67191744D02*
X140344293Y-66916313D01*
X140344293Y-66916313D02*
X140340434Y-66683855D01*
X140340434Y-66683855D02*
X140336090Y-66490672D01*
X140336090Y-66490672D02*
X140331230Y-66333068D01*
X140331230Y-66333068D02*
X140325827Y-66207344D01*
X140325827Y-66207344D02*
X140319852Y-66109803D01*
X140319852Y-66109803D02*
X140313276Y-66036748D01*
X140313276Y-66036748D02*
X140306069Y-65984481D01*
X140306069Y-65984481D02*
X140298203Y-65949305D01*
X140298203Y-65949305D02*
X140291000Y-65930129D01*
X140291000Y-65930129D02*
X140276627Y-65896048D01*
X140276627Y-65896048D02*
X140266028Y-65864755D01*
X140266028Y-65864755D02*
X140255439Y-65836133D01*
X140255439Y-65836133D02*
X140241095Y-65810063D01*
X140241095Y-65810063D02*
X140219233Y-65786426D01*
X140219233Y-65786426D02*
X140186089Y-65765105D01*
X140186089Y-65765105D02*
X140137899Y-65745980D01*
X140137899Y-65745980D02*
X140070898Y-65728933D01*
X140070898Y-65728933D02*
X139981322Y-65713846D01*
X139981322Y-65713846D02*
X139865408Y-65700600D01*
X139865408Y-65700600D02*
X139719390Y-65689077D01*
X139719390Y-65689077D02*
X139539507Y-65679158D01*
X139539507Y-65679158D02*
X139321992Y-65670725D01*
X139321992Y-65670725D02*
X139063082Y-65663659D01*
X139063082Y-65663659D02*
X138759013Y-65657842D01*
X138759013Y-65657842D02*
X138406021Y-65653155D01*
X138406021Y-65653155D02*
X138270530Y-65651928D01*
X138270530Y-65651928D02*
X138270530Y-66866799D01*
X138270530Y-66866799D02*
X138270530Y-71160755D01*
X138270530Y-71160755D02*
X138145351Y-71078132D01*
X138145351Y-71078132D02*
X138016713Y-70995938D01*
X138016713Y-70995938D02*
X137894216Y-70926334D01*
X137894216Y-70926334D02*
X137769287Y-70868332D01*
X137769287Y-70868332D02*
X137633355Y-70820939D01*
X137633355Y-70820939D02*
X137477846Y-70783167D01*
X137477846Y-70783167D02*
X137294188Y-70754025D01*
X137294188Y-70754025D02*
X137073808Y-70732524D01*
X137073808Y-70732524D02*
X136808133Y-70717672D01*
X136808133Y-70717672D02*
X136488592Y-70708481D01*
X136488592Y-70708481D02*
X136106612Y-70703960D01*
X136106612Y-70703960D02*
X135653619Y-70703119D01*
X135653619Y-70703119D02*
X135121043Y-70704968D01*
X135121043Y-70704968D02*
X134923320Y-70706017D01*
X134923320Y-70706017D02*
X132803639Y-70717848D01*
X132803639Y-70717848D02*
X134631784Y-72060679D01*
X134631784Y-72060679D02*
X135150406Y-72441101D01*
X135150406Y-72441101D02*
X135602005Y-72770691D01*
X135602005Y-72770691D02*
X135992564Y-73053009D01*
X135992564Y-73053009D02*
X136328067Y-73291611D01*
X136328067Y-73291611D02*
X136614495Y-73490059D01*
X136614495Y-73490059D02*
X136857833Y-73651909D01*
X136857833Y-73651909D02*
X137064064Y-73780722D01*
X137064064Y-73780722D02*
X137239169Y-73880056D01*
X137239169Y-73880056D02*
X137389133Y-73953469D01*
X137389133Y-73953469D02*
X137519938Y-74004521D01*
X137519938Y-74004521D02*
X137637567Y-74036770D01*
X137637567Y-74036770D02*
X137748003Y-74053775D01*
X137748003Y-74053775D02*
X137857229Y-74059095D01*
X137857229Y-74059095D02*
X137971228Y-74056288D01*
X137971228Y-74056288D02*
X137985557Y-74055572D01*
X137985557Y-74055572D02*
X138270721Y-74040787D01*
X138270721Y-74040787D02*
X138270625Y-76393673D01*
X138270625Y-76393673D02*
X138270530Y-78746559D01*
X138270530Y-78746559D02*
X137917599Y-78396540D01*
X137917599Y-78396540D02*
X137821070Y-78301560D01*
X137821070Y-78301560D02*
X137727142Y-78211457D01*
X137727142Y-78211457D02*
X137630637Y-78122274D01*
X137630637Y-78122274D02*
X137526374Y-78030060D01*
X137526374Y-78030060D02*
X137409172Y-77930858D01*
X137409172Y-77930858D02*
X137273852Y-77820715D01*
X137273852Y-77820715D02*
X137115234Y-77695677D01*
X137115234Y-77695677D02*
X136928138Y-77551788D01*
X136928138Y-77551788D02*
X136707383Y-77385096D01*
X136707383Y-77385096D02*
X136447789Y-77191644D01*
X136447789Y-77191644D02*
X136144177Y-76967480D01*
X136144177Y-76967480D02*
X135791366Y-76708649D01*
X135791366Y-76708649D02*
X135384177Y-76411196D01*
X135384177Y-76411196D02*
X134917428Y-76071168D01*
X134917428Y-76071168D02*
X134385941Y-75684609D01*
X134385941Y-75684609D02*
X133949966Y-75367764D01*
X133949966Y-75367764D02*
X133402253Y-74970113D01*
X133402253Y-74970113D02*
X132923362Y-74623220D01*
X132923362Y-74623220D02*
X132508745Y-74323943D01*
X132508745Y-74323943D02*
X132153856Y-74069139D01*
X132153856Y-74069139D02*
X131854149Y-73855666D01*
X131854149Y-73855666D02*
X131605077Y-73680381D01*
X131605077Y-73680381D02*
X131402093Y-73540141D01*
X131402093Y-73540141D02*
X131240651Y-73431805D01*
X131240651Y-73431805D02*
X131116204Y-73352229D01*
X131116204Y-73352229D02*
X131024205Y-73298272D01*
X131024205Y-73298272D02*
X130960107Y-73266790D01*
X130960107Y-73266790D02*
X130919364Y-73254641D01*
X130919364Y-73254641D02*
X130897944Y-73258293D01*
X130897944Y-73258293D02*
X130840940Y-73302545D01*
X130840940Y-73302545D02*
X130720280Y-73398220D01*
X130720280Y-73398220D02*
X130543134Y-73539545D01*
X130543134Y-73539545D02*
X130316675Y-73720747D01*
X130316675Y-73720747D02*
X130048074Y-73936054D01*
X130048074Y-73936054D02*
X129744504Y-74179691D01*
X129744504Y-74179691D02*
X129413137Y-74445886D01*
X129413137Y-74445886D02*
X129061145Y-74728866D01*
X129061145Y-74728866D02*
X128695699Y-75022858D01*
X128695699Y-75022858D02*
X128323972Y-75322089D01*
X128323972Y-75322089D02*
X128119634Y-75486675D01*
X128119634Y-75486675D02*
X128119634Y-79573154D01*
X128119634Y-79573154D02*
X128734150Y-79912830D01*
X128734150Y-79912830D02*
X137656014Y-79912830D01*
X137656014Y-79912830D02*
X138270530Y-79573154D01*
X138270530Y-79573154D02*
X138270530Y-81582215D01*
X138270530Y-81582215D02*
X138270390Y-82061832D01*
X138270390Y-82061832D02*
X138269761Y-82457989D01*
X138269761Y-82457989D02*
X138268325Y-82778264D01*
X138268325Y-82778264D02*
X138265766Y-83030237D01*
X138265766Y-83030237D02*
X138261767Y-83221486D01*
X138261767Y-83221486D02*
X138256011Y-83359591D01*
X138256011Y-83359591D02*
X138248181Y-83452131D01*
X138248181Y-83452131D02*
X138237962Y-83506684D01*
X138237962Y-83506684D02*
X138225035Y-83530829D01*
X138225035Y-83530829D02*
X138209085Y-83532146D01*
X138209085Y-83532146D02*
X138189795Y-83518212D01*
X138189795Y-83518212D02*
X138189636Y-83518068D01*
X138189636Y-83518068D02*
X138106612Y-83460674D01*
X138106612Y-83460674D02*
X137971617Y-83384672D01*
X137971617Y-83384672D02*
X137836858Y-83317554D01*
X137836858Y-83317554D02*
X137564974Y-83190249D01*
X137564974Y-83190249D02*
X132842304Y-83177265D01*
X132842304Y-83177265D02*
X128119634Y-83164282D01*
X128119634Y-83164282D02*
X128119634Y-79573154D01*
X128119634Y-79573154D02*
X128119634Y-75486675D01*
X128119634Y-75486675D02*
X127953135Y-75620785D01*
X127953135Y-75620785D02*
X127590361Y-75913174D01*
X127590361Y-75913174D02*
X127242822Y-76193484D01*
X127242822Y-76193484D02*
X126917689Y-76455939D01*
X126917689Y-76455939D02*
X126622135Y-76694769D01*
X126622135Y-76694769D02*
X126363331Y-76904199D01*
X126363331Y-76904199D02*
X126148450Y-77078457D01*
X126148450Y-77078457D02*
X125984663Y-77211769D01*
X125984663Y-77211769D02*
X125889168Y-77290071D01*
X125889168Y-77290071D02*
X125532067Y-77594128D01*
X125532067Y-77594128D02*
X125209817Y-77886647D01*
X125209817Y-77886647D02*
X124932966Y-78157374D01*
X124932966Y-78157374D02*
X124712066Y-78396059D01*
X124712066Y-78396059D02*
X124576635Y-78565448D01*
X124576635Y-78565448D02*
X124432537Y-78765736D01*
X124432537Y-78765736D02*
X124432537Y-74159334D01*
X124432537Y-74159334D02*
X124702844Y-74160627D01*
X124702844Y-74160627D02*
X124901571Y-74147753D01*
X124901571Y-74147753D02*
X125085811Y-74099353D01*
X125085811Y-74099353D02*
X125260460Y-74024430D01*
X125260460Y-74024430D02*
X125359126Y-73975727D01*
X125359126Y-73975727D02*
X125456891Y-73923362D01*
X125456891Y-73923362D02*
X125560244Y-73862553D01*
X125560244Y-73862553D02*
X125675676Y-73788515D01*
X125675676Y-73788515D02*
X125809676Y-73696465D01*
X125809676Y-73696465D02*
X125968736Y-73581619D01*
X125968736Y-73581619D02*
X126159344Y-73439195D01*
X126159344Y-73439195D02*
X126387992Y-73264408D01*
X126387992Y-73264408D02*
X126661170Y-73052475D01*
X126661170Y-73052475D02*
X126985367Y-72798612D01*
X126985367Y-72798612D02*
X127367074Y-72498036D01*
X127367074Y-72498036D02*
X127812781Y-72145964D01*
X127812781Y-72145964D02*
X127863072Y-72106199D01*
X127863072Y-72106199D02*
X129618758Y-70717848D01*
X129618758Y-70717848D02*
X127674303Y-70704407D01*
X127674303Y-70704407D02*
X127091882Y-70701701D01*
X127091882Y-70701701D02*
X126598817Y-70702277D01*
X126598817Y-70702277D02*
X126193483Y-70706164D01*
X126193483Y-70706164D02*
X125874254Y-70713389D01*
X125874254Y-70713389D02*
X125639506Y-70723982D01*
X125639506Y-70723982D02*
X125487613Y-70737969D01*
X125487613Y-70737969D02*
X125458800Y-70742670D01*
X125458800Y-70742670D02*
X125155295Y-70816427D01*
X125155295Y-70816427D02*
X124881684Y-70913064D01*
X124881684Y-70913064D02*
X124661690Y-71023339D01*
X124661690Y-71023339D02*
X124568386Y-71089588D01*
X124568386Y-71089588D02*
X124432537Y-71203897D01*
X124432537Y-71203897D02*
X124432537Y-69034978D01*
X124432537Y-69034978D02*
X124432979Y-68517592D01*
X124432979Y-68517592D02*
X124434419Y-68084938D01*
X124434419Y-68084938D02*
X124437024Y-67730711D01*
X124437024Y-67730711D02*
X124440962Y-67448606D01*
X124440962Y-67448606D02*
X124446401Y-67232320D01*
X124446401Y-67232320D02*
X124453509Y-67075549D01*
X124453509Y-67075549D02*
X124462454Y-66971987D01*
X124462454Y-66971987D02*
X124473405Y-66915331D01*
X124473405Y-66915331D02*
X124486530Y-66899277D01*
X124486530Y-66899277D02*
X124489437Y-66900387D01*
X124489437Y-66900387D02*
X124558839Y-66946366D01*
X124558839Y-66946366D02*
X124668847Y-67023127D01*
X124668847Y-67023127D02*
X124724484Y-67062841D01*
X124724484Y-67062841D02*
X124780006Y-67103902D01*
X124780006Y-67103902D02*
X124829657Y-67140808D01*
X124829657Y-67140808D02*
X124878322Y-67173794D01*
X124878322Y-67173794D02*
X124930889Y-67203091D01*
X124930889Y-67203091D02*
X124992244Y-67228932D01*
X124992244Y-67228932D02*
X125067272Y-67251549D01*
X125067272Y-67251549D02*
X125160859Y-67271174D01*
X125160859Y-67271174D02*
X125277892Y-67288040D01*
X125277892Y-67288040D02*
X125423257Y-67302379D01*
X125423257Y-67302379D02*
X125601839Y-67314424D01*
X125601839Y-67314424D02*
X125818525Y-67324407D01*
X125818525Y-67324407D02*
X126078202Y-67332560D01*
X126078202Y-67332560D02*
X126385754Y-67339115D01*
X126385754Y-67339115D02*
X126746069Y-67344306D01*
X126746069Y-67344306D02*
X127164032Y-67348364D01*
X127164032Y-67348364D02*
X127644530Y-67351521D01*
X127644530Y-67351521D02*
X128192448Y-67354011D01*
X128192448Y-67354011D02*
X128812672Y-67356065D01*
X128812672Y-67356065D02*
X129510089Y-67357917D01*
X129510089Y-67357917D02*
X130289586Y-67359797D01*
X130289586Y-67359797D02*
X131005690Y-67361554D01*
X131005690Y-67361554D02*
X131804021Y-67363214D01*
X131804021Y-67363214D02*
X132565704Y-67364076D01*
X132565704Y-67364076D02*
X133285873Y-67364165D01*
X133285873Y-67364165D02*
X133959663Y-67363504D01*
X133959663Y-67363504D02*
X134582208Y-67362114D01*
X134582208Y-67362114D02*
X135148644Y-67360019D01*
X135148644Y-67360019D02*
X135654106Y-67357243D01*
X135654106Y-67357243D02*
X136093728Y-67353807D01*
X136093728Y-67353807D02*
X136462645Y-67349735D01*
X136462645Y-67349735D02*
X136755992Y-67345050D01*
X136755992Y-67345050D02*
X136968904Y-67339774D01*
X136968904Y-67339774D02*
X137096516Y-67333931D01*
X137096516Y-67333931D02*
X137110002Y-67332825D01*
X137110002Y-67332825D02*
X137419380Y-67292559D01*
X137419380Y-67292559D02*
X137667844Y-67229694D01*
X137667844Y-67229694D02*
X137884684Y-67133961D01*
X137884684Y-67133961D02*
X138099187Y-66995086D01*
X138099187Y-66995086D02*
X138122591Y-66977715D01*
X138122591Y-66977715D02*
X138270530Y-66866799D01*
X138270530Y-66866799D02*
X138270530Y-65651928D01*
X138270530Y-65651928D02*
X138000342Y-65649480D01*
X138000342Y-65649480D02*
X137538211Y-65646699D01*
X137538211Y-65646699D02*
X137015865Y-65644693D01*
X137015865Y-65644693D02*
X136429540Y-65643343D01*
X136429540Y-65643343D02*
X135775471Y-65642531D01*
X135775471Y-65642531D02*
X135049895Y-65642140D01*
X135049895Y-65642140D02*
X134249047Y-65642049D01*
X134249047Y-65642049D02*
X133369163Y-65642140D01*
X133369163Y-65642140D02*
X132406479Y-65642296D01*
X132406479Y-65642296D02*
X131357232Y-65642397D01*
X131357232Y-65642397D02*
X131148935Y-65642400D01*
X131148935Y-65642400D02*
X130088637Y-65642459D01*
X130088637Y-65642459D02*
X129115642Y-65642656D01*
X129115642Y-65642656D02*
X128226213Y-65643020D01*
X128226213Y-65643020D02*
X127416615Y-65643580D01*
X127416615Y-65643580D02*
X126683109Y-65644364D01*
X126683109Y-65644364D02*
X126021960Y-65645403D01*
X126021960Y-65645403D02*
X125429432Y-65646724D01*
X125429432Y-65646724D02*
X124901787Y-65648357D01*
X124901787Y-65648357D02*
X124435289Y-65650331D01*
X124435289Y-65650331D02*
X124026202Y-65652674D01*
X124026202Y-65652674D02*
X123670789Y-65655416D01*
X123670789Y-65655416D02*
X123365314Y-65658586D01*
X123365314Y-65658586D02*
X123106040Y-65662213D01*
X123106040Y-65662213D02*
X122889230Y-65666325D01*
X122889230Y-65666325D02*
X122711149Y-65670952D01*
X122711149Y-65670952D02*
X122568059Y-65676122D01*
X122568059Y-65676122D02*
X122456224Y-65681865D01*
X122456224Y-65681865D02*
X122371907Y-65688209D01*
X122371907Y-65688209D02*
X122311373Y-65695184D01*
X122311373Y-65695184D02*
X122270884Y-65702819D01*
X122270884Y-65702819D02*
X122246704Y-65711142D01*
X122246704Y-65711142D02*
X122246101Y-65711450D01*
X122246101Y-65711450D02*
X122209162Y-65728593D01*
X122209162Y-65728593D02*
X122175720Y-65742871D01*
X122175720Y-65742871D02*
X122145602Y-65758665D01*
X122145602Y-65758665D02*
X122118634Y-65780358D01*
X122118634Y-65780358D02*
X122094643Y-65812328D01*
X122094643Y-65812328D02*
X122073456Y-65858958D01*
X122073456Y-65858958D02*
X122054900Y-65924629D01*
X122054900Y-65924629D02*
X122038801Y-66013721D01*
X122038801Y-66013721D02*
X122024986Y-66130616D01*
X122024986Y-66130616D02*
X122013283Y-66279694D01*
X122013283Y-66279694D02*
X122003517Y-66465338D01*
X122003517Y-66465338D02*
X121995516Y-66691927D01*
X121995516Y-66691927D02*
X121989106Y-66963842D01*
X121989106Y-66963842D02*
X121984115Y-67285466D01*
X121984115Y-67285466D02*
X121980369Y-67661178D01*
X121980369Y-67661178D02*
X121977694Y-68095361D01*
X121977694Y-68095361D02*
X121975918Y-68592394D01*
X121975918Y-68592394D02*
X121974867Y-69156659D01*
X121974867Y-69156659D02*
X121974369Y-69792538D01*
X121974369Y-69792538D02*
X121974249Y-70504410D01*
X121974249Y-70504410D02*
X121974336Y-71296657D01*
X121974336Y-71296657D02*
X121974336Y-71296657D01*
G36*
X138759013Y-65657842D02*
G01*
X139063082Y-65663659D01*
X139321992Y-65670725D01*
X139539507Y-65679158D01*
X139719390Y-65689077D01*
X139865408Y-65700600D01*
X139981322Y-65713846D01*
X140070898Y-65728933D01*
X140137899Y-65745980D01*
X140186089Y-65765105D01*
X140219233Y-65786426D01*
X140241095Y-65810063D01*
X140255439Y-65836133D01*
X140266028Y-65864755D01*
X140276627Y-65896048D01*
X140291000Y-65930129D01*
X140298203Y-65949305D01*
X140306069Y-65984481D01*
X140313276Y-66036748D01*
X140319852Y-66109803D01*
X140325827Y-66207344D01*
X140331230Y-66333068D01*
X140336090Y-66490672D01*
X140340434Y-66683855D01*
X140344293Y-66916313D01*
X140347695Y-67191744D01*
X140350669Y-67513845D01*
X140353244Y-67886314D01*
X140355449Y-68312848D01*
X140357312Y-68797144D01*
X140358863Y-69342901D01*
X140360131Y-69953815D01*
X140361144Y-70633584D01*
X140361931Y-71385905D01*
X140362521Y-72214475D01*
X140362944Y-73122993D01*
X140363227Y-74115156D01*
X140363400Y-75194660D01*
X140363434Y-75536753D01*
X140363455Y-76592829D01*
X140363323Y-77562640D01*
X140363009Y-78449842D01*
X140362487Y-79258087D01*
X140361732Y-79991030D01*
X140360716Y-80652323D01*
X140359412Y-81245620D01*
X140357796Y-81774576D01*
X140355839Y-82242844D01*
X140353515Y-82654078D01*
X140350798Y-83011931D01*
X140347661Y-83320057D01*
X140344079Y-83582110D01*
X140340023Y-83801744D01*
X140335468Y-83982612D01*
X140330388Y-84128367D01*
X140324755Y-84242664D01*
X140318543Y-84329157D01*
X140311726Y-84391499D01*
X140304277Y-84433343D01*
X140296170Y-84458344D01*
X140292562Y-84466299D01*
X140280710Y-84498862D01*
X140272055Y-84528724D01*
X140262826Y-84556006D01*
X140249256Y-84580828D01*
X140227574Y-84603312D01*
X140194010Y-84623579D01*
X140144796Y-84641750D01*
X140076163Y-84657946D01*
X139984340Y-84672288D01*
X139865558Y-84684897D01*
X139716048Y-84695894D01*
X139532040Y-84705400D01*
X139309766Y-84713537D01*
X139045455Y-84720425D01*
X138735338Y-84726186D01*
X138375646Y-84730940D01*
X137962609Y-84734808D01*
X137492459Y-84737912D01*
X136961424Y-84740373D01*
X136365737Y-84742312D01*
X135701628Y-84743849D01*
X134965326Y-84745106D01*
X134153064Y-84746205D01*
X133261071Y-84747265D01*
X132285578Y-84748408D01*
X131222815Y-84749755D01*
X131094156Y-84749930D01*
X130038128Y-84751432D01*
X129068929Y-84752869D01*
X128182789Y-84754134D01*
X127375937Y-84755121D01*
X126644601Y-84755722D01*
X125985009Y-84755833D01*
X125393392Y-84755346D01*
X124865978Y-84754156D01*
X124398995Y-84752156D01*
X123988673Y-84749239D01*
X123631241Y-84745300D01*
X123322927Y-84740231D01*
X123059960Y-84733927D01*
X122838569Y-84726282D01*
X122654984Y-84717188D01*
X122505432Y-84706541D01*
X122386143Y-84694232D01*
X122293345Y-84680157D01*
X122223269Y-84664208D01*
X122172141Y-84646280D01*
X122136192Y-84626265D01*
X122111650Y-84604058D01*
X122094744Y-84579553D01*
X122081703Y-84552643D01*
X122068756Y-84523221D01*
X122052132Y-84491182D01*
X122046834Y-84481807D01*
X121995555Y-84339950D01*
X121974480Y-84184659D01*
X121974487Y-84009604D01*
X122372777Y-84006686D01*
X122418610Y-84005947D01*
X122884504Y-83950306D01*
X123322869Y-83808594D01*
X123729060Y-83582778D01*
X124098435Y-83274828D01*
X124199214Y-83164282D01*
X128119634Y-83164282D01*
X132842304Y-83177265D01*
X137564974Y-83190249D01*
X137836858Y-83317554D01*
X137971617Y-83384672D01*
X138106612Y-83460674D01*
X138189636Y-83518068D01*
X138189795Y-83518212D01*
X138209085Y-83532146D01*
X138225035Y-83530829D01*
X138237962Y-83506684D01*
X138248181Y-83452131D01*
X138256011Y-83359591D01*
X138261767Y-83221486D01*
X138265766Y-83030237D01*
X138268325Y-82778264D01*
X138269761Y-82457989D01*
X138270390Y-82061832D01*
X138270530Y-81582215D01*
X138270530Y-79573154D01*
X137656014Y-79912830D01*
X128734150Y-79912830D01*
X128119634Y-79573154D01*
X128119634Y-83164282D01*
X124199214Y-83164282D01*
X124249088Y-83109574D01*
X124498796Y-82741619D01*
X124672928Y-82340145D01*
X124771394Y-81916845D01*
X124794099Y-81483412D01*
X124740950Y-81051539D01*
X124611854Y-80632918D01*
X124406718Y-80239241D01*
X124125449Y-79882203D01*
X124026289Y-79782950D01*
X123659140Y-79489590D01*
X123260698Y-79281427D01*
X122828393Y-79157347D01*
X122359656Y-79116235D01*
X121974472Y-79116235D01*
X121974472Y-72581895D01*
X121974454Y-72173661D01*
X121974336Y-71296657D01*
X121974249Y-70504410D01*
X121974369Y-69792538D01*
X121974867Y-69156659D01*
X121975094Y-69034978D01*
X124432537Y-69034978D01*
X124432537Y-71203897D01*
X124568386Y-71089588D01*
X124661690Y-71023339D01*
X124881684Y-70913064D01*
X125155295Y-70816427D01*
X125458800Y-70742670D01*
X125487613Y-70737969D01*
X125639506Y-70723982D01*
X125874254Y-70713389D01*
X126193483Y-70706164D01*
X126598817Y-70702277D01*
X127091882Y-70701701D01*
X127674303Y-70704407D01*
X129618758Y-70717848D01*
X127863072Y-72106199D01*
X127812781Y-72145964D01*
X127367074Y-72498036D01*
X126985367Y-72798612D01*
X126661170Y-73052475D01*
X126387992Y-73264408D01*
X126159344Y-73439195D01*
X125968736Y-73581619D01*
X125809676Y-73696465D01*
X125675676Y-73788515D01*
X125560244Y-73862553D01*
X125456891Y-73923362D01*
X125359126Y-73975727D01*
X125260460Y-74024430D01*
X125085811Y-74099353D01*
X124901571Y-74147753D01*
X124702844Y-74160627D01*
X124432537Y-74159334D01*
X124432537Y-78765736D01*
X124576635Y-78565448D01*
X124712066Y-78396059D01*
X124932966Y-78157374D01*
X125209817Y-77886647D01*
X125532067Y-77594128D01*
X125889168Y-77290071D01*
X125984663Y-77211769D01*
X126148450Y-77078457D01*
X126363331Y-76904199D01*
X126622135Y-76694769D01*
X126917689Y-76455939D01*
X127242822Y-76193484D01*
X127590361Y-75913174D01*
X127953135Y-75620785D01*
X128119634Y-75486675D01*
X128323972Y-75322089D01*
X128695699Y-75022858D01*
X129061145Y-74728866D01*
X129413137Y-74445886D01*
X129744504Y-74179691D01*
X130048074Y-73936054D01*
X130316675Y-73720747D01*
X130543134Y-73539545D01*
X130720280Y-73398220D01*
X130840940Y-73302545D01*
X130897944Y-73258293D01*
X130919364Y-73254641D01*
X130960107Y-73266790D01*
X131024205Y-73298272D01*
X131116204Y-73352229D01*
X131240651Y-73431805D01*
X131402093Y-73540141D01*
X131605077Y-73680381D01*
X131854149Y-73855666D01*
X132153856Y-74069139D01*
X132508745Y-74323943D01*
X132923362Y-74623220D01*
X133402253Y-74970113D01*
X133949966Y-75367764D01*
X134385941Y-75684609D01*
X134917428Y-76071168D01*
X135384177Y-76411196D01*
X135791366Y-76708649D01*
X136144177Y-76967480D01*
X136447789Y-77191644D01*
X136707383Y-77385096D01*
X136928138Y-77551788D01*
X137115234Y-77695677D01*
X137273852Y-77820715D01*
X137409172Y-77930858D01*
X137526374Y-78030060D01*
X137630637Y-78122274D01*
X137727142Y-78211457D01*
X137821070Y-78301560D01*
X137917599Y-78396540D01*
X138270530Y-78746559D01*
X138270625Y-76393673D01*
X138270721Y-74040787D01*
X137985557Y-74055572D01*
X137971228Y-74056288D01*
X137857229Y-74059095D01*
X137748003Y-74053775D01*
X137637567Y-74036770D01*
X137519938Y-74004521D01*
X137389133Y-73953469D01*
X137239169Y-73880056D01*
X137064064Y-73780722D01*
X136857833Y-73651909D01*
X136614495Y-73490059D01*
X136328067Y-73291611D01*
X135992564Y-73053009D01*
X135602005Y-72770691D01*
X135150406Y-72441101D01*
X134631784Y-72060679D01*
X132803639Y-70717848D01*
X134923320Y-70706017D01*
X135121043Y-70704968D01*
X135653619Y-70703119D01*
X136106612Y-70703960D01*
X136488592Y-70708481D01*
X136808133Y-70717672D01*
X137073808Y-70732524D01*
X137294188Y-70754025D01*
X137477846Y-70783167D01*
X137633355Y-70820939D01*
X137769287Y-70868332D01*
X137894216Y-70926334D01*
X138016713Y-70995938D01*
X138145351Y-71078132D01*
X138270530Y-71160755D01*
X138270530Y-66866799D01*
X138122591Y-66977715D01*
X138099187Y-66995086D01*
X137884684Y-67133961D01*
X137667844Y-67229694D01*
X137419380Y-67292559D01*
X137110002Y-67332825D01*
X137096516Y-67333931D01*
X136968904Y-67339774D01*
X136755992Y-67345050D01*
X136462645Y-67349735D01*
X136093728Y-67353807D01*
X135654106Y-67357243D01*
X135148644Y-67360019D01*
X134582208Y-67362114D01*
X133959663Y-67363504D01*
X133285873Y-67364165D01*
X132565704Y-67364076D01*
X131804021Y-67363214D01*
X131005690Y-67361554D01*
X130289586Y-67359797D01*
X129510089Y-67357917D01*
X128812672Y-67356065D01*
X128192448Y-67354011D01*
X127644530Y-67351521D01*
X127164032Y-67348364D01*
X126746069Y-67344306D01*
X126385754Y-67339115D01*
X126078202Y-67332560D01*
X125818525Y-67324407D01*
X125601839Y-67314424D01*
X125423257Y-67302379D01*
X125277892Y-67288040D01*
X125160859Y-67271174D01*
X125067272Y-67251549D01*
X124992244Y-67228932D01*
X124930889Y-67203091D01*
X124878322Y-67173794D01*
X124829657Y-67140808D01*
X124780006Y-67103902D01*
X124724484Y-67062841D01*
X124668847Y-67023127D01*
X124558839Y-66946366D01*
X124489437Y-66900387D01*
X124486530Y-66899277D01*
X124473405Y-66915331D01*
X124462454Y-66971987D01*
X124453509Y-67075549D01*
X124446401Y-67232320D01*
X124440962Y-67448606D01*
X124437024Y-67730711D01*
X124434419Y-68084938D01*
X124432979Y-68517592D01*
X124432537Y-69034978D01*
X121975094Y-69034978D01*
X121975918Y-68592394D01*
X121977694Y-68095361D01*
X121980369Y-67661178D01*
X121984115Y-67285466D01*
X121989106Y-66963842D01*
X121995516Y-66691927D01*
X122003517Y-66465338D01*
X122013283Y-66279694D01*
X122024986Y-66130616D01*
X122038801Y-66013721D01*
X122054900Y-65924629D01*
X122073456Y-65858958D01*
X122094643Y-65812328D01*
X122118634Y-65780358D01*
X122145602Y-65758665D01*
X122175720Y-65742871D01*
X122209162Y-65728593D01*
X122246101Y-65711450D01*
X122246704Y-65711142D01*
X122270884Y-65702819D01*
X122311373Y-65695184D01*
X122371907Y-65688209D01*
X122456224Y-65681865D01*
X122568059Y-65676122D01*
X122711149Y-65670952D01*
X122889230Y-65666325D01*
X123106040Y-65662213D01*
X123365314Y-65658586D01*
X123670789Y-65655416D01*
X124026202Y-65652674D01*
X124435289Y-65650331D01*
X124901787Y-65648357D01*
X125429432Y-65646724D01*
X126021960Y-65645403D01*
X126683109Y-65644364D01*
X127416615Y-65643580D01*
X128226213Y-65643020D01*
X129115642Y-65642656D01*
X130088637Y-65642459D01*
X131148935Y-65642400D01*
X131357232Y-65642397D01*
X132406479Y-65642296D01*
X133369163Y-65642140D01*
X134249047Y-65642049D01*
X135049895Y-65642140D01*
X135775471Y-65642531D01*
X136429540Y-65643343D01*
X137015865Y-65644693D01*
X137538211Y-65646699D01*
X138000342Y-65649480D01*
X138270530Y-65651928D01*
X138406021Y-65653155D01*
X138759013Y-65657842D01*
G37*
X138759013Y-65657842D02*
X139063082Y-65663659D01*
X139321992Y-65670725D01*
X139539507Y-65679158D01*
X139719390Y-65689077D01*
X139865408Y-65700600D01*
X139981322Y-65713846D01*
X140070898Y-65728933D01*
X140137899Y-65745980D01*
X140186089Y-65765105D01*
X140219233Y-65786426D01*
X140241095Y-65810063D01*
X140255439Y-65836133D01*
X140266028Y-65864755D01*
X140276627Y-65896048D01*
X140291000Y-65930129D01*
X140298203Y-65949305D01*
X140306069Y-65984481D01*
X140313276Y-66036748D01*
X140319852Y-66109803D01*
X140325827Y-66207344D01*
X140331230Y-66333068D01*
X140336090Y-66490672D01*
X140340434Y-66683855D01*
X140344293Y-66916313D01*
X140347695Y-67191744D01*
X140350669Y-67513845D01*
X140353244Y-67886314D01*
X140355449Y-68312848D01*
X140357312Y-68797144D01*
X140358863Y-69342901D01*
X140360131Y-69953815D01*
X140361144Y-70633584D01*
X140361931Y-71385905D01*
X140362521Y-72214475D01*
X140362944Y-73122993D01*
X140363227Y-74115156D01*
X140363400Y-75194660D01*
X140363434Y-75536753D01*
X140363455Y-76592829D01*
X140363323Y-77562640D01*
X140363009Y-78449842D01*
X140362487Y-79258087D01*
X140361732Y-79991030D01*
X140360716Y-80652323D01*
X140359412Y-81245620D01*
X140357796Y-81774576D01*
X140355839Y-82242844D01*
X140353515Y-82654078D01*
X140350798Y-83011931D01*
X140347661Y-83320057D01*
X140344079Y-83582110D01*
X140340023Y-83801744D01*
X140335468Y-83982612D01*
X140330388Y-84128367D01*
X140324755Y-84242664D01*
X140318543Y-84329157D01*
X140311726Y-84391499D01*
X140304277Y-84433343D01*
X140296170Y-84458344D01*
X140292562Y-84466299D01*
X140280710Y-84498862D01*
X140272055Y-84528724D01*
X140262826Y-84556006D01*
X140249256Y-84580828D01*
X140227574Y-84603312D01*
X140194010Y-84623579D01*
X140144796Y-84641750D01*
X140076163Y-84657946D01*
X139984340Y-84672288D01*
X139865558Y-84684897D01*
X139716048Y-84695894D01*
X139532040Y-84705400D01*
X139309766Y-84713537D01*
X139045455Y-84720425D01*
X138735338Y-84726186D01*
X138375646Y-84730940D01*
X137962609Y-84734808D01*
X137492459Y-84737912D01*
X136961424Y-84740373D01*
X136365737Y-84742312D01*
X135701628Y-84743849D01*
X134965326Y-84745106D01*
X134153064Y-84746205D01*
X133261071Y-84747265D01*
X132285578Y-84748408D01*
X131222815Y-84749755D01*
X131094156Y-84749930D01*
X130038128Y-84751432D01*
X129068929Y-84752869D01*
X128182789Y-84754134D01*
X127375937Y-84755121D01*
X126644601Y-84755722D01*
X125985009Y-84755833D01*
X125393392Y-84755346D01*
X124865978Y-84754156D01*
X124398995Y-84752156D01*
X123988673Y-84749239D01*
X123631241Y-84745300D01*
X123322927Y-84740231D01*
X123059960Y-84733927D01*
X122838569Y-84726282D01*
X122654984Y-84717188D01*
X122505432Y-84706541D01*
X122386143Y-84694232D01*
X122293345Y-84680157D01*
X122223269Y-84664208D01*
X122172141Y-84646280D01*
X122136192Y-84626265D01*
X122111650Y-84604058D01*
X122094744Y-84579553D01*
X122081703Y-84552643D01*
X122068756Y-84523221D01*
X122052132Y-84491182D01*
X122046834Y-84481807D01*
X121995555Y-84339950D01*
X121974480Y-84184659D01*
X121974487Y-84009604D01*
X122372777Y-84006686D01*
X122418610Y-84005947D01*
X122884504Y-83950306D01*
X123322869Y-83808594D01*
X123729060Y-83582778D01*
X124098435Y-83274828D01*
X124199214Y-83164282D01*
X128119634Y-83164282D01*
X132842304Y-83177265D01*
X137564974Y-83190249D01*
X137836858Y-83317554D01*
X137971617Y-83384672D01*
X138106612Y-83460674D01*
X138189636Y-83518068D01*
X138189795Y-83518212D01*
X138209085Y-83532146D01*
X138225035Y-83530829D01*
X138237962Y-83506684D01*
X138248181Y-83452131D01*
X138256011Y-83359591D01*
X138261767Y-83221486D01*
X138265766Y-83030237D01*
X138268325Y-82778264D01*
X138269761Y-82457989D01*
X138270390Y-82061832D01*
X138270530Y-81582215D01*
X138270530Y-79573154D01*
X137656014Y-79912830D01*
X128734150Y-79912830D01*
X128119634Y-79573154D01*
X128119634Y-83164282D01*
X124199214Y-83164282D01*
X124249088Y-83109574D01*
X124498796Y-82741619D01*
X124672928Y-82340145D01*
X124771394Y-81916845D01*
X124794099Y-81483412D01*
X124740950Y-81051539D01*
X124611854Y-80632918D01*
X124406718Y-80239241D01*
X124125449Y-79882203D01*
X124026289Y-79782950D01*
X123659140Y-79489590D01*
X123260698Y-79281427D01*
X122828393Y-79157347D01*
X122359656Y-79116235D01*
X121974472Y-79116235D01*
X121974472Y-72581895D01*
X121974454Y-72173661D01*
X121974336Y-71296657D01*
X121974249Y-70504410D01*
X121974369Y-69792538D01*
X121974867Y-69156659D01*
X121975094Y-69034978D01*
X124432537Y-69034978D01*
X124432537Y-71203897D01*
X124568386Y-71089588D01*
X124661690Y-71023339D01*
X124881684Y-70913064D01*
X125155295Y-70816427D01*
X125458800Y-70742670D01*
X125487613Y-70737969D01*
X125639506Y-70723982D01*
X125874254Y-70713389D01*
X126193483Y-70706164D01*
X126598817Y-70702277D01*
X127091882Y-70701701D01*
X127674303Y-70704407D01*
X129618758Y-70717848D01*
X127863072Y-72106199D01*
X127812781Y-72145964D01*
X127367074Y-72498036D01*
X126985367Y-72798612D01*
X126661170Y-73052475D01*
X126387992Y-73264408D01*
X126159344Y-73439195D01*
X125968736Y-73581619D01*
X125809676Y-73696465D01*
X125675676Y-73788515D01*
X125560244Y-73862553D01*
X125456891Y-73923362D01*
X125359126Y-73975727D01*
X125260460Y-74024430D01*
X125085811Y-74099353D01*
X124901571Y-74147753D01*
X124702844Y-74160627D01*
X124432537Y-74159334D01*
X124432537Y-78765736D01*
X124576635Y-78565448D01*
X124712066Y-78396059D01*
X124932966Y-78157374D01*
X125209817Y-77886647D01*
X125532067Y-77594128D01*
X125889168Y-77290071D01*
X125984663Y-77211769D01*
X126148450Y-77078457D01*
X126363331Y-76904199D01*
X126622135Y-76694769D01*
X126917689Y-76455939D01*
X127242822Y-76193484D01*
X127590361Y-75913174D01*
X127953135Y-75620785D01*
X128119634Y-75486675D01*
X128323972Y-75322089D01*
X128695699Y-75022858D01*
X129061145Y-74728866D01*
X129413137Y-74445886D01*
X129744504Y-74179691D01*
X130048074Y-73936054D01*
X130316675Y-73720747D01*
X130543134Y-73539545D01*
X130720280Y-73398220D01*
X130840940Y-73302545D01*
X130897944Y-73258293D01*
X130919364Y-73254641D01*
X130960107Y-73266790D01*
X131024205Y-73298272D01*
X131116204Y-73352229D01*
X131240651Y-73431805D01*
X131402093Y-73540141D01*
X131605077Y-73680381D01*
X131854149Y-73855666D01*
X132153856Y-74069139D01*
X132508745Y-74323943D01*
X132923362Y-74623220D01*
X133402253Y-74970113D01*
X133949966Y-75367764D01*
X134385941Y-75684609D01*
X134917428Y-76071168D01*
X135384177Y-76411196D01*
X135791366Y-76708649D01*
X136144177Y-76967480D01*
X136447789Y-77191644D01*
X136707383Y-77385096D01*
X136928138Y-77551788D01*
X137115234Y-77695677D01*
X137273852Y-77820715D01*
X137409172Y-77930858D01*
X137526374Y-78030060D01*
X137630637Y-78122274D01*
X137727142Y-78211457D01*
X137821070Y-78301560D01*
X137917599Y-78396540D01*
X138270530Y-78746559D01*
X138270625Y-76393673D01*
X138270721Y-74040787D01*
X137985557Y-74055572D01*
X137971228Y-74056288D01*
X137857229Y-74059095D01*
X137748003Y-74053775D01*
X137637567Y-74036770D01*
X137519938Y-74004521D01*
X137389133Y-73953469D01*
X137239169Y-73880056D01*
X137064064Y-73780722D01*
X136857833Y-73651909D01*
X136614495Y-73490059D01*
X136328067Y-73291611D01*
X135992564Y-73053009D01*
X135602005Y-72770691D01*
X135150406Y-72441101D01*
X134631784Y-72060679D01*
X132803639Y-70717848D01*
X134923320Y-70706017D01*
X135121043Y-70704968D01*
X135653619Y-70703119D01*
X136106612Y-70703960D01*
X136488592Y-70708481D01*
X136808133Y-70717672D01*
X137073808Y-70732524D01*
X137294188Y-70754025D01*
X137477846Y-70783167D01*
X137633355Y-70820939D01*
X137769287Y-70868332D01*
X137894216Y-70926334D01*
X138016713Y-70995938D01*
X138145351Y-71078132D01*
X138270530Y-71160755D01*
X138270530Y-66866799D01*
X138122591Y-66977715D01*
X138099187Y-66995086D01*
X137884684Y-67133961D01*
X137667844Y-67229694D01*
X137419380Y-67292559D01*
X137110002Y-67332825D01*
X137096516Y-67333931D01*
X136968904Y-67339774D01*
X136755992Y-67345050D01*
X136462645Y-67349735D01*
X136093728Y-67353807D01*
X135654106Y-67357243D01*
X135148644Y-67360019D01*
X134582208Y-67362114D01*
X133959663Y-67363504D01*
X133285873Y-67364165D01*
X132565704Y-67364076D01*
X131804021Y-67363214D01*
X131005690Y-67361554D01*
X130289586Y-67359797D01*
X129510089Y-67357917D01*
X128812672Y-67356065D01*
X128192448Y-67354011D01*
X127644530Y-67351521D01*
X127164032Y-67348364D01*
X126746069Y-67344306D01*
X126385754Y-67339115D01*
X126078202Y-67332560D01*
X125818525Y-67324407D01*
X125601839Y-67314424D01*
X125423257Y-67302379D01*
X125277892Y-67288040D01*
X125160859Y-67271174D01*
X125067272Y-67251549D01*
X124992244Y-67228932D01*
X124930889Y-67203091D01*
X124878322Y-67173794D01*
X124829657Y-67140808D01*
X124780006Y-67103902D01*
X124724484Y-67062841D01*
X124668847Y-67023127D01*
X124558839Y-66946366D01*
X124489437Y-66900387D01*
X124486530Y-66899277D01*
X124473405Y-66915331D01*
X124462454Y-66971987D01*
X124453509Y-67075549D01*
X124446401Y-67232320D01*
X124440962Y-67448606D01*
X124437024Y-67730711D01*
X124434419Y-68084938D01*
X124432979Y-68517592D01*
X124432537Y-69034978D01*
X121975094Y-69034978D01*
X121975918Y-68592394D01*
X121977694Y-68095361D01*
X121980369Y-67661178D01*
X121984115Y-67285466D01*
X121989106Y-66963842D01*
X121995516Y-66691927D01*
X122003517Y-66465338D01*
X122013283Y-66279694D01*
X122024986Y-66130616D01*
X122038801Y-66013721D01*
X122054900Y-65924629D01*
X122073456Y-65858958D01*
X122094643Y-65812328D01*
X122118634Y-65780358D01*
X122145602Y-65758665D01*
X122175720Y-65742871D01*
X122209162Y-65728593D01*
X122246101Y-65711450D01*
X122246704Y-65711142D01*
X122270884Y-65702819D01*
X122311373Y-65695184D01*
X122371907Y-65688209D01*
X122456224Y-65681865D01*
X122568059Y-65676122D01*
X122711149Y-65670952D01*
X122889230Y-65666325D01*
X123106040Y-65662213D01*
X123365314Y-65658586D01*
X123670789Y-65655416D01*
X124026202Y-65652674D01*
X124435289Y-65650331D01*
X124901787Y-65648357D01*
X125429432Y-65646724D01*
X126021960Y-65645403D01*
X126683109Y-65644364D01*
X127416615Y-65643580D01*
X128226213Y-65643020D01*
X129115642Y-65642656D01*
X130088637Y-65642459D01*
X131148935Y-65642400D01*
X131357232Y-65642397D01*
X132406479Y-65642296D01*
X133369163Y-65642140D01*
X134249047Y-65642049D01*
X135049895Y-65642140D01*
X135775471Y-65642531D01*
X136429540Y-65643343D01*
X137015865Y-65644693D01*
X137538211Y-65646699D01*
X138000342Y-65649480D01*
X138270530Y-65651928D01*
X138406021Y-65653155D01*
X138759013Y-65657842D01*
X124251395Y-92501055D02*
X124305132Y-92991910D01*
X124305132Y-92991910D02*
X124401316Y-93467466D01*
X124401316Y-93467466D02*
X124544962Y-93947067D01*
X124544962Y-93947067D02*
X124741089Y-94450060D01*
X124741089Y-94450060D02*
X124994712Y-94995790D01*
X124994712Y-94995790D02*
X125043839Y-95094069D01*
X125043839Y-95094069D02*
X125154950Y-95319606D01*
X125154950Y-95319606D02*
X125254999Y-95532319D01*
X125254999Y-95532319D02*
X125334432Y-95711213D01*
X125334432Y-95711213D02*
X125383692Y-95835294D01*
X125383692Y-95835294D02*
X125389894Y-95854355D01*
X125389894Y-95854355D02*
X125444623Y-96037023D01*
X125444623Y-96037023D02*
X126634189Y-95219326D01*
X126634189Y-95219326D02*
X126924925Y-95019410D01*
X126924925Y-95019410D02*
X127190550Y-94836631D01*
X127190550Y-94836631D02*
X127422047Y-94677205D01*
X127422047Y-94677205D02*
X127610397Y-94547348D01*
X127610397Y-94547348D02*
X127746583Y-94453275D01*
X127746583Y-94453275D02*
X127821585Y-94401202D01*
X127821585Y-94401202D02*
X127833464Y-94392742D01*
X127833464Y-94392742D02*
X127808628Y-94358381D01*
X127808628Y-94358381D02*
X127733967Y-94273799D01*
X127733967Y-94273799D02*
X127623042Y-94154123D01*
X127623042Y-94154123D02*
X127560345Y-94088076D01*
X127560345Y-94088076D02*
X127262713Y-93713871D01*
X127262713Y-93713871D02*
X127036546Y-93293611D01*
X127036546Y-93293611D02*
X126912662Y-92931468D01*
X126912662Y-92931468D02*
X126873755Y-92714079D01*
X126873755Y-92714079D02*
X126850046Y-92441889D01*
X126850046Y-92441889D02*
X126841973Y-92146911D01*
X126841973Y-92146911D02*
X126849977Y-91861160D01*
X126849977Y-91861160D02*
X126874497Y-91616648D01*
X126874497Y-91616648D02*
X126893275Y-91519078D01*
X126893275Y-91519078D02*
X127044574Y-91079312D01*
X127044574Y-91079312D02*
X127275593Y-90683030D01*
X127275593Y-90683030D02*
X127585908Y-90330526D01*
X127585908Y-90330526D02*
X127975098Y-90022094D01*
X127975098Y-90022094D02*
X128442740Y-89758026D01*
X128442740Y-89758026D02*
X128988412Y-89538616D01*
X128988412Y-89538616D02*
X129611691Y-89364157D01*
X129611691Y-89364157D02*
X130145261Y-89260475D01*
X130145261Y-89260475D02*
X130380811Y-89233424D01*
X130380811Y-89233424D02*
X130685107Y-89214994D01*
X130685107Y-89214994D02*
X131036282Y-89205005D01*
X131036282Y-89205005D02*
X131412470Y-89203279D01*
X131412470Y-89203279D02*
X131791803Y-89209639D01*
X131791803Y-89209639D02*
X132152414Y-89223906D01*
X132152414Y-89223906D02*
X132472437Y-89245902D01*
X132472437Y-89245902D02*
X132730004Y-89275450D01*
X132730004Y-89275450D02*
X132769744Y-89281846D01*
X132769744Y-89281846D02*
X133409867Y-89422818D01*
X133409867Y-89422818D02*
X133976406Y-89614893D01*
X133976406Y-89614893D02*
X134471897Y-89859238D01*
X134471897Y-89859238D02*
X134898880Y-90157024D01*
X134898880Y-90157024D02*
X135129725Y-90368400D01*
X135129725Y-90368400D02*
X135443146Y-90748276D01*
X135443146Y-90748276D02*
X135675467Y-91164880D01*
X135675467Y-91164880D02*
X135825425Y-91611184D01*
X135825425Y-91611184D02*
X135891756Y-92080161D01*
X135891756Y-92080161D02*
X135873195Y-92564783D01*
X135873195Y-92564783D02*
X135768477Y-93058022D01*
X135768477Y-93058022D02*
X135666012Y-93349633D01*
X135666012Y-93349633D02*
X135460827Y-93753176D01*
X135460827Y-93753176D02*
X135166495Y-94169100D01*
X135166495Y-94169100D02*
X134967453Y-94402082D01*
X134967453Y-94402082D02*
X134852251Y-94532902D01*
X134852251Y-94532902D02*
X134767732Y-94635684D01*
X134767732Y-94635684D02*
X134727006Y-94694188D01*
X134727006Y-94694188D02*
X134725763Y-94701450D01*
X134725763Y-94701450D02*
X134767378Y-94727562D01*
X134767378Y-94727562D02*
X134877347Y-94795221D01*
X134877347Y-94795221D02*
X135046242Y-94898662D01*
X135046242Y-94898662D02*
X135264636Y-95032122D01*
X135264636Y-95032122D02*
X135523100Y-95189838D01*
X135523100Y-95189838D02*
X135812208Y-95366044D01*
X135812208Y-95366044D02*
X135973260Y-95464123D01*
X135973260Y-95464123D02*
X137203769Y-96213278D01*
X137203769Y-96213278D02*
X137666016Y-95277928D01*
X137666016Y-95277928D02*
X137832054Y-94939740D01*
X137832054Y-94939740D02*
X137962982Y-94665779D01*
X137962982Y-94665779D02*
X138065304Y-94439299D01*
X138065304Y-94439299D02*
X138145522Y-94243552D01*
X138145522Y-94243552D02*
X138210138Y-94061794D01*
X138210138Y-94061794D02*
X138265655Y-93877277D01*
X138265655Y-93877277D02*
X138318576Y-93673256D01*
X138318576Y-93673256D02*
X138365049Y-93477704D01*
X138365049Y-93477704D02*
X138401009Y-93303892D01*
X138401009Y-93303892D02*
X138428185Y-93122120D01*
X138428185Y-93122120D02*
X138448085Y-92914189D01*
X138448085Y-92914189D02*
X138462216Y-92661905D01*
X138462216Y-92661905D02*
X138472087Y-92347068D01*
X138472087Y-92347068D02*
X138476348Y-92134873D01*
X138476348Y-92134873D02*
X138479256Y-91832105D01*
X138479256Y-91832105D02*
X138477790Y-91541789D01*
X138477790Y-91541789D02*
X138472367Y-91283138D01*
X138472367Y-91283138D02*
X138463406Y-91075363D01*
X138463406Y-91075363D02*
X138451325Y-90937677D01*
X138451325Y-90937677D02*
X138450120Y-90929518D01*
X138450120Y-90929518D02*
X138295441Y-90214552D01*
X138295441Y-90214552D02*
X138060849Y-89543149D01*
X138060849Y-89543149D02*
X137746498Y-88915547D01*
X137746498Y-88915547D02*
X137352544Y-88331981D01*
X137352544Y-88331981D02*
X136879140Y-87792687D01*
X136879140Y-87792687D02*
X136326442Y-87297901D01*
X136326442Y-87297901D02*
X135835225Y-86939565D01*
X135835225Y-86939565D02*
X135192264Y-86558085D01*
X135192264Y-86558085D02*
X134513259Y-86249715D01*
X134513259Y-86249715D02*
X133792767Y-86012964D01*
X133792767Y-86012964D02*
X133025343Y-85846340D01*
X133025343Y-85846340D02*
X132205545Y-85748353D01*
X132205545Y-85748353D02*
X131373099Y-85717482D01*
X131373099Y-85717482D02*
X130567823Y-85742872D01*
X130567823Y-85742872D02*
X129824837Y-85822660D01*
X129824837Y-85822660D02*
X129131609Y-85959381D01*
X129131609Y-85959381D02*
X128475606Y-86155572D01*
X128475606Y-86155572D02*
X127844296Y-86413766D01*
X127844296Y-86413766D02*
X127778891Y-86444596D01*
X127778891Y-86444596D02*
X127167499Y-86784243D01*
X127167499Y-86784243D02*
X126585699Y-87201404D01*
X126585699Y-87201404D02*
X126045533Y-87684259D01*
X126045533Y-87684259D02*
X125559044Y-88220990D01*
X125559044Y-88220990D02*
X125138274Y-88799777D01*
X125138274Y-88799777D02*
X124829624Y-89339089D01*
X124829624Y-89339089D02*
X124587883Y-89883907D01*
X124587883Y-89883907D02*
X124412772Y-90429882D01*
X124412772Y-90429882D02*
X124299521Y-90998148D01*
X124299521Y-90998148D02*
X124243367Y-91609842D01*
X124243367Y-91609842D02*
X124235087Y-91975554D01*
X124235087Y-91975554D02*
X124251395Y-92501055D01*
X124251395Y-92501055D02*
X124251395Y-92501055D01*
G36*
X132205545Y-85748353D02*
G01*
X133025343Y-85846340D01*
X133792767Y-86012964D01*
X134513259Y-86249715D01*
X135192264Y-86558085D01*
X135835225Y-86939565D01*
X136326442Y-87297901D01*
X136879140Y-87792687D01*
X137352544Y-88331981D01*
X137746498Y-88915547D01*
X138060849Y-89543149D01*
X138295441Y-90214552D01*
X138450120Y-90929518D01*
X138451325Y-90937677D01*
X138463406Y-91075363D01*
X138472367Y-91283138D01*
X138477790Y-91541789D01*
X138479256Y-91832105D01*
X138476348Y-92134873D01*
X138472087Y-92347068D01*
X138462216Y-92661905D01*
X138448085Y-92914189D01*
X138428185Y-93122120D01*
X138401009Y-93303892D01*
X138365049Y-93477704D01*
X138318576Y-93673256D01*
X138265655Y-93877277D01*
X138210138Y-94061794D01*
X138145522Y-94243552D01*
X138065304Y-94439299D01*
X137962982Y-94665779D01*
X137832054Y-94939740D01*
X137666016Y-95277928D01*
X137203769Y-96213278D01*
X135973260Y-95464123D01*
X135812208Y-95366044D01*
X135523100Y-95189838D01*
X135264636Y-95032122D01*
X135046242Y-94898662D01*
X134877347Y-94795221D01*
X134767378Y-94727562D01*
X134725763Y-94701450D01*
X134727006Y-94694188D01*
X134767732Y-94635684D01*
X134852251Y-94532902D01*
X134967453Y-94402082D01*
X135166495Y-94169100D01*
X135460827Y-93753176D01*
X135666012Y-93349633D01*
X135768477Y-93058022D01*
X135873195Y-92564783D01*
X135891756Y-92080161D01*
X135825425Y-91611184D01*
X135675467Y-91164880D01*
X135443146Y-90748276D01*
X135129725Y-90368400D01*
X134898880Y-90157024D01*
X134471897Y-89859238D01*
X133976406Y-89614893D01*
X133409867Y-89422818D01*
X132769744Y-89281846D01*
X132730004Y-89275450D01*
X132472437Y-89245902D01*
X132152414Y-89223906D01*
X131791803Y-89209639D01*
X131412470Y-89203279D01*
X131036282Y-89205005D01*
X130685107Y-89214994D01*
X130380811Y-89233424D01*
X130145261Y-89260475D01*
X129611691Y-89364157D01*
X128988412Y-89538616D01*
X128442740Y-89758026D01*
X127975098Y-90022094D01*
X127585908Y-90330526D01*
X127275593Y-90683030D01*
X127044574Y-91079312D01*
X126893275Y-91519078D01*
X126874497Y-91616648D01*
X126849977Y-91861160D01*
X126841973Y-92146911D01*
X126850046Y-92441889D01*
X126873755Y-92714079D01*
X126912662Y-92931468D01*
X127036546Y-93293611D01*
X127262713Y-93713871D01*
X127560345Y-94088076D01*
X127623042Y-94154123D01*
X127733967Y-94273799D01*
X127808628Y-94358381D01*
X127833464Y-94392742D01*
X127821585Y-94401202D01*
X127746583Y-94453275D01*
X127610397Y-94547348D01*
X127422047Y-94677205D01*
X127190550Y-94836631D01*
X126924925Y-95019410D01*
X126634189Y-95219326D01*
X125444623Y-96037023D01*
X125389894Y-95854355D01*
X125383692Y-95835294D01*
X125334432Y-95711213D01*
X125254999Y-95532319D01*
X125154950Y-95319606D01*
X125043839Y-95094069D01*
X124994712Y-94995790D01*
X124741089Y-94450060D01*
X124544962Y-93947067D01*
X124401316Y-93467466D01*
X124305132Y-92991910D01*
X124251395Y-92501055D01*
X124235087Y-91975554D01*
X124243367Y-91609842D01*
X124299521Y-90998148D01*
X124412772Y-90429882D01*
X124587883Y-89883907D01*
X124829624Y-89339089D01*
X125138274Y-88799777D01*
X125559044Y-88220990D01*
X126045533Y-87684259D01*
X126585699Y-87201404D01*
X127167499Y-86784243D01*
X127778891Y-86444596D01*
X127844296Y-86413766D01*
X128475606Y-86155572D01*
X129131609Y-85959381D01*
X129824837Y-85822660D01*
X130567823Y-85742872D01*
X131373099Y-85717482D01*
X132205545Y-85748353D01*
G37*
X132205545Y-85748353D02*
X133025343Y-85846340D01*
X133792767Y-86012964D01*
X134513259Y-86249715D01*
X135192264Y-86558085D01*
X135835225Y-86939565D01*
X136326442Y-87297901D01*
X136879140Y-87792687D01*
X137352544Y-88331981D01*
X137746498Y-88915547D01*
X138060849Y-89543149D01*
X138295441Y-90214552D01*
X138450120Y-90929518D01*
X138451325Y-90937677D01*
X138463406Y-91075363D01*
X138472367Y-91283138D01*
X138477790Y-91541789D01*
X138479256Y-91832105D01*
X138476348Y-92134873D01*
X138472087Y-92347068D01*
X138462216Y-92661905D01*
X138448085Y-92914189D01*
X138428185Y-93122120D01*
X138401009Y-93303892D01*
X138365049Y-93477704D01*
X138318576Y-93673256D01*
X138265655Y-93877277D01*
X138210138Y-94061794D01*
X138145522Y-94243552D01*
X138065304Y-94439299D01*
X137962982Y-94665779D01*
X137832054Y-94939740D01*
X137666016Y-95277928D01*
X137203769Y-96213278D01*
X135973260Y-95464123D01*
X135812208Y-95366044D01*
X135523100Y-95189838D01*
X135264636Y-95032122D01*
X135046242Y-94898662D01*
X134877347Y-94795221D01*
X134767378Y-94727562D01*
X134725763Y-94701450D01*
X134727006Y-94694188D01*
X134767732Y-94635684D01*
X134852251Y-94532902D01*
X134967453Y-94402082D01*
X135166495Y-94169100D01*
X135460827Y-93753176D01*
X135666012Y-93349633D01*
X135768477Y-93058022D01*
X135873195Y-92564783D01*
X135891756Y-92080161D01*
X135825425Y-91611184D01*
X135675467Y-91164880D01*
X135443146Y-90748276D01*
X135129725Y-90368400D01*
X134898880Y-90157024D01*
X134471897Y-89859238D01*
X133976406Y-89614893D01*
X133409867Y-89422818D01*
X132769744Y-89281846D01*
X132730004Y-89275450D01*
X132472437Y-89245902D01*
X132152414Y-89223906D01*
X131791803Y-89209639D01*
X131412470Y-89203279D01*
X131036282Y-89205005D01*
X130685107Y-89214994D01*
X130380811Y-89233424D01*
X130145261Y-89260475D01*
X129611691Y-89364157D01*
X128988412Y-89538616D01*
X128442740Y-89758026D01*
X127975098Y-90022094D01*
X127585908Y-90330526D01*
X127275593Y-90683030D01*
X127044574Y-91079312D01*
X126893275Y-91519078D01*
X126874497Y-91616648D01*
X126849977Y-91861160D01*
X126841973Y-92146911D01*
X126850046Y-92441889D01*
X126873755Y-92714079D01*
X126912662Y-92931468D01*
X127036546Y-93293611D01*
X127262713Y-93713871D01*
X127560345Y-94088076D01*
X127623042Y-94154123D01*
X127733967Y-94273799D01*
X127808628Y-94358381D01*
X127833464Y-94392742D01*
X127821585Y-94401202D01*
X127746583Y-94453275D01*
X127610397Y-94547348D01*
X127422047Y-94677205D01*
X127190550Y-94836631D01*
X126924925Y-95019410D01*
X126634189Y-95219326D01*
X125444623Y-96037023D01*
X125389894Y-95854355D01*
X125383692Y-95835294D01*
X125334432Y-95711213D01*
X125254999Y-95532319D01*
X125154950Y-95319606D01*
X125043839Y-95094069D01*
X124994712Y-94995790D01*
X124741089Y-94450060D01*
X124544962Y-93947067D01*
X124401316Y-93467466D01*
X124305132Y-92991910D01*
X124251395Y-92501055D01*
X124235087Y-91975554D01*
X124243367Y-91609842D01*
X124299521Y-90998148D01*
X124412772Y-90429882D01*
X124587883Y-89883907D01*
X124829624Y-89339089D01*
X125138274Y-88799777D01*
X125559044Y-88220990D01*
X126045533Y-87684259D01*
X126585699Y-87201404D01*
X127167499Y-86784243D01*
X127778891Y-86444596D01*
X127844296Y-86413766D01*
X128475606Y-86155572D01*
X129131609Y-85959381D01*
X129824837Y-85822660D01*
X130567823Y-85742872D01*
X131373099Y-85717482D01*
X132205545Y-85748353D01*
X123576130Y-113727345D02*
X123577718Y-114114490D01*
X123577718Y-114114490D02*
X123578520Y-114246073D01*
X123578520Y-114246073D02*
X123590422Y-116055482D01*
X123590422Y-116055482D02*
X130532179Y-116078242D01*
X130532179Y-116078242D02*
X131473501Y-116081248D01*
X131473501Y-116081248D02*
X132328207Y-116083914D01*
X132328207Y-116083914D02*
X133100719Y-116086410D01*
X133100719Y-116086410D02*
X133795456Y-116088910D01*
X133795456Y-116088910D02*
X134416842Y-116091582D01*
X134416842Y-116091582D02*
X134969298Y-116094600D01*
X134969298Y-116094600D02*
X135457244Y-116098133D01*
X135457244Y-116098133D02*
X135885103Y-116102354D01*
X135885103Y-116102354D02*
X136257296Y-116107433D01*
X136257296Y-116107433D02*
X136578245Y-116113542D01*
X136578245Y-116113542D02*
X136852371Y-116120852D01*
X136852371Y-116120852D02*
X137084096Y-116129534D01*
X137084096Y-116129534D02*
X137277841Y-116139760D01*
X137277841Y-116139760D02*
X137438027Y-116151700D01*
X137438027Y-116151700D02*
X137569077Y-116165526D01*
X137569077Y-116165526D02*
X137675411Y-116181409D01*
X137675411Y-116181409D02*
X137761452Y-116199521D01*
X137761452Y-116199521D02*
X137831620Y-116220032D01*
X137831620Y-116220032D02*
X137890338Y-116243114D01*
X137890338Y-116243114D02*
X137942026Y-116268938D01*
X137942026Y-116268938D02*
X137991107Y-116297675D01*
X137991107Y-116297675D02*
X138042001Y-116329497D01*
X138042001Y-116329497D02*
X138099131Y-116364575D01*
X138099131Y-116364575D02*
X138111299Y-116371765D01*
X138111299Y-116371765D02*
X138317136Y-116492393D01*
X138317136Y-116492393D02*
X138293290Y-113005661D01*
X138293290Y-113005661D02*
X137910337Y-112982901D01*
X137910337Y-112982901D02*
X137726555Y-112970509D01*
X137726555Y-112970509D02*
X137620304Y-112957595D01*
X137620304Y-112957595D02*
X137578144Y-112940072D01*
X137578144Y-112940072D02*
X137586637Y-112913854D01*
X137586637Y-112913854D02*
X137610930Y-112891862D01*
X137610930Y-112891862D02*
X137699419Y-112796061D01*
X137699419Y-112796061D02*
X137813161Y-112639922D01*
X137813161Y-112639922D02*
X137938566Y-112445442D01*
X137938566Y-112445442D02*
X138062044Y-112234619D01*
X138062044Y-112234619D02*
X138170005Y-112029453D01*
X138170005Y-112029453D02*
X138241035Y-111871922D01*
X138241035Y-111871922D02*
X138357758Y-111502857D01*
X138357758Y-111502857D02*
X138440440Y-111079411D01*
X138440440Y-111079411D02*
X138485924Y-110632844D01*
X138485924Y-110632844D02*
X138491048Y-110194418D01*
X138491048Y-110194418D02*
X138452654Y-109795392D01*
X138452654Y-109795392D02*
X138451555Y-109788822D01*
X138451555Y-109788822D02*
X138314549Y-109242822D01*
X138314549Y-109242822D02*
X138096267Y-108731713D01*
X138096267Y-108731713D02*
X137801401Y-108260424D01*
X137801401Y-108260424D02*
X137434643Y-107833887D01*
X137434643Y-107833887D02*
X137000685Y-107457030D01*
X137000685Y-107457030D02*
X136504220Y-107134783D01*
X136504220Y-107134783D02*
X135949939Y-106872076D01*
X135949939Y-106872076D02*
X135539347Y-106729040D01*
X135539347Y-106729040D02*
X135195842Y-106634715D01*
X135195842Y-106634715D02*
X134863212Y-106564764D01*
X134863212Y-106564764D02*
X134521250Y-106517049D01*
X134521250Y-106517049D02*
X134149751Y-106489431D01*
X134149751Y-106489431D02*
X133728508Y-106479771D01*
X133728508Y-106479771D02*
X133384536Y-106484049D01*
X133384536Y-106484049D02*
X133384536Y-109842943D01*
X133384536Y-109842943D02*
X133961320Y-109858837D01*
X133961320Y-109858837D02*
X134457545Y-109908978D01*
X134457545Y-109908978D02*
X134877616Y-109994906D01*
X134877616Y-109994906D02*
X135225936Y-110118164D01*
X135225936Y-110118164D02*
X135506911Y-110280296D01*
X135506911Y-110280296D02*
X135724943Y-110482844D01*
X135724943Y-110482844D02*
X135879075Y-110716643D01*
X135879075Y-110716643D02*
X135936615Y-110838300D01*
X135936615Y-110838300D02*
X135971112Y-110943812D01*
X135971112Y-110943812D02*
X135986894Y-111061446D01*
X135986894Y-111061446D02*
X135988292Y-111219471D01*
X135988292Y-111219471D02*
X135982147Y-111389711D01*
X135982147Y-111389711D02*
X135952617Y-111724502D01*
X135952617Y-111724502D02*
X135894789Y-111989291D01*
X135894789Y-111989291D02*
X135865822Y-112072507D01*
X135865822Y-112072507D02*
X135780270Y-112262525D01*
X135780270Y-112262525D02*
X135672838Y-112462938D01*
X135672838Y-112462938D02*
X135619060Y-112550464D01*
X135619060Y-112550464D02*
X135469775Y-112778063D01*
X135469775Y-112778063D02*
X130737943Y-112778063D01*
X130737943Y-112778063D02*
X130587875Y-112527704D01*
X130587875Y-112527704D02*
X130418304Y-112178553D01*
X130418304Y-112178553D02*
X130318019Y-111821831D01*
X130318019Y-111821831D02*
X130286426Y-111470583D01*
X130286426Y-111470583D02*
X130322936Y-111137855D01*
X130322936Y-111137855D02*
X130426955Y-110836695D01*
X130426955Y-110836695D02*
X130597893Y-110580148D01*
X130597893Y-110580148D02*
X130679943Y-110497369D01*
X130679943Y-110497369D02*
X130948786Y-110297837D01*
X130948786Y-110297837D02*
X131274218Y-110136340D01*
X131274218Y-110136340D02*
X131661818Y-110011529D01*
X131661818Y-110011529D02*
X132117164Y-109922055D01*
X132117164Y-109922055D02*
X132645835Y-109866566D01*
X132645835Y-109866566D02*
X133253407Y-109843715D01*
X133253407Y-109843715D02*
X133384536Y-109842943D01*
X133384536Y-109842943D02*
X133384536Y-106484049D01*
X133384536Y-106484049D02*
X133241360Y-106485831D01*
X133241360Y-106485831D02*
X132492031Y-106524204D01*
X132492031Y-106524204D02*
X131816146Y-106601363D01*
X131816146Y-106601363D02*
X131203861Y-106719341D01*
X131203861Y-106719341D02*
X130645329Y-106880169D01*
X130645329Y-106880169D02*
X130130705Y-107085879D01*
X130130705Y-107085879D02*
X129978136Y-107159286D01*
X129978136Y-107159286D02*
X129480594Y-107454968D01*
X129480594Y-107454968D02*
X129038446Y-107812284D01*
X129038446Y-107812284D02*
X128658829Y-108222832D01*
X128658829Y-108222832D02*
X128348880Y-108678213D01*
X128348880Y-108678213D02*
X128115737Y-109170023D01*
X128115737Y-109170023D02*
X128019564Y-109464832D01*
X128019564Y-109464832D02*
X127962470Y-109754364D01*
X127962470Y-109754364D02*
X127928501Y-110102741D01*
X127928501Y-110102741D02*
X127917642Y-110480757D01*
X127917642Y-110480757D02*
X127929877Y-110859208D01*
X127929877Y-110859208D02*
X127965191Y-111208887D01*
X127965191Y-111208887D02*
X128020592Y-111489653D01*
X128020592Y-111489653D02*
X128129236Y-111823829D01*
X128129236Y-111823829D02*
X128268945Y-112147725D01*
X128268945Y-112147725D02*
X128425566Y-112431108D01*
X128425566Y-112431108D02*
X128531863Y-112581935D01*
X128531863Y-112581935D02*
X128610906Y-112685973D01*
X128610906Y-112685973D02*
X128659035Y-112758822D01*
X128659035Y-112758822D02*
X128665870Y-112775393D01*
X128665870Y-112775393D02*
X128621835Y-112780531D01*
X128621835Y-112780531D02*
X128495665Y-112785322D01*
X128495665Y-112785322D02*
X128296264Y-112789659D01*
X128296264Y-112789659D02*
X128032537Y-112793436D01*
X128032537Y-112793436D02*
X127713389Y-112796547D01*
X127713389Y-112796547D02*
X127347723Y-112798885D01*
X127347723Y-112798885D02*
X126944444Y-112800346D01*
X126944444Y-112800346D02*
X126533678Y-112800822D01*
X126533678Y-112800822D02*
X126007559Y-112800556D01*
X126007559Y-112800556D02*
X125563995Y-112799247D01*
X125563995Y-112799247D02*
X125194501Y-112796131D01*
X125194501Y-112796131D02*
X124890593Y-112790442D01*
X124890593Y-112790442D02*
X124643787Y-112781415D01*
X124643787Y-112781415D02*
X124445598Y-112768286D01*
X124445598Y-112768286D02*
X124287542Y-112750289D01*
X124287542Y-112750289D02*
X124161134Y-112726659D01*
X124161134Y-112726659D02*
X124057890Y-112696632D01*
X124057890Y-112696632D02*
X123969326Y-112659442D01*
X123969326Y-112659442D02*
X123886958Y-112614323D01*
X123886958Y-112614323D02*
X123802301Y-112560512D01*
X123802301Y-112560512D02*
X123791819Y-112553589D01*
X123791819Y-112553589D02*
X123682175Y-112484185D01*
X123682175Y-112484185D02*
X123606779Y-112442283D01*
X123606779Y-112442283D02*
X123590876Y-112436665D01*
X123590876Y-112436665D02*
X123585858Y-112480571D01*
X123585858Y-112480571D02*
X123581776Y-112605848D01*
X123581776Y-112605848D02*
X123578697Y-112802829D01*
X123578697Y-112802829D02*
X123576685Y-113061849D01*
X123576685Y-113061849D02*
X123575807Y-113373243D01*
X123575807Y-113373243D02*
X123576130Y-113727345D01*
X123576130Y-113727345D02*
X123576130Y-113727345D01*
G36*
X134149751Y-106489431D02*
G01*
X134521250Y-106517049D01*
X134863212Y-106564764D01*
X135195842Y-106634715D01*
X135539347Y-106729040D01*
X135949939Y-106872076D01*
X136504220Y-107134783D01*
X137000685Y-107457030D01*
X137434643Y-107833887D01*
X137801401Y-108260424D01*
X138096267Y-108731713D01*
X138314549Y-109242822D01*
X138451555Y-109788822D01*
X138452654Y-109795392D01*
X138491048Y-110194418D01*
X138485924Y-110632844D01*
X138440440Y-111079411D01*
X138357758Y-111502857D01*
X138241035Y-111871922D01*
X138170005Y-112029453D01*
X138062044Y-112234619D01*
X137938566Y-112445442D01*
X137813161Y-112639922D01*
X137699419Y-112796061D01*
X137610930Y-112891862D01*
X137586637Y-112913854D01*
X137578144Y-112940072D01*
X137620304Y-112957595D01*
X137726555Y-112970509D01*
X137910337Y-112982901D01*
X138293290Y-113005661D01*
X138317136Y-116492393D01*
X138111299Y-116371765D01*
X138099131Y-116364575D01*
X138042001Y-116329497D01*
X137991107Y-116297675D01*
X137942026Y-116268938D01*
X137890338Y-116243114D01*
X137831620Y-116220032D01*
X137761452Y-116199521D01*
X137675411Y-116181409D01*
X137569077Y-116165526D01*
X137438027Y-116151700D01*
X137277841Y-116139760D01*
X137084096Y-116129534D01*
X136852371Y-116120852D01*
X136578245Y-116113542D01*
X136257296Y-116107433D01*
X135885103Y-116102354D01*
X135457244Y-116098133D01*
X134969298Y-116094600D01*
X134416842Y-116091582D01*
X133795456Y-116088910D01*
X133100719Y-116086410D01*
X132328207Y-116083914D01*
X131473501Y-116081248D01*
X130532179Y-116078242D01*
X123590422Y-116055482D01*
X123578520Y-114246073D01*
X123577718Y-114114490D01*
X123576130Y-113727345D01*
X123575807Y-113373243D01*
X123576685Y-113061849D01*
X123578697Y-112802829D01*
X123581776Y-112605848D01*
X123585858Y-112480571D01*
X123590876Y-112436665D01*
X123606779Y-112442283D01*
X123682175Y-112484185D01*
X123791819Y-112553589D01*
X123802301Y-112560512D01*
X123886958Y-112614323D01*
X123969326Y-112659442D01*
X124057890Y-112696632D01*
X124161134Y-112726659D01*
X124287542Y-112750289D01*
X124445598Y-112768286D01*
X124643787Y-112781415D01*
X124890593Y-112790442D01*
X125194501Y-112796131D01*
X125563995Y-112799247D01*
X126007559Y-112800556D01*
X126533678Y-112800822D01*
X126944444Y-112800346D01*
X127347723Y-112798885D01*
X127713389Y-112796547D01*
X128032537Y-112793436D01*
X128296264Y-112789659D01*
X128495665Y-112785322D01*
X128621835Y-112780531D01*
X128665870Y-112775393D01*
X128659035Y-112758822D01*
X128610906Y-112685973D01*
X128531863Y-112581935D01*
X128425566Y-112431108D01*
X128268945Y-112147725D01*
X128129236Y-111823829D01*
X128020592Y-111489653D01*
X128016829Y-111470583D01*
X130286426Y-111470583D01*
X130318019Y-111821831D01*
X130418304Y-112178553D01*
X130587875Y-112527704D01*
X130737943Y-112778063D01*
X135469775Y-112778063D01*
X135619060Y-112550464D01*
X135672838Y-112462938D01*
X135780270Y-112262525D01*
X135865822Y-112072507D01*
X135894789Y-111989291D01*
X135952617Y-111724502D01*
X135982147Y-111389711D01*
X135988292Y-111219471D01*
X135986894Y-111061446D01*
X135971112Y-110943812D01*
X135936615Y-110838300D01*
X135879075Y-110716643D01*
X135724943Y-110482844D01*
X135506911Y-110280296D01*
X135225936Y-110118164D01*
X134877616Y-109994906D01*
X134457545Y-109908978D01*
X133961320Y-109858837D01*
X133384536Y-109842943D01*
X133253407Y-109843715D01*
X132645835Y-109866566D01*
X132117164Y-109922055D01*
X131661818Y-110011529D01*
X131274218Y-110136340D01*
X130948786Y-110297837D01*
X130679943Y-110497369D01*
X130597893Y-110580148D01*
X130426955Y-110836695D01*
X130322936Y-111137855D01*
X130286426Y-111470583D01*
X128016829Y-111470583D01*
X127965191Y-111208887D01*
X127929877Y-110859208D01*
X127917642Y-110480757D01*
X127928501Y-110102741D01*
X127962470Y-109754364D01*
X128019564Y-109464832D01*
X128115737Y-109170023D01*
X128348880Y-108678213D01*
X128658829Y-108222832D01*
X129038446Y-107812284D01*
X129480594Y-107454968D01*
X129978136Y-107159286D01*
X130130705Y-107085879D01*
X130645329Y-106880169D01*
X131203861Y-106719341D01*
X131816146Y-106601363D01*
X132492031Y-106524204D01*
X133241360Y-106485831D01*
X133384536Y-106484049D01*
X133728508Y-106479771D01*
X134149751Y-106489431D01*
G37*
X134149751Y-106489431D02*
X134521250Y-106517049D01*
X134863212Y-106564764D01*
X135195842Y-106634715D01*
X135539347Y-106729040D01*
X135949939Y-106872076D01*
X136504220Y-107134783D01*
X137000685Y-107457030D01*
X137434643Y-107833887D01*
X137801401Y-108260424D01*
X138096267Y-108731713D01*
X138314549Y-109242822D01*
X138451555Y-109788822D01*
X138452654Y-109795392D01*
X138491048Y-110194418D01*
X138485924Y-110632844D01*
X138440440Y-111079411D01*
X138357758Y-111502857D01*
X138241035Y-111871922D01*
X138170005Y-112029453D01*
X138062044Y-112234619D01*
X137938566Y-112445442D01*
X137813161Y-112639922D01*
X137699419Y-112796061D01*
X137610930Y-112891862D01*
X137586637Y-112913854D01*
X137578144Y-112940072D01*
X137620304Y-112957595D01*
X137726555Y-112970509D01*
X137910337Y-112982901D01*
X138293290Y-113005661D01*
X138317136Y-116492393D01*
X138111299Y-116371765D01*
X138099131Y-116364575D01*
X138042001Y-116329497D01*
X137991107Y-116297675D01*
X137942026Y-116268938D01*
X137890338Y-116243114D01*
X137831620Y-116220032D01*
X137761452Y-116199521D01*
X137675411Y-116181409D01*
X137569077Y-116165526D01*
X137438027Y-116151700D01*
X137277841Y-116139760D01*
X137084096Y-116129534D01*
X136852371Y-116120852D01*
X136578245Y-116113542D01*
X136257296Y-116107433D01*
X135885103Y-116102354D01*
X135457244Y-116098133D01*
X134969298Y-116094600D01*
X134416842Y-116091582D01*
X133795456Y-116088910D01*
X133100719Y-116086410D01*
X132328207Y-116083914D01*
X131473501Y-116081248D01*
X130532179Y-116078242D01*
X123590422Y-116055482D01*
X123578520Y-114246073D01*
X123577718Y-114114490D01*
X123576130Y-113727345D01*
X123575807Y-113373243D01*
X123576685Y-113061849D01*
X123578697Y-112802829D01*
X123581776Y-112605848D01*
X123585858Y-112480571D01*
X123590876Y-112436665D01*
X123606779Y-112442283D01*
X123682175Y-112484185D01*
X123791819Y-112553589D01*
X123802301Y-112560512D01*
X123886958Y-112614323D01*
X123969326Y-112659442D01*
X124057890Y-112696632D01*
X124161134Y-112726659D01*
X124287542Y-112750289D01*
X124445598Y-112768286D01*
X124643787Y-112781415D01*
X124890593Y-112790442D01*
X125194501Y-112796131D01*
X125563995Y-112799247D01*
X126007559Y-112800556D01*
X126533678Y-112800822D01*
X126944444Y-112800346D01*
X127347723Y-112798885D01*
X127713389Y-112796547D01*
X128032537Y-112793436D01*
X128296264Y-112789659D01*
X128495665Y-112785322D01*
X128621835Y-112780531D01*
X128665870Y-112775393D01*
X128659035Y-112758822D01*
X128610906Y-112685973D01*
X128531863Y-112581935D01*
X128425566Y-112431108D01*
X128268945Y-112147725D01*
X128129236Y-111823829D01*
X128020592Y-111489653D01*
X128016829Y-111470583D01*
X130286426Y-111470583D01*
X130318019Y-111821831D01*
X130418304Y-112178553D01*
X130587875Y-112527704D01*
X130737943Y-112778063D01*
X135469775Y-112778063D01*
X135619060Y-112550464D01*
X135672838Y-112462938D01*
X135780270Y-112262525D01*
X135865822Y-112072507D01*
X135894789Y-111989291D01*
X135952617Y-111724502D01*
X135982147Y-111389711D01*
X135988292Y-111219471D01*
X135986894Y-111061446D01*
X135971112Y-110943812D01*
X135936615Y-110838300D01*
X135879075Y-110716643D01*
X135724943Y-110482844D01*
X135506911Y-110280296D01*
X135225936Y-110118164D01*
X134877616Y-109994906D01*
X134457545Y-109908978D01*
X133961320Y-109858837D01*
X133384536Y-109842943D01*
X133253407Y-109843715D01*
X132645835Y-109866566D01*
X132117164Y-109922055D01*
X131661818Y-110011529D01*
X131274218Y-110136340D01*
X130948786Y-110297837D01*
X130679943Y-110497369D01*
X130597893Y-110580148D01*
X130426955Y-110836695D01*
X130322936Y-111137855D01*
X130286426Y-111470583D01*
X128016829Y-111470583D01*
X127965191Y-111208887D01*
X127929877Y-110859208D01*
X127917642Y-110480757D01*
X127928501Y-110102741D01*
X127962470Y-109754364D01*
X128019564Y-109464832D01*
X128115737Y-109170023D01*
X128348880Y-108678213D01*
X128658829Y-108222832D01*
X129038446Y-107812284D01*
X129480594Y-107454968D01*
X129978136Y-107159286D01*
X130130705Y-107085879D01*
X130645329Y-106880169D01*
X131203861Y-106719341D01*
X131816146Y-106601363D01*
X132492031Y-106524204D01*
X133241360Y-106485831D01*
X133384536Y-106484049D01*
X133728508Y-106479771D01*
X134149751Y-106489431D01*
X120524840Y-82004326D02*
X120643362Y-82346163D01*
X120643362Y-82346163D02*
X120829915Y-82664426D01*
X120829915Y-82664426D02*
X121084475Y-82948662D01*
X121084475Y-82948662D02*
X121407018Y-83188421D01*
X121407018Y-83188421D02*
X121610315Y-83296121D01*
X121610315Y-83296121D02*
X121894672Y-83389330D01*
X121894672Y-83389330D02*
X122222951Y-83434508D01*
X122222951Y-83434508D02*
X122560442Y-83429504D01*
X122560442Y-83429504D02*
X122866266Y-83373956D01*
X122866266Y-83373956D02*
X123239973Y-83222131D01*
X123239973Y-83222131D02*
X123564137Y-83001970D01*
X123564137Y-83001970D02*
X123832379Y-82724664D01*
X123832379Y-82724664D02*
X124038322Y-82401404D01*
X124038322Y-82401404D02*
X124175587Y-82043377D01*
X124175587Y-82043377D02*
X124237795Y-81661775D01*
X124237795Y-81661775D02*
X124218570Y-81267788D01*
X124218570Y-81267788D02*
X124177483Y-81073582D01*
X124177483Y-81073582D02*
X124030251Y-80695092D01*
X124030251Y-80695092D02*
X123805583Y-80358931D01*
X123805583Y-80358931D02*
X123510405Y-80073209D01*
X123510405Y-80073209D02*
X123151644Y-79846034D01*
X123151644Y-79846034D02*
X123112465Y-79826814D01*
X123112465Y-79826814D02*
X122965442Y-79760371D01*
X122965442Y-79760371D02*
X122841617Y-79718652D01*
X122841617Y-79718652D02*
X122710992Y-79696002D01*
X122710992Y-79696002D02*
X122543566Y-79686764D01*
X122543566Y-79686764D02*
X122361390Y-79685231D01*
X122361390Y-79685231D02*
X122142514Y-79687766D01*
X122142514Y-79687766D02*
X121984282Y-79699210D01*
X121984282Y-79699210D02*
X121856354Y-79725317D01*
X121856354Y-79725317D02*
X121728389Y-79771846D01*
X121728389Y-79771846D02*
X121602139Y-79829279D01*
X121602139Y-79829279D02*
X121243750Y-80043504D01*
X121243750Y-80043504D02*
X120953566Y-80307314D01*
X120953566Y-80307314D02*
X120731561Y-80610256D01*
X120731561Y-80610256D02*
X120577710Y-80941879D01*
X120577710Y-80941879D02*
X120491990Y-81291733D01*
X120491990Y-81291733D02*
X120474375Y-81649366D01*
X120474375Y-81649366D02*
X120524840Y-82004326D01*
X120524840Y-82004326D02*
X120524840Y-82004326D01*
G36*
X122543566Y-79686764D02*
G01*
X122710992Y-79696002D01*
X122841617Y-79718652D01*
X122965442Y-79760371D01*
X123112465Y-79826814D01*
X123151644Y-79846034D01*
X123510405Y-80073209D01*
X123805583Y-80358931D01*
X124030251Y-80695092D01*
X124177483Y-81073582D01*
X124218570Y-81267788D01*
X124237795Y-81661775D01*
X124175587Y-82043377D01*
X124038322Y-82401404D01*
X123832379Y-82724664D01*
X123564137Y-83001970D01*
X123239973Y-83222131D01*
X122866266Y-83373956D01*
X122560442Y-83429504D01*
X122222951Y-83434508D01*
X121894672Y-83389330D01*
X121610315Y-83296121D01*
X121407018Y-83188421D01*
X121084475Y-82948662D01*
X120829915Y-82664426D01*
X120643362Y-82346163D01*
X120524840Y-82004326D01*
X120474375Y-81649366D01*
X120491990Y-81291733D01*
X120577710Y-80941879D01*
X120731561Y-80610256D01*
X120953566Y-80307314D01*
X121243750Y-80043504D01*
X121602139Y-79829279D01*
X121728389Y-79771846D01*
X121856354Y-79725317D01*
X121984282Y-79699210D01*
X122142514Y-79687766D01*
X122361390Y-79685231D01*
X122543566Y-79686764D01*
G37*
X122543566Y-79686764D02*
X122710992Y-79696002D01*
X122841617Y-79718652D01*
X122965442Y-79760371D01*
X123112465Y-79826814D01*
X123151644Y-79846034D01*
X123510405Y-80073209D01*
X123805583Y-80358931D01*
X124030251Y-80695092D01*
X124177483Y-81073582D01*
X124218570Y-81267788D01*
X124237795Y-81661775D01*
X124175587Y-82043377D01*
X124038322Y-82401404D01*
X123832379Y-82724664D01*
X123564137Y-83001970D01*
X123239973Y-83222131D01*
X122866266Y-83373956D01*
X122560442Y-83429504D01*
X122222951Y-83434508D01*
X121894672Y-83389330D01*
X121610315Y-83296121D01*
X121407018Y-83188421D01*
X121084475Y-82948662D01*
X120829915Y-82664426D01*
X120643362Y-82346163D01*
X120524840Y-82004326D01*
X120474375Y-81649366D01*
X120491990Y-81291733D01*
X120577710Y-80941879D01*
X120731561Y-80610256D01*
X120953566Y-80307314D01*
X121243750Y-80043504D01*
X121602139Y-79829279D01*
X121728389Y-79771846D01*
X121856354Y-79725317D01*
X121984282Y-79699210D01*
X122142514Y-79687766D01*
X122361390Y-79685231D01*
X122543566Y-79686764D01*
%TD*%
M02*
