%TF.GenerationSoftware,KiCad,Pcbnew,5.99.0-unknown-b63c482347~127~ubuntu20.04.1*%
%TF.CreationDate,2021-04-29T12:01:31+02:00*%
%TF.ProjectId,bbb-can-bus-cape,6262622d-6361-46e2-9d62-75732d636170,rev?*%
%TF.SameCoordinates,Original*%
%TF.FileFunction,Soldermask,Bot*%
%TF.FilePolarity,Negative*%
%FSLAX46Y46*%
G04 Gerber Fmt 4.6, Leading zero omitted, Abs format (unit mm)*
G04 Created by KiCad (PCBNEW 5.99.0-unknown-b63c482347~127~ubuntu20.04.1) date 2021-04-29 12:01:31*
%MOMM*%
%LPD*%
G01*
G04 APERTURE LIST*
%ADD10R,1.727200X1.727200*%
%ADD11O,1.727200X1.727200*%
%ADD12C,3.200000*%
%ADD13R,1.524000X1.850000*%
%ADD14O,1.524000X1.850000*%
%ADD15R,1.850000X1.524000*%
%ADD16O,1.850000X1.524000*%
G04 APERTURE END LIST*
D10*
%TO.C,P8*%
X164630100Y-62382400D03*
D11*
X167170100Y-62382400D03*
X164630100Y-64922400D03*
X167170100Y-64922400D03*
X164630100Y-67462400D03*
X167170100Y-67462400D03*
X164630100Y-70002400D03*
X167170100Y-70002400D03*
X164630100Y-72542400D03*
X167170100Y-72542400D03*
X164630100Y-75082400D03*
X167170100Y-75082400D03*
X164630100Y-77622400D03*
X167170100Y-77622400D03*
X164630100Y-80162400D03*
X167170100Y-80162400D03*
X164630100Y-82702400D03*
X167170100Y-82702400D03*
X164630100Y-85242400D03*
X167170100Y-85242400D03*
X164630100Y-87782400D03*
X167170100Y-87782400D03*
X164630100Y-90322400D03*
X167170100Y-90322400D03*
X164630100Y-92862400D03*
X167170100Y-92862400D03*
X164630100Y-95402400D03*
X167170100Y-95402400D03*
X164630100Y-97942400D03*
X167170100Y-97942400D03*
X164630100Y-100482400D03*
X167170100Y-100482400D03*
X164630100Y-103022400D03*
X167170100Y-103022400D03*
X164630100Y-105562400D03*
X167170100Y-105562400D03*
X164630100Y-108102400D03*
X167170100Y-108102400D03*
X164630100Y-110642400D03*
X167170100Y-110642400D03*
X164630100Y-113182400D03*
X167170100Y-113182400D03*
X164630100Y-115722400D03*
X167170100Y-115722400D03*
X164630100Y-118262400D03*
X167170100Y-118262400D03*
%TD*%
D10*
%TO.C,P9*%
X116370100Y-62382400D03*
D11*
X118910100Y-62382400D03*
X116370100Y-64922400D03*
X118910100Y-64922400D03*
X116370100Y-67462400D03*
X118910100Y-67462400D03*
X116370100Y-70002400D03*
X118910100Y-70002400D03*
X116370100Y-72542400D03*
X118910100Y-72542400D03*
X116370100Y-75082400D03*
X118910100Y-75082400D03*
X116370100Y-77622400D03*
X118910100Y-77622400D03*
X116370100Y-80162400D03*
X118910100Y-80162400D03*
X116370100Y-82702400D03*
X118910100Y-82702400D03*
X116370100Y-85242400D03*
X118910100Y-85242400D03*
X116370100Y-87782400D03*
X118910100Y-87782400D03*
X116370100Y-90322400D03*
X118910100Y-90322400D03*
X116370100Y-92862400D03*
X118910100Y-92862400D03*
X116370100Y-95402400D03*
X118910100Y-95402400D03*
X116370100Y-97942400D03*
X118910100Y-97942400D03*
X116370100Y-100482400D03*
X118910100Y-100482400D03*
X116370100Y-103022400D03*
X118910100Y-103022400D03*
X116370100Y-105562400D03*
X118910100Y-105562400D03*
X116370100Y-108102400D03*
X118910100Y-108102400D03*
X116370100Y-110642400D03*
X118910100Y-110642400D03*
X116370100Y-113182400D03*
X118910100Y-113182400D03*
X116370100Y-115722400D03*
X118910100Y-115722400D03*
X116370100Y-118262400D03*
X118910100Y-118262400D03*
%TD*%
D12*
%TO.C,P2*%
X159060100Y-106852400D03*
X154060100Y-106852400D03*
X149060100Y-106852400D03*
%TD*%
D13*
%TO.C,P11*%
X143610100Y-113662400D03*
D14*
X146150100Y-113662400D03*
%TD*%
D12*
%TO.C,P7*%
X145430100Y-125162400D03*
X150430100Y-125162400D03*
X155430100Y-125162400D03*
%TD*%
D15*
%TO.C,P6*%
X140600100Y-98762400D03*
D16*
X140600100Y-96222400D03*
%TD*%
D13*
%TO.C,P10*%
X143590100Y-117752400D03*
D14*
X146130100Y-117752400D03*
%TD*%
D15*
%TO.C,P3*%
X146590100Y-78172400D03*
D16*
X146590100Y-80712400D03*
%TD*%
D12*
%TO.C,P12*%
X130090100Y-53832400D03*
X125090100Y-53832400D03*
X120090100Y-53832400D03*
%TD*%
D15*
%TO.C,P4*%
X146570100Y-85582400D03*
D16*
X146570100Y-88122400D03*
%TD*%
D15*
%TO.C,P5*%
X140610100Y-91332400D03*
D16*
X140610100Y-88792400D03*
%TD*%
D12*
%TO.C,P1*%
X166090100Y-55762400D03*
X161090100Y-55762400D03*
X156090100Y-55762400D03*
%TD*%
%TO.C,P15*%
X128900100Y-125192400D03*
X133900100Y-125192400D03*
X138900100Y-125192400D03*
%TD*%
M02*
