%TF.GenerationSoftware,KiCad,Pcbnew,5.99.0-unknown-b63c482347~127~ubuntu20.04.1*%
%TF.CreationDate,2021-04-29T12:01:30+02:00*%
%TF.ProjectId,bbb-can-bus-cape,6262622d-6361-46e2-9d62-75732d636170,rev?*%
%TF.SameCoordinates,Original*%
%TF.FileFunction,Legend,Top*%
%TF.FilePolarity,Positive*%
%FSLAX46Y46*%
G04 Gerber Fmt 4.6, Leading zero omitted, Abs format (unit mm)*
G04 Created by KiCad (PCBNEW 5.99.0-unknown-b63c482347~127~ubuntu20.04.1) date 2021-04-29 12:01:30*
%MOMM*%
%LPD*%
G01*
G04 APERTURE LIST*
%ADD10C,0.300000*%
%ADD11C,0.150000*%
%ADD12C,0.127000*%
%ADD13C,0.158750*%
%ADD14C,0.250000*%
%ADD15C,0.254000*%
%ADD16C,0.285750*%
%ADD17C,0.200000*%
%ADD18C,0.203200*%
%ADD19C,0.381000*%
%ADD20R,1.727200X1.727200*%
%ADD21O,1.727200X1.727200*%
%ADD22R,1.524000X1.850000*%
%ADD23O,1.524000X1.850000*%
%ADD24R,1.850000X1.524000*%
%ADD25O,1.850000X1.524000*%
G04 APERTURE END LIST*
D10*
X130377242Y-49125257D02*
X130591528Y-49196685D01*
X130662957Y-49268114D01*
X130734385Y-49410971D01*
X130734385Y-49625257D01*
X130662957Y-49768114D01*
X130591528Y-49839542D01*
X130448671Y-49910971D01*
X129877242Y-49910971D01*
X129877242Y-48410971D01*
X130377242Y-48410971D01*
X130520100Y-48482400D01*
X130591528Y-48553828D01*
X130662957Y-48696685D01*
X130662957Y-48839542D01*
X130591528Y-48982400D01*
X130520100Y-49053828D01*
X130377242Y-49125257D01*
X129877242Y-49125257D01*
X122877242Y-60270971D02*
X122377242Y-59556685D01*
X122020100Y-60270971D02*
X122020100Y-58770971D01*
X122591528Y-58770971D01*
X122734385Y-58842400D01*
X122805814Y-58913828D01*
X122877242Y-59056685D01*
X122877242Y-59270971D01*
X122805814Y-59413828D01*
X122734385Y-59485257D01*
X122591528Y-59556685D01*
X122020100Y-59556685D01*
X123448671Y-60199542D02*
X123662957Y-60270971D01*
X124020100Y-60270971D01*
X124162957Y-60199542D01*
X124234385Y-60128114D01*
X124305814Y-59985257D01*
X124305814Y-59842400D01*
X124234385Y-59699542D01*
X124162957Y-59628114D01*
X124020100Y-59556685D01*
X123734385Y-59485257D01*
X123591528Y-59413828D01*
X123520100Y-59342400D01*
X123448671Y-59199542D01*
X123448671Y-59056685D01*
X123520100Y-58913828D01*
X123591528Y-58842400D01*
X123734385Y-58770971D01*
X124091528Y-58770971D01*
X124305814Y-58842400D01*
X125591528Y-59270971D02*
X125591528Y-60270971D01*
X125234385Y-58699542D02*
X124877242Y-59770971D01*
X125805814Y-59770971D01*
X126591528Y-59413828D02*
X126448671Y-59342400D01*
X126377242Y-59270971D01*
X126305814Y-59128114D01*
X126305814Y-59056685D01*
X126377242Y-58913828D01*
X126448671Y-58842400D01*
X126591528Y-58770971D01*
X126877242Y-58770971D01*
X127020100Y-58842400D01*
X127091528Y-58913828D01*
X127162957Y-59056685D01*
X127162957Y-59128114D01*
X127091528Y-59270971D01*
X127020100Y-59342400D01*
X126877242Y-59413828D01*
X126591528Y-59413828D01*
X126448671Y-59485257D01*
X126377242Y-59556685D01*
X126305814Y-59699542D01*
X126305814Y-59985257D01*
X126377242Y-60128114D01*
X126448671Y-60199542D01*
X126591528Y-60270971D01*
X126877242Y-60270971D01*
X127020100Y-60199542D01*
X127091528Y-60128114D01*
X127162957Y-59985257D01*
X127162957Y-59699542D01*
X127091528Y-59556685D01*
X127020100Y-59485257D01*
X126877242Y-59413828D01*
X128520100Y-58770971D02*
X127805814Y-58770971D01*
X127734385Y-59485257D01*
X127805814Y-59413828D01*
X127948671Y-59342400D01*
X128305814Y-59342400D01*
X128448671Y-59413828D01*
X128520100Y-59485257D01*
X128591528Y-59628114D01*
X128591528Y-59985257D01*
X128520100Y-60128114D01*
X128448671Y-60199542D01*
X128305814Y-60270971D01*
X127948671Y-60270971D01*
X127805814Y-60199542D01*
X127734385Y-60128114D01*
X124872957Y-49482400D02*
X125587242Y-49482400D01*
X124730100Y-49910971D02*
X125230100Y-48410971D01*
X125730100Y-49910971D01*
X154554385Y-103250971D02*
X153840100Y-103250971D01*
X153840100Y-101750971D01*
X165641528Y-52040971D02*
X165641528Y-50540971D01*
X165641528Y-51255257D02*
X166498671Y-51255257D01*
X166498671Y-52040971D02*
X166498671Y-50540971D01*
X119307242Y-48482400D02*
X119164385Y-48410971D01*
X118950100Y-48410971D01*
X118735814Y-48482400D01*
X118592957Y-48625257D01*
X118521528Y-48768114D01*
X118450100Y-49053828D01*
X118450100Y-49268114D01*
X118521528Y-49553828D01*
X118592957Y-49696685D01*
X118735814Y-49839542D01*
X118950100Y-49910971D01*
X119092957Y-49910971D01*
X119307242Y-49839542D01*
X119378671Y-49768114D01*
X119378671Y-49268114D01*
X119092957Y-49268114D01*
X120021528Y-49910971D02*
X120021528Y-48410971D01*
X120878671Y-49910971D01*
X120878671Y-48410971D01*
X121592957Y-49910971D02*
X121592957Y-48410971D01*
X121950100Y-48410971D01*
X122164385Y-48482400D01*
X122307242Y-48625257D01*
X122378671Y-48768114D01*
X122450100Y-49053828D01*
X122450100Y-49268114D01*
X122378671Y-49553828D01*
X122307242Y-49696685D01*
X122164385Y-49839542D01*
X121950100Y-49910971D01*
X121592957Y-49910971D01*
X158701528Y-103250971D02*
X158701528Y-101750971D01*
X158701528Y-102465257D02*
X159558671Y-102465257D01*
X159558671Y-103250971D02*
X159558671Y-101750971D01*
X161494385Y-52040971D02*
X160780100Y-52040971D01*
X160780100Y-50540971D01*
X148167242Y-101822400D02*
X148024385Y-101750971D01*
X147810100Y-101750971D01*
X147595814Y-101822400D01*
X147452957Y-101965257D01*
X147381528Y-102108114D01*
X147310100Y-102393828D01*
X147310100Y-102608114D01*
X147381528Y-102893828D01*
X147452957Y-103036685D01*
X147595814Y-103179542D01*
X147810100Y-103250971D01*
X147952957Y-103250971D01*
X148167242Y-103179542D01*
X148238671Y-103108114D01*
X148238671Y-102608114D01*
X147952957Y-102608114D01*
X148881528Y-103250971D02*
X148881528Y-101750971D01*
X149738671Y-103250971D01*
X149738671Y-101750971D01*
X150452957Y-103250971D02*
X150452957Y-101750971D01*
X150810100Y-101750971D01*
X151024385Y-101822400D01*
X151167242Y-101965257D01*
X151238671Y-102108114D01*
X151310100Y-102393828D01*
X151310100Y-102608114D01*
X151238671Y-102893828D01*
X151167242Y-103036685D01*
X151024385Y-103179542D01*
X150810100Y-103250971D01*
X150452957Y-103250971D01*
X161948671Y-101378114D02*
X160448671Y-101378114D01*
X160448671Y-101020971D01*
X160520100Y-100806685D01*
X160662957Y-100663828D01*
X160805814Y-100592400D01*
X161091528Y-100520971D01*
X161305814Y-100520971D01*
X161591528Y-100592400D01*
X161734385Y-100663828D01*
X161877242Y-100806685D01*
X161948671Y-101020971D01*
X161948671Y-101378114D01*
X161805814Y-99020971D02*
X161877242Y-99092400D01*
X161948671Y-99306685D01*
X161948671Y-99449542D01*
X161877242Y-99663828D01*
X161734385Y-99806685D01*
X161591528Y-99878114D01*
X161305814Y-99949542D01*
X161091528Y-99949542D01*
X160805814Y-99878114D01*
X160662957Y-99806685D01*
X160520100Y-99663828D01*
X160448671Y-99449542D01*
X160448671Y-99306685D01*
X160520100Y-99092400D01*
X160591528Y-99020971D01*
X161520100Y-98449542D02*
X161520100Y-97735257D01*
X161948671Y-98592400D02*
X160448671Y-98092400D01*
X161948671Y-97592400D01*
X161948671Y-97092400D02*
X160448671Y-97092400D01*
X161948671Y-96235257D01*
X160448671Y-96235257D01*
X161948671Y-94735257D02*
X161948671Y-95592400D01*
X161948671Y-95163828D02*
X160448671Y-95163828D01*
X160662957Y-95306685D01*
X160805814Y-95449542D01*
X160877242Y-95592400D01*
X154434385Y-64570971D02*
X154434385Y-63070971D01*
X154791528Y-63070971D01*
X155005814Y-63142400D01*
X155148671Y-63285257D01*
X155220100Y-63428114D01*
X155291528Y-63713828D01*
X155291528Y-63928114D01*
X155220100Y-64213828D01*
X155148671Y-64356685D01*
X155005814Y-64499542D01*
X154791528Y-64570971D01*
X154434385Y-64570971D01*
X156791528Y-64428114D02*
X156720100Y-64499542D01*
X156505814Y-64570971D01*
X156362957Y-64570971D01*
X156148671Y-64499542D01*
X156005814Y-64356685D01*
X155934385Y-64213828D01*
X155862957Y-63928114D01*
X155862957Y-63713828D01*
X155934385Y-63428114D01*
X156005814Y-63285257D01*
X156148671Y-63142400D01*
X156362957Y-63070971D01*
X156505814Y-63070971D01*
X156720100Y-63142400D01*
X156791528Y-63213828D01*
X157362957Y-64142400D02*
X158077242Y-64142400D01*
X157220100Y-64570971D02*
X157720100Y-63070971D01*
X158220100Y-64570971D01*
X158720100Y-64570971D02*
X158720100Y-63070971D01*
X159577242Y-64570971D01*
X159577242Y-63070971D01*
X160577242Y-63070971D02*
X160720100Y-63070971D01*
X160862957Y-63142400D01*
X160934385Y-63213828D01*
X161005814Y-63356685D01*
X161077242Y-63642400D01*
X161077242Y-63999542D01*
X161005814Y-64285257D01*
X160934385Y-64428114D01*
X160862957Y-64499542D01*
X160720100Y-64570971D01*
X160577242Y-64570971D01*
X160434385Y-64499542D01*
X160362957Y-64428114D01*
X160291528Y-64285257D01*
X160220100Y-63999542D01*
X160220100Y-63642400D01*
X160291528Y-63356685D01*
X160362957Y-63213828D01*
X160434385Y-63142400D01*
X160577242Y-63070971D01*
X155107242Y-50612400D02*
X154964385Y-50540971D01*
X154750100Y-50540971D01*
X154535814Y-50612400D01*
X154392957Y-50755257D01*
X154321528Y-50898114D01*
X154250100Y-51183828D01*
X154250100Y-51398114D01*
X154321528Y-51683828D01*
X154392957Y-51826685D01*
X154535814Y-51969542D01*
X154750100Y-52040971D01*
X154892957Y-52040971D01*
X155107242Y-51969542D01*
X155178671Y-51898114D01*
X155178671Y-51398114D01*
X154892957Y-51398114D01*
X155821528Y-52040971D02*
X155821528Y-50540971D01*
X156678671Y-52040971D01*
X156678671Y-50540971D01*
X157392957Y-52040971D02*
X157392957Y-50540971D01*
X157750100Y-50540971D01*
X157964385Y-50612400D01*
X158107242Y-50755257D01*
X158178671Y-50898114D01*
X158250100Y-51183828D01*
X158250100Y-51398114D01*
X158178671Y-51683828D01*
X158107242Y-51826685D01*
X157964385Y-51969542D01*
X157750100Y-52040971D01*
X157392957Y-52040971D01*
D11*
%TO.C,P8*%
X160782004Y-62044780D02*
X160782004Y-61044780D01*
X161162957Y-61044780D01*
X161258195Y-61092400D01*
X161305814Y-61140019D01*
X161353433Y-61235257D01*
X161353433Y-61378114D01*
X161305814Y-61473352D01*
X161258195Y-61520971D01*
X161162957Y-61568590D01*
X160782004Y-61568590D01*
X161924861Y-61473352D02*
X161829623Y-61425733D01*
X161782004Y-61378114D01*
X161734385Y-61282876D01*
X161734385Y-61235257D01*
X161782004Y-61140019D01*
X161829623Y-61092400D01*
X161924861Y-61044780D01*
X162115338Y-61044780D01*
X162210576Y-61092400D01*
X162258195Y-61140019D01*
X162305814Y-61235257D01*
X162305814Y-61282876D01*
X162258195Y-61378114D01*
X162210576Y-61425733D01*
X162115338Y-61473352D01*
X161924861Y-61473352D01*
X161829623Y-61520971D01*
X161782004Y-61568590D01*
X161734385Y-61663828D01*
X161734385Y-61854304D01*
X161782004Y-61949542D01*
X161829623Y-61997161D01*
X161924861Y-62044780D01*
X162115338Y-62044780D01*
X162210576Y-61997161D01*
X162258195Y-61949542D01*
X162305814Y-61854304D01*
X162305814Y-61663828D01*
X162258195Y-61568590D01*
X162210576Y-61520971D01*
X162115338Y-61473352D01*
%TO.C,P9*%
X115632004Y-57734780D02*
X115632004Y-56734780D01*
X116012957Y-56734780D01*
X116108195Y-56782400D01*
X116155814Y-56830019D01*
X116203433Y-56925257D01*
X116203433Y-57068114D01*
X116155814Y-57163352D01*
X116108195Y-57210971D01*
X116012957Y-57258590D01*
X115632004Y-57258590D01*
X116679623Y-57734780D02*
X116870100Y-57734780D01*
X116965338Y-57687161D01*
X117012957Y-57639542D01*
X117108195Y-57496685D01*
X117155814Y-57306209D01*
X117155814Y-56925257D01*
X117108195Y-56830019D01*
X117060576Y-56782400D01*
X116965338Y-56734780D01*
X116774861Y-56734780D01*
X116679623Y-56782400D01*
X116632004Y-56830019D01*
X116584385Y-56925257D01*
X116584385Y-57163352D01*
X116632004Y-57258590D01*
X116679623Y-57306209D01*
X116774861Y-57353828D01*
X116965338Y-57353828D01*
X117060576Y-57306209D01*
X117108195Y-57258590D01*
X117155814Y-57163352D01*
D12*
%TO.C,R13*%
X121771885Y-104749661D02*
X121560219Y-104447280D01*
X121409028Y-104749661D02*
X121409028Y-104114661D01*
X121650933Y-104114661D01*
X121711409Y-104144900D01*
X121741647Y-104175138D01*
X121771885Y-104235614D01*
X121771885Y-104326328D01*
X121741647Y-104386804D01*
X121711409Y-104417042D01*
X121650933Y-104447280D01*
X121409028Y-104447280D01*
X122376647Y-104749661D02*
X122013790Y-104749661D01*
X122195219Y-104749661D02*
X122195219Y-104114661D01*
X122134742Y-104205376D01*
X122074266Y-104265852D01*
X122013790Y-104296090D01*
X122588314Y-104114661D02*
X122981409Y-104114661D01*
X122769742Y-104356566D01*
X122860457Y-104356566D01*
X122920933Y-104386804D01*
X122951171Y-104417042D01*
X122981409Y-104477519D01*
X122981409Y-104628709D01*
X122951171Y-104689185D01*
X122920933Y-104719423D01*
X122860457Y-104749661D01*
X122679028Y-104749661D01*
X122618552Y-104719423D01*
X122588314Y-104689185D01*
%TO.C,R18*%
X123171885Y-76699661D02*
X122960219Y-76397280D01*
X122809028Y-76699661D02*
X122809028Y-76064661D01*
X123050933Y-76064661D01*
X123111409Y-76094900D01*
X123141647Y-76125138D01*
X123171885Y-76185614D01*
X123171885Y-76276328D01*
X123141647Y-76336804D01*
X123111409Y-76367042D01*
X123050933Y-76397280D01*
X122809028Y-76397280D01*
X123776647Y-76699661D02*
X123413790Y-76699661D01*
X123595219Y-76699661D02*
X123595219Y-76064661D01*
X123534742Y-76155376D01*
X123474266Y-76215852D01*
X123413790Y-76246090D01*
X124139504Y-76336804D02*
X124079028Y-76306566D01*
X124048790Y-76276328D01*
X124018552Y-76215852D01*
X124018552Y-76185614D01*
X124048790Y-76125138D01*
X124079028Y-76094900D01*
X124139504Y-76064661D01*
X124260457Y-76064661D01*
X124320933Y-76094900D01*
X124351171Y-76125138D01*
X124381409Y-76185614D01*
X124381409Y-76215852D01*
X124351171Y-76276328D01*
X124320933Y-76306566D01*
X124260457Y-76336804D01*
X124139504Y-76336804D01*
X124079028Y-76367042D01*
X124048790Y-76397280D01*
X124018552Y-76457757D01*
X124018552Y-76578709D01*
X124048790Y-76639185D01*
X124079028Y-76669423D01*
X124139504Y-76699661D01*
X124260457Y-76699661D01*
X124320933Y-76669423D01*
X124351171Y-76639185D01*
X124381409Y-76578709D01*
X124381409Y-76457757D01*
X124351171Y-76397280D01*
X124320933Y-76367042D01*
X124260457Y-76336804D01*
%TO.C,F5*%
X164685671Y-123116400D02*
X164685671Y-123370400D01*
X165084814Y-123370400D02*
X164322814Y-123370400D01*
X164322814Y-123007542D01*
X164322814Y-122354400D02*
X164322814Y-122717257D01*
X164685671Y-122753542D01*
X164649385Y-122717257D01*
X164613100Y-122644685D01*
X164613100Y-122463257D01*
X164649385Y-122390685D01*
X164685671Y-122354400D01*
X164758242Y-122318114D01*
X164939671Y-122318114D01*
X165012242Y-122354400D01*
X165048528Y-122390685D01*
X165084814Y-122463257D01*
X165084814Y-122644685D01*
X165048528Y-122717257D01*
X165012242Y-122753542D01*
%TO.C,C17*%
X127376885Y-113240614D02*
X127407123Y-113270852D01*
X127437361Y-113361566D01*
X127437361Y-113422042D01*
X127407123Y-113512757D01*
X127346647Y-113573233D01*
X127286171Y-113603471D01*
X127165219Y-113633709D01*
X127074504Y-113633709D01*
X126953552Y-113603471D01*
X126893076Y-113573233D01*
X126832600Y-113512757D01*
X126802361Y-113422042D01*
X126802361Y-113361566D01*
X126832600Y-113270852D01*
X126862838Y-113240614D01*
X127437361Y-112635852D02*
X127437361Y-112998709D01*
X127437361Y-112817280D02*
X126802361Y-112817280D01*
X126893076Y-112877757D01*
X126953552Y-112938233D01*
X126983790Y-112998709D01*
X126802361Y-112424185D02*
X126802361Y-112000852D01*
X127437361Y-112272995D01*
D13*
%TO.C,U6*%
X125246290Y-77584661D02*
X125246290Y-78098709D01*
X125276528Y-78159185D01*
X125306766Y-78189423D01*
X125367242Y-78219661D01*
X125488195Y-78219661D01*
X125548671Y-78189423D01*
X125578909Y-78159185D01*
X125609147Y-78098709D01*
X125609147Y-77584661D01*
X126183671Y-77584661D02*
X126062719Y-77584661D01*
X126002242Y-77614900D01*
X125972004Y-77645138D01*
X125911528Y-77735852D01*
X125881290Y-77856804D01*
X125881290Y-78098709D01*
X125911528Y-78159185D01*
X125941766Y-78189423D01*
X126002242Y-78219661D01*
X126123195Y-78219661D01*
X126183671Y-78189423D01*
X126213909Y-78159185D01*
X126244147Y-78098709D01*
X126244147Y-77947519D01*
X126213909Y-77887042D01*
X126183671Y-77856804D01*
X126123195Y-77826566D01*
X126002242Y-77826566D01*
X125941766Y-77856804D01*
X125911528Y-77887042D01*
X125881290Y-77947519D01*
D12*
%TO.C,R24*%
X135111885Y-109929661D02*
X134900219Y-109627280D01*
X134749028Y-109929661D02*
X134749028Y-109294661D01*
X134990933Y-109294661D01*
X135051409Y-109324900D01*
X135081647Y-109355138D01*
X135111885Y-109415614D01*
X135111885Y-109506328D01*
X135081647Y-109566804D01*
X135051409Y-109597042D01*
X134990933Y-109627280D01*
X134749028Y-109627280D01*
X135353790Y-109355138D02*
X135384028Y-109324900D01*
X135444504Y-109294661D01*
X135595695Y-109294661D01*
X135656171Y-109324900D01*
X135686409Y-109355138D01*
X135716647Y-109415614D01*
X135716647Y-109476090D01*
X135686409Y-109566804D01*
X135323552Y-109929661D01*
X135716647Y-109929661D01*
X136260933Y-109506328D02*
X136260933Y-109929661D01*
X136109742Y-109264423D02*
X135958552Y-109717995D01*
X136351647Y-109717995D01*
%TO.C,R19*%
X121461885Y-83899661D02*
X121250219Y-83597280D01*
X121099028Y-83899661D02*
X121099028Y-83264661D01*
X121340933Y-83264661D01*
X121401409Y-83294900D01*
X121431647Y-83325138D01*
X121461885Y-83385614D01*
X121461885Y-83476328D01*
X121431647Y-83536804D01*
X121401409Y-83567042D01*
X121340933Y-83597280D01*
X121099028Y-83597280D01*
X122066647Y-83899661D02*
X121703790Y-83899661D01*
X121885219Y-83899661D02*
X121885219Y-83264661D01*
X121824742Y-83355376D01*
X121764266Y-83415852D01*
X121703790Y-83446090D01*
X122369028Y-83899661D02*
X122489980Y-83899661D01*
X122550457Y-83869423D01*
X122580695Y-83839185D01*
X122641171Y-83748471D01*
X122671409Y-83627519D01*
X122671409Y-83385614D01*
X122641171Y-83325138D01*
X122610933Y-83294900D01*
X122550457Y-83264661D01*
X122429504Y-83264661D01*
X122369028Y-83294900D01*
X122338790Y-83325138D01*
X122308552Y-83385614D01*
X122308552Y-83536804D01*
X122338790Y-83597280D01*
X122369028Y-83627519D01*
X122429504Y-83657757D01*
X122550457Y-83657757D01*
X122610933Y-83627519D01*
X122641171Y-83597280D01*
X122671409Y-83536804D01*
%TO.C,D10*%
X124709028Y-104499661D02*
X124709028Y-103864661D01*
X124860219Y-103864661D01*
X124950933Y-103894900D01*
X125011409Y-103955376D01*
X125041647Y-104015852D01*
X125071885Y-104136804D01*
X125071885Y-104227519D01*
X125041647Y-104348471D01*
X125011409Y-104408947D01*
X124950933Y-104469423D01*
X124860219Y-104499661D01*
X124709028Y-104499661D01*
X125676647Y-104499661D02*
X125313790Y-104499661D01*
X125495219Y-104499661D02*
X125495219Y-103864661D01*
X125434742Y-103955376D01*
X125374266Y-104015852D01*
X125313790Y-104046090D01*
X126069742Y-103864661D02*
X126130219Y-103864661D01*
X126190695Y-103894900D01*
X126220933Y-103925138D01*
X126251171Y-103985614D01*
X126281409Y-104106566D01*
X126281409Y-104257757D01*
X126251171Y-104378709D01*
X126220933Y-104439185D01*
X126190695Y-104469423D01*
X126130219Y-104499661D01*
X126069742Y-104499661D01*
X126009266Y-104469423D01*
X125979028Y-104439185D01*
X125948790Y-104378709D01*
X125918552Y-104257757D01*
X125918552Y-104106566D01*
X125948790Y-103985614D01*
X125979028Y-103925138D01*
X126009266Y-103894900D01*
X126069742Y-103864661D01*
D14*
%TO.C,Sw3*%
X125644385Y-91797161D02*
X125787242Y-91844780D01*
X126025338Y-91844780D01*
X126120576Y-91797161D01*
X126168195Y-91749542D01*
X126215814Y-91654304D01*
X126215814Y-91559066D01*
X126168195Y-91463828D01*
X126120576Y-91416209D01*
X126025338Y-91368590D01*
X125834861Y-91320971D01*
X125739623Y-91273352D01*
X125692004Y-91225733D01*
X125644385Y-91130495D01*
X125644385Y-91035257D01*
X125692004Y-90940019D01*
X125739623Y-90892400D01*
X125834861Y-90844780D01*
X126072957Y-90844780D01*
X126215814Y-90892400D01*
X126549147Y-91178114D02*
X126739623Y-91844780D01*
X126930100Y-91368590D01*
X127120576Y-91844780D01*
X127311052Y-91178114D01*
X127596766Y-90844780D02*
X128215814Y-90844780D01*
X127882480Y-91225733D01*
X128025338Y-91225733D01*
X128120576Y-91273352D01*
X128168195Y-91320971D01*
X128215814Y-91416209D01*
X128215814Y-91654304D01*
X128168195Y-91749542D01*
X128120576Y-91797161D01*
X128025338Y-91844780D01*
X127739623Y-91844780D01*
X127644385Y-91797161D01*
X127596766Y-91749542D01*
D12*
%TO.C,R5*%
X128637361Y-108568233D02*
X128334980Y-108779900D01*
X128637361Y-108931090D02*
X128002361Y-108931090D01*
X128002361Y-108689185D01*
X128032600Y-108628709D01*
X128062838Y-108598471D01*
X128123314Y-108568233D01*
X128214028Y-108568233D01*
X128274504Y-108598471D01*
X128304742Y-108628709D01*
X128334980Y-108689185D01*
X128334980Y-108931090D01*
X128002361Y-107993709D02*
X128002361Y-108296090D01*
X128304742Y-108326328D01*
X128274504Y-108296090D01*
X128244266Y-108235614D01*
X128244266Y-108084423D01*
X128274504Y-108023947D01*
X128304742Y-107993709D01*
X128365219Y-107963471D01*
X128516409Y-107963471D01*
X128576885Y-107993709D01*
X128607123Y-108023947D01*
X128637361Y-108084423D01*
X128637361Y-108235614D01*
X128607123Y-108296090D01*
X128576885Y-108326328D01*
D13*
%TO.C,D4*%
X134124361Y-119271090D02*
X133489361Y-119271090D01*
X133489361Y-119119900D01*
X133519600Y-119029185D01*
X133580076Y-118968709D01*
X133640552Y-118938471D01*
X133761504Y-118908233D01*
X133852219Y-118908233D01*
X133973171Y-118938471D01*
X134033647Y-118968709D01*
X134094123Y-119029185D01*
X134124361Y-119119900D01*
X134124361Y-119271090D01*
X133701028Y-118363947D02*
X134124361Y-118363947D01*
X133459123Y-118515138D02*
X133912695Y-118666328D01*
X133912695Y-118273233D01*
D11*
%TO.C,P2*%
X161112004Y-112674780D02*
X161112004Y-111674780D01*
X161492957Y-111674780D01*
X161588195Y-111722400D01*
X161635814Y-111770019D01*
X161683433Y-111865257D01*
X161683433Y-112008114D01*
X161635814Y-112103352D01*
X161588195Y-112150971D01*
X161492957Y-112198590D01*
X161112004Y-112198590D01*
X162064385Y-111770019D02*
X162112004Y-111722400D01*
X162207242Y-111674780D01*
X162445338Y-111674780D01*
X162540576Y-111722400D01*
X162588195Y-111770019D01*
X162635814Y-111865257D01*
X162635814Y-111960495D01*
X162588195Y-112103352D01*
X162016766Y-112674780D01*
X162635814Y-112674780D01*
X159645814Y-112704780D02*
X159074385Y-112704780D01*
X159360100Y-112704780D02*
X159360100Y-111704780D01*
X159264861Y-111847638D01*
X159169623Y-111942876D01*
X159074385Y-111990495D01*
D12*
%TO.C,D11*%
X124769028Y-107179661D02*
X124769028Y-106544661D01*
X124920219Y-106544661D01*
X125010933Y-106574900D01*
X125071409Y-106635376D01*
X125101647Y-106695852D01*
X125131885Y-106816804D01*
X125131885Y-106907519D01*
X125101647Y-107028471D01*
X125071409Y-107088947D01*
X125010933Y-107149423D01*
X124920219Y-107179661D01*
X124769028Y-107179661D01*
X125736647Y-107179661D02*
X125373790Y-107179661D01*
X125555219Y-107179661D02*
X125555219Y-106544661D01*
X125494742Y-106635376D01*
X125434266Y-106695852D01*
X125373790Y-106726090D01*
X126341409Y-107179661D02*
X125978552Y-107179661D01*
X126159980Y-107179661D02*
X126159980Y-106544661D01*
X126099504Y-106635376D01*
X126039028Y-106695852D01*
X125978552Y-106726090D01*
D13*
%TO.C,D3*%
X155701409Y-118162661D02*
X155701409Y-117527661D01*
X155852600Y-117527661D01*
X155943314Y-117557900D01*
X156003790Y-117618376D01*
X156034028Y-117678852D01*
X156064266Y-117799804D01*
X156064266Y-117890519D01*
X156034028Y-118011471D01*
X156003790Y-118071947D01*
X155943314Y-118132423D01*
X155852600Y-118162661D01*
X155701409Y-118162661D01*
X156275933Y-117527661D02*
X156669028Y-117527661D01*
X156457361Y-117769566D01*
X156548076Y-117769566D01*
X156608552Y-117799804D01*
X156638790Y-117830042D01*
X156669028Y-117890519D01*
X156669028Y-118041709D01*
X156638790Y-118102185D01*
X156608552Y-118132423D01*
X156548076Y-118162661D01*
X156366647Y-118162661D01*
X156306171Y-118132423D01*
X156275933Y-118102185D01*
D12*
%TO.C,R9*%
X152877361Y-119828233D02*
X152574980Y-120039900D01*
X152877361Y-120191090D02*
X152242361Y-120191090D01*
X152242361Y-119949185D01*
X152272600Y-119888709D01*
X152302838Y-119858471D01*
X152363314Y-119828233D01*
X152454028Y-119828233D01*
X152514504Y-119858471D01*
X152544742Y-119888709D01*
X152574980Y-119949185D01*
X152574980Y-120191090D01*
X152877361Y-119525852D02*
X152877361Y-119404900D01*
X152847123Y-119344423D01*
X152816885Y-119314185D01*
X152726171Y-119253709D01*
X152605219Y-119223471D01*
X152363314Y-119223471D01*
X152302838Y-119253709D01*
X152272600Y-119283947D01*
X152242361Y-119344423D01*
X152242361Y-119465376D01*
X152272600Y-119525852D01*
X152302838Y-119556090D01*
X152363314Y-119586328D01*
X152514504Y-119586328D01*
X152574980Y-119556090D01*
X152605219Y-119525852D01*
X152635457Y-119465376D01*
X152635457Y-119344423D01*
X152605219Y-119283947D01*
X152574980Y-119253709D01*
X152514504Y-119223471D01*
%TO.C,R2*%
X149514266Y-87079661D02*
X149302600Y-86777280D01*
X149151409Y-87079661D02*
X149151409Y-86444661D01*
X149393314Y-86444661D01*
X149453790Y-86474900D01*
X149484028Y-86505138D01*
X149514266Y-86565614D01*
X149514266Y-86656328D01*
X149484028Y-86716804D01*
X149453790Y-86747042D01*
X149393314Y-86777280D01*
X149151409Y-86777280D01*
X149756171Y-86505138D02*
X149786409Y-86474900D01*
X149846885Y-86444661D01*
X149998076Y-86444661D01*
X150058552Y-86474900D01*
X150088790Y-86505138D01*
X150119028Y-86565614D01*
X150119028Y-86626090D01*
X150088790Y-86716804D01*
X149725933Y-87079661D01*
X150119028Y-87079661D01*
%TO.C,R8*%
X145987361Y-108488233D02*
X145684980Y-108699900D01*
X145987361Y-108851090D02*
X145352361Y-108851090D01*
X145352361Y-108609185D01*
X145382600Y-108548709D01*
X145412838Y-108518471D01*
X145473314Y-108488233D01*
X145564028Y-108488233D01*
X145624504Y-108518471D01*
X145654742Y-108548709D01*
X145684980Y-108609185D01*
X145684980Y-108851090D01*
X145624504Y-108125376D02*
X145594266Y-108185852D01*
X145564028Y-108216090D01*
X145503552Y-108246328D01*
X145473314Y-108246328D01*
X145412838Y-108216090D01*
X145382600Y-108185852D01*
X145352361Y-108125376D01*
X145352361Y-108004423D01*
X145382600Y-107943947D01*
X145412838Y-107913709D01*
X145473314Y-107883471D01*
X145503552Y-107883471D01*
X145564028Y-107913709D01*
X145594266Y-107943947D01*
X145624504Y-108004423D01*
X145624504Y-108125376D01*
X145654742Y-108185852D01*
X145684980Y-108216090D01*
X145745457Y-108246328D01*
X145866409Y-108246328D01*
X145926885Y-108216090D01*
X145957123Y-108185852D01*
X145987361Y-108125376D01*
X145987361Y-108004423D01*
X145957123Y-107943947D01*
X145926885Y-107913709D01*
X145866409Y-107883471D01*
X145745457Y-107883471D01*
X145684980Y-107913709D01*
X145654742Y-107943947D01*
X145624504Y-108004423D01*
%TO.C,C18*%
X139861885Y-111849185D02*
X139831647Y-111879423D01*
X139740933Y-111909661D01*
X139680457Y-111909661D01*
X139589742Y-111879423D01*
X139529266Y-111818947D01*
X139499028Y-111758471D01*
X139468790Y-111637519D01*
X139468790Y-111546804D01*
X139499028Y-111425852D01*
X139529266Y-111365376D01*
X139589742Y-111304900D01*
X139680457Y-111274661D01*
X139740933Y-111274661D01*
X139831647Y-111304900D01*
X139861885Y-111335138D01*
X140466647Y-111909661D02*
X140103790Y-111909661D01*
X140285219Y-111909661D02*
X140285219Y-111274661D01*
X140224742Y-111365376D01*
X140164266Y-111425852D01*
X140103790Y-111456090D01*
X140829504Y-111546804D02*
X140769028Y-111516566D01*
X140738790Y-111486328D01*
X140708552Y-111425852D01*
X140708552Y-111395614D01*
X140738790Y-111335138D01*
X140769028Y-111304900D01*
X140829504Y-111274661D01*
X140950457Y-111274661D01*
X141010933Y-111304900D01*
X141041171Y-111335138D01*
X141071409Y-111395614D01*
X141071409Y-111425852D01*
X141041171Y-111486328D01*
X141010933Y-111516566D01*
X140950457Y-111546804D01*
X140829504Y-111546804D01*
X140769028Y-111577042D01*
X140738790Y-111607280D01*
X140708552Y-111667757D01*
X140708552Y-111788709D01*
X140738790Y-111849185D01*
X140769028Y-111879423D01*
X140829504Y-111909661D01*
X140950457Y-111909661D01*
X141010933Y-111879423D01*
X141041171Y-111849185D01*
X141071409Y-111788709D01*
X141071409Y-111667757D01*
X141041171Y-111607280D01*
X141010933Y-111577042D01*
X140950457Y-111546804D01*
D13*
%TO.C,U8*%
X128342361Y-77706209D02*
X128856409Y-77706209D01*
X128916885Y-77675971D01*
X128947123Y-77645733D01*
X128977361Y-77585257D01*
X128977361Y-77464304D01*
X128947123Y-77403828D01*
X128916885Y-77373590D01*
X128856409Y-77343352D01*
X128342361Y-77343352D01*
X128614504Y-76950257D02*
X128584266Y-77010733D01*
X128554028Y-77040971D01*
X128493552Y-77071209D01*
X128463314Y-77071209D01*
X128402838Y-77040971D01*
X128372600Y-77010733D01*
X128342361Y-76950257D01*
X128342361Y-76829304D01*
X128372600Y-76768828D01*
X128402838Y-76738590D01*
X128463314Y-76708352D01*
X128493552Y-76708352D01*
X128554028Y-76738590D01*
X128584266Y-76768828D01*
X128614504Y-76829304D01*
X128614504Y-76950257D01*
X128644742Y-77010733D01*
X128674980Y-77040971D01*
X128735457Y-77071209D01*
X128856409Y-77071209D01*
X128916885Y-77040971D01*
X128947123Y-77010733D01*
X128977361Y-76950257D01*
X128977361Y-76829304D01*
X128947123Y-76768828D01*
X128916885Y-76738590D01*
X128856409Y-76708352D01*
X128735457Y-76708352D01*
X128674980Y-76738590D01*
X128644742Y-76768828D01*
X128614504Y-76829304D01*
D11*
%TO.C,X1*%
X137670576Y-103324780D02*
X138337242Y-104324780D01*
X138337242Y-103324780D02*
X137670576Y-104324780D01*
X139242004Y-104324780D02*
X138670576Y-104324780D01*
X138956290Y-104324780D02*
X138956290Y-103324780D01*
X138861052Y-103467638D01*
X138765814Y-103562876D01*
X138670576Y-103610495D01*
D13*
%TO.C,P11*%
X148659028Y-113529661D02*
X148659028Y-112894661D01*
X148900933Y-112894661D01*
X148961409Y-112924900D01*
X148991647Y-112955138D01*
X149021885Y-113015614D01*
X149021885Y-113106328D01*
X148991647Y-113166804D01*
X148961409Y-113197042D01*
X148900933Y-113227280D01*
X148659028Y-113227280D01*
X149626647Y-113529661D02*
X149263790Y-113529661D01*
X149445219Y-113529661D02*
X149445219Y-112894661D01*
X149384742Y-112985376D01*
X149324266Y-113045852D01*
X149263790Y-113076090D01*
X150231409Y-113529661D02*
X149868552Y-113529661D01*
X150049980Y-113529661D02*
X150049980Y-112894661D01*
X149989504Y-112985376D01*
X149929028Y-113045852D01*
X149868552Y-113076090D01*
D12*
%TO.C,R29*%
X121537361Y-93850614D02*
X121234980Y-94062280D01*
X121537361Y-94213471D02*
X120902361Y-94213471D01*
X120902361Y-93971566D01*
X120932600Y-93911090D01*
X120962838Y-93880852D01*
X121023314Y-93850614D01*
X121114028Y-93850614D01*
X121174504Y-93880852D01*
X121204742Y-93911090D01*
X121234980Y-93971566D01*
X121234980Y-94213471D01*
X120962838Y-93608709D02*
X120932600Y-93578471D01*
X120902361Y-93517995D01*
X120902361Y-93366804D01*
X120932600Y-93306328D01*
X120962838Y-93276090D01*
X121023314Y-93245852D01*
X121083790Y-93245852D01*
X121174504Y-93276090D01*
X121537361Y-93638947D01*
X121537361Y-93245852D01*
X121537361Y-92943471D02*
X121537361Y-92822519D01*
X121507123Y-92762042D01*
X121476885Y-92731804D01*
X121386171Y-92671328D01*
X121265219Y-92641090D01*
X121023314Y-92641090D01*
X120962838Y-92671328D01*
X120932600Y-92701566D01*
X120902361Y-92762042D01*
X120902361Y-92882995D01*
X120932600Y-92943471D01*
X120962838Y-92973709D01*
X121023314Y-93003947D01*
X121174504Y-93003947D01*
X121234980Y-92973709D01*
X121265219Y-92943471D01*
X121295457Y-92882995D01*
X121295457Y-92762042D01*
X121265219Y-92701566D01*
X121234980Y-92671328D01*
X121174504Y-92641090D01*
D13*
%TO.C,U7*%
X132656290Y-66924661D02*
X132656290Y-67438709D01*
X132686528Y-67499185D01*
X132716766Y-67529423D01*
X132777242Y-67559661D01*
X132898195Y-67559661D01*
X132958671Y-67529423D01*
X132988909Y-67499185D01*
X133019147Y-67438709D01*
X133019147Y-66924661D01*
X133261052Y-66924661D02*
X133684385Y-66924661D01*
X133412242Y-67559661D01*
%TO.C,NTC1*%
X124456885Y-114669661D02*
X124456885Y-114034661D01*
X124819742Y-114669661D01*
X124819742Y-114034661D01*
X125031409Y-114034661D02*
X125394266Y-114034661D01*
X125212838Y-114669661D02*
X125212838Y-114034661D01*
X125968790Y-114609185D02*
X125938552Y-114639423D01*
X125847838Y-114669661D01*
X125787361Y-114669661D01*
X125696647Y-114639423D01*
X125636171Y-114578947D01*
X125605933Y-114518471D01*
X125575695Y-114397519D01*
X125575695Y-114306804D01*
X125605933Y-114185852D01*
X125636171Y-114125376D01*
X125696647Y-114064900D01*
X125787361Y-114034661D01*
X125847838Y-114034661D01*
X125938552Y-114064900D01*
X125968790Y-114095138D01*
X126573552Y-114669661D02*
X126210695Y-114669661D01*
X126392123Y-114669661D02*
X126392123Y-114034661D01*
X126331647Y-114125376D01*
X126271171Y-114185852D01*
X126210695Y-114216090D01*
D12*
%TO.C,F8*%
X144036100Y-75007971D02*
X143782100Y-75007971D01*
X143782100Y-75407114D02*
X143782100Y-74645114D01*
X144144957Y-74645114D01*
X144544100Y-74971685D02*
X144471528Y-74935400D01*
X144435242Y-74899114D01*
X144398957Y-74826542D01*
X144398957Y-74790257D01*
X144435242Y-74717685D01*
X144471528Y-74681400D01*
X144544100Y-74645114D01*
X144689242Y-74645114D01*
X144761814Y-74681400D01*
X144798100Y-74717685D01*
X144834385Y-74790257D01*
X144834385Y-74826542D01*
X144798100Y-74899114D01*
X144761814Y-74935400D01*
X144689242Y-74971685D01*
X144544100Y-74971685D01*
X144471528Y-75007971D01*
X144435242Y-75044257D01*
X144398957Y-75116828D01*
X144398957Y-75261971D01*
X144435242Y-75334542D01*
X144471528Y-75370828D01*
X144544100Y-75407114D01*
X144689242Y-75407114D01*
X144761814Y-75370828D01*
X144798100Y-75334542D01*
X144834385Y-75261971D01*
X144834385Y-75116828D01*
X144798100Y-75044257D01*
X144761814Y-75007971D01*
X144689242Y-74971685D01*
%TO.C,R1*%
X149604266Y-79819661D02*
X149392600Y-79517280D01*
X149241409Y-79819661D02*
X149241409Y-79184661D01*
X149483314Y-79184661D01*
X149543790Y-79214900D01*
X149574028Y-79245138D01*
X149604266Y-79305614D01*
X149604266Y-79396328D01*
X149574028Y-79456804D01*
X149543790Y-79487042D01*
X149483314Y-79517280D01*
X149241409Y-79517280D01*
X150209028Y-79819661D02*
X149846171Y-79819661D01*
X150027600Y-79819661D02*
X150027600Y-79184661D01*
X149967123Y-79275376D01*
X149906647Y-79335852D01*
X149846171Y-79366090D01*
D11*
%TO.C,P7*%
X158502004Y-127914780D02*
X158502004Y-126914780D01*
X158882957Y-126914780D01*
X158978195Y-126962400D01*
X159025814Y-127010019D01*
X159073433Y-127105257D01*
X159073433Y-127248114D01*
X159025814Y-127343352D01*
X158978195Y-127390971D01*
X158882957Y-127438590D01*
X158502004Y-127438590D01*
X159406766Y-126914780D02*
X160073433Y-126914780D01*
X159644861Y-127914780D01*
X145415814Y-120214780D02*
X144844385Y-120214780D01*
X145130100Y-120214780D02*
X145130100Y-119214780D01*
X145034861Y-119357638D01*
X144939623Y-119452876D01*
X144844385Y-119500495D01*
D12*
%TO.C,R12*%
X121751885Y-75399661D02*
X121540219Y-75097280D01*
X121389028Y-75399661D02*
X121389028Y-74764661D01*
X121630933Y-74764661D01*
X121691409Y-74794900D01*
X121721647Y-74825138D01*
X121751885Y-74885614D01*
X121751885Y-74976328D01*
X121721647Y-75036804D01*
X121691409Y-75067042D01*
X121630933Y-75097280D01*
X121389028Y-75097280D01*
X122356647Y-75399661D02*
X121993790Y-75399661D01*
X122175219Y-75399661D02*
X122175219Y-74764661D01*
X122114742Y-74855376D01*
X122054266Y-74915852D01*
X121993790Y-74946090D01*
X122598552Y-74825138D02*
X122628790Y-74794900D01*
X122689266Y-74764661D01*
X122840457Y-74764661D01*
X122900933Y-74794900D01*
X122931171Y-74825138D01*
X122961409Y-74885614D01*
X122961409Y-74946090D01*
X122931171Y-75036804D01*
X122568314Y-75399661D01*
X122961409Y-75399661D01*
D15*
%TO.C,P6*%
X138712719Y-102796923D02*
X138712719Y-101526923D01*
X139196528Y-101526923D01*
X139317480Y-101587400D01*
X139377957Y-101647876D01*
X139438433Y-101768828D01*
X139438433Y-101950257D01*
X139377957Y-102071209D01*
X139317480Y-102131685D01*
X139196528Y-102192161D01*
X138712719Y-102192161D01*
X140527004Y-101526923D02*
X140285100Y-101526923D01*
X140164147Y-101587400D01*
X140103671Y-101647876D01*
X139982719Y-101829304D01*
X139922242Y-102071209D01*
X139922242Y-102555019D01*
X139982719Y-102675971D01*
X140043195Y-102736447D01*
X140164147Y-102796923D01*
X140406052Y-102796923D01*
X140527004Y-102736447D01*
X140587480Y-102675971D01*
X140647957Y-102555019D01*
X140647957Y-102252638D01*
X140587480Y-102131685D01*
X140527004Y-102071209D01*
X140406052Y-102010733D01*
X140164147Y-102010733D01*
X140043195Y-102071209D01*
X139982719Y-102131685D01*
X139922242Y-102252638D01*
D14*
%TO.C,Sw4*%
X125284861Y-94568114D02*
X125332480Y-94425257D01*
X125332480Y-94187161D01*
X125284861Y-94091923D01*
X125237242Y-94044304D01*
X125142004Y-93996685D01*
X125046766Y-93996685D01*
X124951528Y-94044304D01*
X124903909Y-94091923D01*
X124856290Y-94187161D01*
X124808671Y-94377638D01*
X124761052Y-94472876D01*
X124713433Y-94520495D01*
X124618195Y-94568114D01*
X124522957Y-94568114D01*
X124427719Y-94520495D01*
X124380100Y-94472876D01*
X124332480Y-94377638D01*
X124332480Y-94139542D01*
X124380100Y-93996685D01*
X124665814Y-93663352D02*
X125332480Y-93472876D01*
X124856290Y-93282400D01*
X125332480Y-93091923D01*
X124665814Y-92901447D01*
X124665814Y-92091923D02*
X125332480Y-92091923D01*
X124284861Y-92330019D02*
X124999147Y-92568114D01*
X124999147Y-91949066D01*
D13*
%TO.C,D5*%
X148650361Y-70461090D02*
X148015361Y-70461090D01*
X148015361Y-70309900D01*
X148045600Y-70219185D01*
X148106076Y-70158709D01*
X148166552Y-70128471D01*
X148287504Y-70098233D01*
X148378219Y-70098233D01*
X148499171Y-70128471D01*
X148559647Y-70158709D01*
X148620123Y-70219185D01*
X148650361Y-70309900D01*
X148650361Y-70461090D01*
X148015361Y-69523709D02*
X148015361Y-69826090D01*
X148317742Y-69856328D01*
X148287504Y-69826090D01*
X148257266Y-69765614D01*
X148257266Y-69614423D01*
X148287504Y-69553947D01*
X148317742Y-69523709D01*
X148378219Y-69493471D01*
X148529409Y-69493471D01*
X148589885Y-69523709D01*
X148620123Y-69553947D01*
X148650361Y-69614423D01*
X148650361Y-69765614D01*
X148620123Y-69826090D01*
X148589885Y-69856328D01*
D12*
%TO.C,F7*%
X137445671Y-75706400D02*
X137445671Y-75960400D01*
X137844814Y-75960400D02*
X137082814Y-75960400D01*
X137082814Y-75597542D01*
X137082814Y-75379828D02*
X137082814Y-74871828D01*
X137844814Y-75198400D01*
%TO.C,F4*%
X150455671Y-99286400D02*
X150455671Y-99540400D01*
X150854814Y-99540400D02*
X150092814Y-99540400D01*
X150092814Y-99177542D01*
X150346814Y-98560685D02*
X150854814Y-98560685D01*
X150056528Y-98742114D02*
X150600814Y-98923542D01*
X150600814Y-98451828D01*
D13*
%TO.C,P10*%
X141709028Y-120379661D02*
X141709028Y-119744661D01*
X141950933Y-119744661D01*
X142011409Y-119774900D01*
X142041647Y-119805138D01*
X142071885Y-119865614D01*
X142071885Y-119956328D01*
X142041647Y-120016804D01*
X142011409Y-120047042D01*
X141950933Y-120077280D01*
X141709028Y-120077280D01*
X142676647Y-120379661D02*
X142313790Y-120379661D01*
X142495219Y-120379661D02*
X142495219Y-119744661D01*
X142434742Y-119835376D01*
X142374266Y-119895852D01*
X142313790Y-119926090D01*
X143069742Y-119744661D02*
X143130219Y-119744661D01*
X143190695Y-119774900D01*
X143220933Y-119805138D01*
X143251171Y-119865614D01*
X143281409Y-119986566D01*
X143281409Y-120137757D01*
X143251171Y-120258709D01*
X143220933Y-120319185D01*
X143190695Y-120349423D01*
X143130219Y-120379661D01*
X143069742Y-120379661D01*
X143009266Y-120349423D01*
X142979028Y-120319185D01*
X142948790Y-120258709D01*
X142918552Y-120137757D01*
X142918552Y-119986566D01*
X142948790Y-119865614D01*
X142979028Y-119805138D01*
X143009266Y-119774900D01*
X143069742Y-119744661D01*
D12*
%TO.C,R11*%
X123931885Y-113199661D02*
X123720219Y-112897280D01*
X123569028Y-113199661D02*
X123569028Y-112564661D01*
X123810933Y-112564661D01*
X123871409Y-112594900D01*
X123901647Y-112625138D01*
X123931885Y-112685614D01*
X123931885Y-112776328D01*
X123901647Y-112836804D01*
X123871409Y-112867042D01*
X123810933Y-112897280D01*
X123569028Y-112897280D01*
X124536647Y-113199661D02*
X124173790Y-113199661D01*
X124355219Y-113199661D02*
X124355219Y-112564661D01*
X124294742Y-112655376D01*
X124234266Y-112715852D01*
X124173790Y-112746090D01*
X125141409Y-113199661D02*
X124778552Y-113199661D01*
X124959980Y-113199661D02*
X124959980Y-112564661D01*
X124899504Y-112655376D01*
X124839028Y-112715852D01*
X124778552Y-112746090D01*
%TO.C,C15*%
X137446885Y-72220614D02*
X137477123Y-72250852D01*
X137507361Y-72341566D01*
X137507361Y-72402042D01*
X137477123Y-72492757D01*
X137416647Y-72553233D01*
X137356171Y-72583471D01*
X137235219Y-72613709D01*
X137144504Y-72613709D01*
X137023552Y-72583471D01*
X136963076Y-72553233D01*
X136902600Y-72492757D01*
X136872361Y-72402042D01*
X136872361Y-72341566D01*
X136902600Y-72250852D01*
X136932838Y-72220614D01*
X137507361Y-71615852D02*
X137507361Y-71978709D01*
X137507361Y-71797280D02*
X136872361Y-71797280D01*
X136963076Y-71857757D01*
X137023552Y-71918233D01*
X137053790Y-71978709D01*
X136872361Y-71041328D02*
X136872361Y-71343709D01*
X137174742Y-71373947D01*
X137144504Y-71343709D01*
X137114266Y-71283233D01*
X137114266Y-71132042D01*
X137144504Y-71071566D01*
X137174742Y-71041328D01*
X137235219Y-71011090D01*
X137386409Y-71011090D01*
X137446885Y-71041328D01*
X137477123Y-71071566D01*
X137507361Y-71132042D01*
X137507361Y-71283233D01*
X137477123Y-71343709D01*
X137446885Y-71373947D01*
%TO.C,F9*%
X119285671Y-123716400D02*
X119285671Y-123970400D01*
X119684814Y-123970400D02*
X118922814Y-123970400D01*
X118922814Y-123607542D01*
X119684814Y-123280971D02*
X119684814Y-123135828D01*
X119648528Y-123063257D01*
X119612242Y-123026971D01*
X119503385Y-122954400D01*
X119358242Y-122918114D01*
X119067957Y-122918114D01*
X118995385Y-122954400D01*
X118959100Y-122990685D01*
X118922814Y-123063257D01*
X118922814Y-123208400D01*
X118959100Y-123280971D01*
X118995385Y-123317257D01*
X119067957Y-123353542D01*
X119249385Y-123353542D01*
X119321957Y-123317257D01*
X119358242Y-123280971D01*
X119394528Y-123208400D01*
X119394528Y-123063257D01*
X119358242Y-122990685D01*
X119321957Y-122954400D01*
X119249385Y-122918114D01*
D15*
%TO.C,P3*%
X142382719Y-80086923D02*
X142382719Y-78816923D01*
X142866528Y-78816923D01*
X142987480Y-78877400D01*
X143047957Y-78937876D01*
X143108433Y-79058828D01*
X143108433Y-79240257D01*
X143047957Y-79361209D01*
X142987480Y-79421685D01*
X142866528Y-79482161D01*
X142382719Y-79482161D01*
X143531766Y-78816923D02*
X144317957Y-78816923D01*
X143894623Y-79300733D01*
X144076052Y-79300733D01*
X144197004Y-79361209D01*
X144257480Y-79421685D01*
X144317957Y-79542638D01*
X144317957Y-79845019D01*
X144257480Y-79965971D01*
X144197004Y-80026447D01*
X144076052Y-80086923D01*
X143713195Y-80086923D01*
X143592242Y-80026447D01*
X143531766Y-79965971D01*
D13*
%TO.C,U2*%
X133286290Y-88564661D02*
X133286290Y-89078709D01*
X133316528Y-89139185D01*
X133346766Y-89169423D01*
X133407242Y-89199661D01*
X133528195Y-89199661D01*
X133588671Y-89169423D01*
X133618909Y-89139185D01*
X133649147Y-89078709D01*
X133649147Y-88564661D01*
X133921290Y-88625138D02*
X133951528Y-88594900D01*
X134012004Y-88564661D01*
X134163195Y-88564661D01*
X134223671Y-88594900D01*
X134253909Y-88625138D01*
X134284147Y-88685614D01*
X134284147Y-88746090D01*
X134253909Y-88836804D01*
X133891052Y-89199661D01*
X134284147Y-89199661D01*
D12*
%TO.C,F6*%
X160946100Y-126977971D02*
X160692100Y-126977971D01*
X160692100Y-127377114D02*
X160692100Y-126615114D01*
X161054957Y-126615114D01*
X161671814Y-126615114D02*
X161526671Y-126615114D01*
X161454100Y-126651400D01*
X161417814Y-126687685D01*
X161345242Y-126796542D01*
X161308957Y-126941685D01*
X161308957Y-127231971D01*
X161345242Y-127304542D01*
X161381528Y-127340828D01*
X161454100Y-127377114D01*
X161599242Y-127377114D01*
X161671814Y-127340828D01*
X161708100Y-127304542D01*
X161744385Y-127231971D01*
X161744385Y-127050542D01*
X161708100Y-126977971D01*
X161671814Y-126941685D01*
X161599242Y-126905400D01*
X161454100Y-126905400D01*
X161381528Y-126941685D01*
X161345242Y-126977971D01*
X161308957Y-127050542D01*
%TO.C,F2*%
X157456100Y-87377971D02*
X157202100Y-87377971D01*
X157202100Y-87777114D02*
X157202100Y-87015114D01*
X157564957Y-87015114D01*
X157818957Y-87087685D02*
X157855242Y-87051400D01*
X157927814Y-87015114D01*
X158109242Y-87015114D01*
X158181814Y-87051400D01*
X158218100Y-87087685D01*
X158254385Y-87160257D01*
X158254385Y-87232828D01*
X158218100Y-87341685D01*
X157782671Y-87777114D01*
X158254385Y-87777114D01*
D14*
%TO.C,Sw1*%
X129454861Y-71608114D02*
X129502480Y-71465257D01*
X129502480Y-71227161D01*
X129454861Y-71131923D01*
X129407242Y-71084304D01*
X129312004Y-71036685D01*
X129216766Y-71036685D01*
X129121528Y-71084304D01*
X129073909Y-71131923D01*
X129026290Y-71227161D01*
X128978671Y-71417638D01*
X128931052Y-71512876D01*
X128883433Y-71560495D01*
X128788195Y-71608114D01*
X128692957Y-71608114D01*
X128597719Y-71560495D01*
X128550100Y-71512876D01*
X128502480Y-71417638D01*
X128502480Y-71179542D01*
X128550100Y-71036685D01*
X128835814Y-70703352D02*
X129502480Y-70512876D01*
X129026290Y-70322400D01*
X129502480Y-70131923D01*
X128835814Y-69941447D01*
X129502480Y-69036685D02*
X129502480Y-69608114D01*
X129502480Y-69322400D02*
X128502480Y-69322400D01*
X128645338Y-69417638D01*
X128740576Y-69512876D01*
X128788195Y-69608114D01*
D12*
%TO.C,D12*%
X124769028Y-112279661D02*
X124769028Y-111644661D01*
X124920219Y-111644661D01*
X125010933Y-111674900D01*
X125071409Y-111735376D01*
X125101647Y-111795852D01*
X125131885Y-111916804D01*
X125131885Y-112007519D01*
X125101647Y-112128471D01*
X125071409Y-112188947D01*
X125010933Y-112249423D01*
X124920219Y-112279661D01*
X124769028Y-112279661D01*
X125736647Y-112279661D02*
X125373790Y-112279661D01*
X125555219Y-112279661D02*
X125555219Y-111644661D01*
X125494742Y-111735376D01*
X125434266Y-111795852D01*
X125373790Y-111826090D01*
X125978552Y-111705138D02*
X126008790Y-111674900D01*
X126069266Y-111644661D01*
X126220457Y-111644661D01*
X126280933Y-111674900D01*
X126311171Y-111705138D01*
X126341409Y-111765614D01*
X126341409Y-111826090D01*
X126311171Y-111916804D01*
X125948314Y-112279661D01*
X126341409Y-112279661D01*
%TO.C,R3*%
X145357361Y-91308233D02*
X145054980Y-91519900D01*
X145357361Y-91671090D02*
X144722361Y-91671090D01*
X144722361Y-91429185D01*
X144752600Y-91368709D01*
X144782838Y-91338471D01*
X144843314Y-91308233D01*
X144934028Y-91308233D01*
X144994504Y-91338471D01*
X145024742Y-91368709D01*
X145054980Y-91429185D01*
X145054980Y-91671090D01*
X144722361Y-91096566D02*
X144722361Y-90703471D01*
X144964266Y-90915138D01*
X144964266Y-90824423D01*
X144994504Y-90763947D01*
X145024742Y-90733709D01*
X145085219Y-90703471D01*
X145236409Y-90703471D01*
X145296885Y-90733709D01*
X145327123Y-90763947D01*
X145357361Y-90824423D01*
X145357361Y-91005852D01*
X145327123Y-91066328D01*
X145296885Y-91096566D01*
%TO.C,C10*%
X149726885Y-115110614D02*
X149757123Y-115140852D01*
X149787361Y-115231566D01*
X149787361Y-115292042D01*
X149757123Y-115382757D01*
X149696647Y-115443233D01*
X149636171Y-115473471D01*
X149515219Y-115503709D01*
X149424504Y-115503709D01*
X149303552Y-115473471D01*
X149243076Y-115443233D01*
X149182600Y-115382757D01*
X149152361Y-115292042D01*
X149152361Y-115231566D01*
X149182600Y-115140852D01*
X149212838Y-115110614D01*
X149787361Y-114505852D02*
X149787361Y-114868709D01*
X149787361Y-114687280D02*
X149152361Y-114687280D01*
X149243076Y-114747757D01*
X149303552Y-114808233D01*
X149333790Y-114868709D01*
X149152361Y-114112757D02*
X149152361Y-114052280D01*
X149182600Y-113991804D01*
X149212838Y-113961566D01*
X149273314Y-113931328D01*
X149394266Y-113901090D01*
X149545457Y-113901090D01*
X149666409Y-113931328D01*
X149726885Y-113961566D01*
X149757123Y-113991804D01*
X149787361Y-114052280D01*
X149787361Y-114112757D01*
X149757123Y-114173233D01*
X149726885Y-114203471D01*
X149666409Y-114233709D01*
X149545457Y-114263947D01*
X149394266Y-114263947D01*
X149273314Y-114233709D01*
X149212838Y-114203471D01*
X149182600Y-114173233D01*
X149152361Y-114112757D01*
D11*
%TO.C,P12*%
X131155814Y-60584780D02*
X131155814Y-59584780D01*
X131536766Y-59584780D01*
X131632004Y-59632400D01*
X131679623Y-59680019D01*
X131727242Y-59775257D01*
X131727242Y-59918114D01*
X131679623Y-60013352D01*
X131632004Y-60060971D01*
X131536766Y-60108590D01*
X131155814Y-60108590D01*
X132679623Y-60584780D02*
X132108195Y-60584780D01*
X132393909Y-60584780D02*
X132393909Y-59584780D01*
X132298671Y-59727638D01*
X132203433Y-59822876D01*
X132108195Y-59870495D01*
X133060576Y-59680019D02*
X133108195Y-59632400D01*
X133203433Y-59584780D01*
X133441528Y-59584780D01*
X133536766Y-59632400D01*
X133584385Y-59680019D01*
X133632004Y-59775257D01*
X133632004Y-59870495D01*
X133584385Y-60013352D01*
X133012957Y-60584780D01*
X133632004Y-60584780D01*
X130675814Y-59684780D02*
X130104385Y-59684780D01*
X130390100Y-59684780D02*
X130390100Y-58684780D01*
X130294861Y-58827638D01*
X130199623Y-58922876D01*
X130104385Y-58970495D01*
D16*
%TO.C,U9*%
X129089242Y-108676471D02*
X129089242Y-109601757D01*
X129143671Y-109710614D01*
X129198100Y-109765042D01*
X129306957Y-109819471D01*
X129524671Y-109819471D01*
X129633528Y-109765042D01*
X129687957Y-109710614D01*
X129742385Y-109601757D01*
X129742385Y-108676471D01*
X130341100Y-109819471D02*
X130558814Y-109819471D01*
X130667671Y-109765042D01*
X130722100Y-109710614D01*
X130830957Y-109547328D01*
X130885385Y-109329614D01*
X130885385Y-108894185D01*
X130830957Y-108785328D01*
X130776528Y-108730900D01*
X130667671Y-108676471D01*
X130449957Y-108676471D01*
X130341100Y-108730900D01*
X130286671Y-108785328D01*
X130232242Y-108894185D01*
X130232242Y-109166328D01*
X130286671Y-109275185D01*
X130341100Y-109329614D01*
X130449957Y-109384042D01*
X130667671Y-109384042D01*
X130776528Y-109329614D01*
X130830957Y-109275185D01*
X130885385Y-109166328D01*
D12*
%TO.C,R27*%
X137297361Y-78650614D02*
X136994980Y-78862280D01*
X137297361Y-79013471D02*
X136662361Y-79013471D01*
X136662361Y-78771566D01*
X136692600Y-78711090D01*
X136722838Y-78680852D01*
X136783314Y-78650614D01*
X136874028Y-78650614D01*
X136934504Y-78680852D01*
X136964742Y-78711090D01*
X136994980Y-78771566D01*
X136994980Y-79013471D01*
X136722838Y-78408709D02*
X136692600Y-78378471D01*
X136662361Y-78317995D01*
X136662361Y-78166804D01*
X136692600Y-78106328D01*
X136722838Y-78076090D01*
X136783314Y-78045852D01*
X136843790Y-78045852D01*
X136934504Y-78076090D01*
X137297361Y-78438947D01*
X137297361Y-78045852D01*
X136662361Y-77834185D02*
X136662361Y-77410852D01*
X137297361Y-77682995D01*
%TO.C,C8*%
X127184266Y-104339185D02*
X127154028Y-104369423D01*
X127063314Y-104399661D01*
X127002838Y-104399661D01*
X126912123Y-104369423D01*
X126851647Y-104308947D01*
X126821409Y-104248471D01*
X126791171Y-104127519D01*
X126791171Y-104036804D01*
X126821409Y-103915852D01*
X126851647Y-103855376D01*
X126912123Y-103794900D01*
X127002838Y-103764661D01*
X127063314Y-103764661D01*
X127154028Y-103794900D01*
X127184266Y-103825138D01*
X127547123Y-104036804D02*
X127486647Y-104006566D01*
X127456409Y-103976328D01*
X127426171Y-103915852D01*
X127426171Y-103885614D01*
X127456409Y-103825138D01*
X127486647Y-103794900D01*
X127547123Y-103764661D01*
X127668076Y-103764661D01*
X127728552Y-103794900D01*
X127758790Y-103825138D01*
X127789028Y-103885614D01*
X127789028Y-103915852D01*
X127758790Y-103976328D01*
X127728552Y-104006566D01*
X127668076Y-104036804D01*
X127547123Y-104036804D01*
X127486647Y-104067042D01*
X127456409Y-104097280D01*
X127426171Y-104157757D01*
X127426171Y-104278709D01*
X127456409Y-104339185D01*
X127486647Y-104369423D01*
X127547123Y-104399661D01*
X127668076Y-104399661D01*
X127728552Y-104369423D01*
X127758790Y-104339185D01*
X127789028Y-104278709D01*
X127789028Y-104157757D01*
X127758790Y-104097280D01*
X127728552Y-104067042D01*
X127668076Y-104036804D01*
%TO.C,F1*%
X157436100Y-82817971D02*
X157182100Y-82817971D01*
X157182100Y-83217114D02*
X157182100Y-82455114D01*
X157544957Y-82455114D01*
X158234385Y-83217114D02*
X157798957Y-83217114D01*
X158016671Y-83217114D02*
X158016671Y-82455114D01*
X157944100Y-82563971D01*
X157871528Y-82636542D01*
X157798957Y-82672828D01*
%TO.C,R16*%
X121737361Y-71120614D02*
X121434980Y-71332280D01*
X121737361Y-71483471D02*
X121102361Y-71483471D01*
X121102361Y-71241566D01*
X121132600Y-71181090D01*
X121162838Y-71150852D01*
X121223314Y-71120614D01*
X121314028Y-71120614D01*
X121374504Y-71150852D01*
X121404742Y-71181090D01*
X121434980Y-71241566D01*
X121434980Y-71483471D01*
X121737361Y-70515852D02*
X121737361Y-70878709D01*
X121737361Y-70697280D02*
X121102361Y-70697280D01*
X121193076Y-70757757D01*
X121253552Y-70818233D01*
X121283790Y-70878709D01*
X121102361Y-69971566D02*
X121102361Y-70092519D01*
X121132600Y-70152995D01*
X121162838Y-70183233D01*
X121253552Y-70243709D01*
X121374504Y-70273947D01*
X121616409Y-70273947D01*
X121676885Y-70243709D01*
X121707123Y-70213471D01*
X121737361Y-70152995D01*
X121737361Y-70032042D01*
X121707123Y-69971566D01*
X121676885Y-69941328D01*
X121616409Y-69911090D01*
X121465219Y-69911090D01*
X121404742Y-69941328D01*
X121374504Y-69971566D01*
X121344266Y-70032042D01*
X121344266Y-70152995D01*
X121374504Y-70213471D01*
X121404742Y-70243709D01*
X121465219Y-70273947D01*
%TO.C,C4*%
X146144266Y-91749185D02*
X146114028Y-91779423D01*
X146023314Y-91809661D01*
X145962838Y-91809661D01*
X145872123Y-91779423D01*
X145811647Y-91718947D01*
X145781409Y-91658471D01*
X145751171Y-91537519D01*
X145751171Y-91446804D01*
X145781409Y-91325852D01*
X145811647Y-91265376D01*
X145872123Y-91204900D01*
X145962838Y-91174661D01*
X146023314Y-91174661D01*
X146114028Y-91204900D01*
X146144266Y-91235138D01*
X146688552Y-91386328D02*
X146688552Y-91809661D01*
X146537361Y-91144423D02*
X146386171Y-91597995D01*
X146779266Y-91597995D01*
%TO.C,R17*%
X121381885Y-85369661D02*
X121170219Y-85067280D01*
X121019028Y-85369661D02*
X121019028Y-84734661D01*
X121260933Y-84734661D01*
X121321409Y-84764900D01*
X121351647Y-84795138D01*
X121381885Y-84855614D01*
X121381885Y-84946328D01*
X121351647Y-85006804D01*
X121321409Y-85037042D01*
X121260933Y-85067280D01*
X121019028Y-85067280D01*
X121986647Y-85369661D02*
X121623790Y-85369661D01*
X121805219Y-85369661D02*
X121805219Y-84734661D01*
X121744742Y-84825376D01*
X121684266Y-84885852D01*
X121623790Y-84916090D01*
X122198314Y-84734661D02*
X122621647Y-84734661D01*
X122349504Y-85369661D01*
%TO.C,R10*%
X152787361Y-113370614D02*
X152484980Y-113582280D01*
X152787361Y-113733471D02*
X152152361Y-113733471D01*
X152152361Y-113491566D01*
X152182600Y-113431090D01*
X152212838Y-113400852D01*
X152273314Y-113370614D01*
X152364028Y-113370614D01*
X152424504Y-113400852D01*
X152454742Y-113431090D01*
X152484980Y-113491566D01*
X152484980Y-113733471D01*
X152787361Y-112765852D02*
X152787361Y-113128709D01*
X152787361Y-112947280D02*
X152152361Y-112947280D01*
X152243076Y-113007757D01*
X152303552Y-113068233D01*
X152333790Y-113128709D01*
X152152361Y-112372757D02*
X152152361Y-112312280D01*
X152182600Y-112251804D01*
X152212838Y-112221566D01*
X152273314Y-112191328D01*
X152394266Y-112161090D01*
X152545457Y-112161090D01*
X152666409Y-112191328D01*
X152726885Y-112221566D01*
X152757123Y-112251804D01*
X152787361Y-112312280D01*
X152787361Y-112372757D01*
X152757123Y-112433233D01*
X152726885Y-112463471D01*
X152666409Y-112493709D01*
X152545457Y-112523947D01*
X152394266Y-112523947D01*
X152273314Y-112493709D01*
X152212838Y-112463471D01*
X152182600Y-112433233D01*
X152152361Y-112372757D01*
D13*
%TO.C,D2*%
X151321409Y-94599661D02*
X151321409Y-93964661D01*
X151472600Y-93964661D01*
X151563314Y-93994900D01*
X151623790Y-94055376D01*
X151654028Y-94115852D01*
X151684266Y-94236804D01*
X151684266Y-94327519D01*
X151654028Y-94448471D01*
X151623790Y-94508947D01*
X151563314Y-94569423D01*
X151472600Y-94599661D01*
X151321409Y-94599661D01*
X151926171Y-94025138D02*
X151956409Y-93994900D01*
X152016885Y-93964661D01*
X152168076Y-93964661D01*
X152228552Y-93994900D01*
X152258790Y-94025138D01*
X152289028Y-94085614D01*
X152289028Y-94146090D01*
X152258790Y-94236804D01*
X151895933Y-94599661D01*
X152289028Y-94599661D01*
D12*
%TO.C,C5*%
X129086885Y-94218233D02*
X129117123Y-94248471D01*
X129147361Y-94339185D01*
X129147361Y-94399661D01*
X129117123Y-94490376D01*
X129056647Y-94550852D01*
X128996171Y-94581090D01*
X128875219Y-94611328D01*
X128784504Y-94611328D01*
X128663552Y-94581090D01*
X128603076Y-94550852D01*
X128542600Y-94490376D01*
X128512361Y-94399661D01*
X128512361Y-94339185D01*
X128542600Y-94248471D01*
X128572838Y-94218233D01*
X128512361Y-93643709D02*
X128512361Y-93946090D01*
X128814742Y-93976328D01*
X128784504Y-93946090D01*
X128754266Y-93885614D01*
X128754266Y-93734423D01*
X128784504Y-93673947D01*
X128814742Y-93643709D01*
X128875219Y-93613471D01*
X129026409Y-93613471D01*
X129086885Y-93643709D01*
X129117123Y-93673947D01*
X129147361Y-93734423D01*
X129147361Y-93885614D01*
X129117123Y-93946090D01*
X129086885Y-93976328D01*
%TO.C,F10*%
X125685671Y-124199257D02*
X125685671Y-124453257D01*
X126084814Y-124453257D02*
X125322814Y-124453257D01*
X125322814Y-124090400D01*
X126084814Y-123400971D02*
X126084814Y-123836400D01*
X126084814Y-123618685D02*
X125322814Y-123618685D01*
X125431671Y-123691257D01*
X125504242Y-123763828D01*
X125540528Y-123836400D01*
X125322814Y-122929257D02*
X125322814Y-122856685D01*
X125359100Y-122784114D01*
X125395385Y-122747828D01*
X125467957Y-122711542D01*
X125613100Y-122675257D01*
X125794528Y-122675257D01*
X125939671Y-122711542D01*
X126012242Y-122747828D01*
X126048528Y-122784114D01*
X126084814Y-122856685D01*
X126084814Y-122929257D01*
X126048528Y-123001828D01*
X126012242Y-123038114D01*
X125939671Y-123074400D01*
X125794528Y-123110685D01*
X125613100Y-123110685D01*
X125467957Y-123074400D01*
X125395385Y-123038114D01*
X125359100Y-123001828D01*
X125322814Y-122929257D01*
%TO.C,C2*%
X149544266Y-81649185D02*
X149514028Y-81679423D01*
X149423314Y-81709661D01*
X149362838Y-81709661D01*
X149272123Y-81679423D01*
X149211647Y-81618947D01*
X149181409Y-81558471D01*
X149151171Y-81437519D01*
X149151171Y-81346804D01*
X149181409Y-81225852D01*
X149211647Y-81165376D01*
X149272123Y-81104900D01*
X149362838Y-81074661D01*
X149423314Y-81074661D01*
X149514028Y-81104900D01*
X149544266Y-81135138D01*
X149786171Y-81135138D02*
X149816409Y-81104900D01*
X149876885Y-81074661D01*
X150028076Y-81074661D01*
X150088552Y-81104900D01*
X150118790Y-81135138D01*
X150149028Y-81195614D01*
X150149028Y-81256090D01*
X150118790Y-81346804D01*
X149755933Y-81709661D01*
X150149028Y-81709661D01*
%TO.C,C6*%
X131796885Y-107938233D02*
X131827123Y-107968471D01*
X131857361Y-108059185D01*
X131857361Y-108119661D01*
X131827123Y-108210376D01*
X131766647Y-108270852D01*
X131706171Y-108301090D01*
X131585219Y-108331328D01*
X131494504Y-108331328D01*
X131373552Y-108301090D01*
X131313076Y-108270852D01*
X131252600Y-108210376D01*
X131222361Y-108119661D01*
X131222361Y-108059185D01*
X131252600Y-107968471D01*
X131282838Y-107938233D01*
X131222361Y-107393947D02*
X131222361Y-107514900D01*
X131252600Y-107575376D01*
X131282838Y-107605614D01*
X131373552Y-107666090D01*
X131494504Y-107696328D01*
X131736409Y-107696328D01*
X131796885Y-107666090D01*
X131827123Y-107635852D01*
X131857361Y-107575376D01*
X131857361Y-107454423D01*
X131827123Y-107393947D01*
X131796885Y-107363709D01*
X131736409Y-107333471D01*
X131585219Y-107333471D01*
X131524742Y-107363709D01*
X131494504Y-107393947D01*
X131464266Y-107454423D01*
X131464266Y-107575376D01*
X131494504Y-107635852D01*
X131524742Y-107666090D01*
X131585219Y-107696328D01*
D14*
%TO.C,Sw2*%
X125424861Y-71728114D02*
X125472480Y-71585257D01*
X125472480Y-71347161D01*
X125424861Y-71251923D01*
X125377242Y-71204304D01*
X125282004Y-71156685D01*
X125186766Y-71156685D01*
X125091528Y-71204304D01*
X125043909Y-71251923D01*
X124996290Y-71347161D01*
X124948671Y-71537638D01*
X124901052Y-71632876D01*
X124853433Y-71680495D01*
X124758195Y-71728114D01*
X124662957Y-71728114D01*
X124567719Y-71680495D01*
X124520100Y-71632876D01*
X124472480Y-71537638D01*
X124472480Y-71299542D01*
X124520100Y-71156685D01*
X124805814Y-70823352D02*
X125472480Y-70632876D01*
X124996290Y-70442400D01*
X125472480Y-70251923D01*
X124805814Y-70061447D01*
X124567719Y-69728114D02*
X124520100Y-69680495D01*
X124472480Y-69585257D01*
X124472480Y-69347161D01*
X124520100Y-69251923D01*
X124567719Y-69204304D01*
X124662957Y-69156685D01*
X124758195Y-69156685D01*
X124901052Y-69204304D01*
X125472480Y-69775733D01*
X125472480Y-69156685D01*
D12*
%TO.C,C11*%
X126276885Y-76640614D02*
X126307123Y-76670852D01*
X126337361Y-76761566D01*
X126337361Y-76822042D01*
X126307123Y-76912757D01*
X126246647Y-76973233D01*
X126186171Y-77003471D01*
X126065219Y-77033709D01*
X125974504Y-77033709D01*
X125853552Y-77003471D01*
X125793076Y-76973233D01*
X125732600Y-76912757D01*
X125702361Y-76822042D01*
X125702361Y-76761566D01*
X125732600Y-76670852D01*
X125762838Y-76640614D01*
X126337361Y-76035852D02*
X126337361Y-76398709D01*
X126337361Y-76217280D02*
X125702361Y-76217280D01*
X125793076Y-76277757D01*
X125853552Y-76338233D01*
X125883790Y-76398709D01*
X126337361Y-75431090D02*
X126337361Y-75793947D01*
X126337361Y-75612519D02*
X125702361Y-75612519D01*
X125793076Y-75672995D01*
X125853552Y-75733471D01*
X125883790Y-75793947D01*
%TO.C,R21*%
X144160242Y-74217114D02*
X143906242Y-73854257D01*
X143724814Y-74217114D02*
X143724814Y-73455114D01*
X144015100Y-73455114D01*
X144087671Y-73491400D01*
X144123957Y-73527685D01*
X144160242Y-73600257D01*
X144160242Y-73709114D01*
X144123957Y-73781685D01*
X144087671Y-73817971D01*
X144015100Y-73854257D01*
X143724814Y-73854257D01*
X144450528Y-73527685D02*
X144486814Y-73491400D01*
X144559385Y-73455114D01*
X144740814Y-73455114D01*
X144813385Y-73491400D01*
X144849671Y-73527685D01*
X144885957Y-73600257D01*
X144885957Y-73672828D01*
X144849671Y-73781685D01*
X144414242Y-74217114D01*
X144885957Y-74217114D01*
X145611671Y-74217114D02*
X145176242Y-74217114D01*
X145393957Y-74217114D02*
X145393957Y-73455114D01*
X145321385Y-73563971D01*
X145248814Y-73636542D01*
X145176242Y-73672828D01*
%TO.C,R15*%
X121751885Y-109819661D02*
X121540219Y-109517280D01*
X121389028Y-109819661D02*
X121389028Y-109184661D01*
X121630933Y-109184661D01*
X121691409Y-109214900D01*
X121721647Y-109245138D01*
X121751885Y-109305614D01*
X121751885Y-109396328D01*
X121721647Y-109456804D01*
X121691409Y-109487042D01*
X121630933Y-109517280D01*
X121389028Y-109517280D01*
X122356647Y-109819661D02*
X121993790Y-109819661D01*
X122175219Y-109819661D02*
X122175219Y-109184661D01*
X122114742Y-109275376D01*
X122054266Y-109335852D01*
X121993790Y-109366090D01*
X122931171Y-109184661D02*
X122628790Y-109184661D01*
X122598552Y-109487042D01*
X122628790Y-109456804D01*
X122689266Y-109426566D01*
X122840457Y-109426566D01*
X122900933Y-109456804D01*
X122931171Y-109487042D01*
X122961409Y-109547519D01*
X122961409Y-109698709D01*
X122931171Y-109759185D01*
X122900933Y-109789423D01*
X122840457Y-109819661D01*
X122689266Y-109819661D01*
X122628790Y-109789423D01*
X122598552Y-109759185D01*
%TO.C,C9*%
X143276885Y-100858233D02*
X143307123Y-100888471D01*
X143337361Y-100979185D01*
X143337361Y-101039661D01*
X143307123Y-101130376D01*
X143246647Y-101190852D01*
X143186171Y-101221090D01*
X143065219Y-101251328D01*
X142974504Y-101251328D01*
X142853552Y-101221090D01*
X142793076Y-101190852D01*
X142732600Y-101130376D01*
X142702361Y-101039661D01*
X142702361Y-100979185D01*
X142732600Y-100888471D01*
X142762838Y-100858233D01*
X143337361Y-100555852D02*
X143337361Y-100434900D01*
X143307123Y-100374423D01*
X143276885Y-100344185D01*
X143186171Y-100283709D01*
X143065219Y-100253471D01*
X142823314Y-100253471D01*
X142762838Y-100283709D01*
X142732600Y-100313947D01*
X142702361Y-100374423D01*
X142702361Y-100495376D01*
X142732600Y-100555852D01*
X142762838Y-100586090D01*
X142823314Y-100616328D01*
X142974504Y-100616328D01*
X143034980Y-100586090D01*
X143065219Y-100555852D01*
X143095457Y-100495376D01*
X143095457Y-100374423D01*
X143065219Y-100313947D01*
X143034980Y-100283709D01*
X142974504Y-100253471D01*
%TO.C,R30*%
X121821885Y-86949661D02*
X121610219Y-86647280D01*
X121459028Y-86949661D02*
X121459028Y-86314661D01*
X121700933Y-86314661D01*
X121761409Y-86344900D01*
X121791647Y-86375138D01*
X121821885Y-86435614D01*
X121821885Y-86526328D01*
X121791647Y-86586804D01*
X121761409Y-86617042D01*
X121700933Y-86647280D01*
X121459028Y-86647280D01*
X122033552Y-86314661D02*
X122426647Y-86314661D01*
X122214980Y-86556566D01*
X122305695Y-86556566D01*
X122366171Y-86586804D01*
X122396409Y-86617042D01*
X122426647Y-86677519D01*
X122426647Y-86828709D01*
X122396409Y-86889185D01*
X122366171Y-86919423D01*
X122305695Y-86949661D01*
X122124266Y-86949661D01*
X122063790Y-86919423D01*
X122033552Y-86889185D01*
X122819742Y-86314661D02*
X122880219Y-86314661D01*
X122940695Y-86344900D01*
X122970933Y-86375138D01*
X123001171Y-86435614D01*
X123031409Y-86556566D01*
X123031409Y-86707757D01*
X123001171Y-86828709D01*
X122970933Y-86889185D01*
X122940695Y-86919423D01*
X122880219Y-86949661D01*
X122819742Y-86949661D01*
X122759266Y-86919423D01*
X122729028Y-86889185D01*
X122698790Y-86828709D01*
X122668552Y-86707757D01*
X122668552Y-86556566D01*
X122698790Y-86435614D01*
X122729028Y-86375138D01*
X122759266Y-86344900D01*
X122819742Y-86314661D01*
%TO.C,F3*%
X153865671Y-99286400D02*
X153865671Y-99540400D01*
X154264814Y-99540400D02*
X153502814Y-99540400D01*
X153502814Y-99177542D01*
X153502814Y-98959828D02*
X153502814Y-98488114D01*
X153793100Y-98742114D01*
X153793100Y-98633257D01*
X153829385Y-98560685D01*
X153865671Y-98524400D01*
X153938242Y-98488114D01*
X154119671Y-98488114D01*
X154192242Y-98524400D01*
X154228528Y-98560685D01*
X154264814Y-98633257D01*
X154264814Y-98850971D01*
X154228528Y-98923542D01*
X154192242Y-98959828D01*
D15*
%TO.C,P4*%
X144384623Y-88299780D02*
X143114623Y-88299780D01*
X143114623Y-87815971D01*
X143175100Y-87695019D01*
X143235576Y-87634542D01*
X143356528Y-87574066D01*
X143537957Y-87574066D01*
X143658909Y-87634542D01*
X143719385Y-87695019D01*
X143779861Y-87815971D01*
X143779861Y-88299780D01*
X143537957Y-86485495D02*
X144384623Y-86485495D01*
X143054147Y-86787876D02*
X143961290Y-87090257D01*
X143961290Y-86304066D01*
D12*
%TO.C,R28*%
X124251885Y-89259661D02*
X124040219Y-88957280D01*
X123889028Y-89259661D02*
X123889028Y-88624661D01*
X124130933Y-88624661D01*
X124191409Y-88654900D01*
X124221647Y-88685138D01*
X124251885Y-88745614D01*
X124251885Y-88836328D01*
X124221647Y-88896804D01*
X124191409Y-88927042D01*
X124130933Y-88957280D01*
X123889028Y-88957280D01*
X124493790Y-88685138D02*
X124524028Y-88654900D01*
X124584504Y-88624661D01*
X124735695Y-88624661D01*
X124796171Y-88654900D01*
X124826409Y-88685138D01*
X124856647Y-88745614D01*
X124856647Y-88806090D01*
X124826409Y-88896804D01*
X124463552Y-89259661D01*
X124856647Y-89259661D01*
X125219504Y-88896804D02*
X125159028Y-88866566D01*
X125128790Y-88836328D01*
X125098552Y-88775852D01*
X125098552Y-88745614D01*
X125128790Y-88685138D01*
X125159028Y-88654900D01*
X125219504Y-88624661D01*
X125340457Y-88624661D01*
X125400933Y-88654900D01*
X125431171Y-88685138D01*
X125461409Y-88745614D01*
X125461409Y-88775852D01*
X125431171Y-88836328D01*
X125400933Y-88866566D01*
X125340457Y-88896804D01*
X125219504Y-88896804D01*
X125159028Y-88927042D01*
X125128790Y-88957280D01*
X125098552Y-89017757D01*
X125098552Y-89138709D01*
X125128790Y-89199185D01*
X125159028Y-89229423D01*
X125219504Y-89259661D01*
X125340457Y-89259661D01*
X125400933Y-89229423D01*
X125431171Y-89199185D01*
X125461409Y-89138709D01*
X125461409Y-89017757D01*
X125431171Y-88957280D01*
X125400933Y-88927042D01*
X125340457Y-88896804D01*
D14*
%TO.C,U5*%
X129008195Y-81384780D02*
X129008195Y-82194304D01*
X129055814Y-82289542D01*
X129103433Y-82337161D01*
X129198671Y-82384780D01*
X129389147Y-82384780D01*
X129484385Y-82337161D01*
X129532004Y-82289542D01*
X129579623Y-82194304D01*
X129579623Y-81384780D01*
X130532004Y-81384780D02*
X130055814Y-81384780D01*
X130008195Y-81860971D01*
X130055814Y-81813352D01*
X130151052Y-81765733D01*
X130389147Y-81765733D01*
X130484385Y-81813352D01*
X130532004Y-81860971D01*
X130579623Y-81956209D01*
X130579623Y-82194304D01*
X130532004Y-82289542D01*
X130484385Y-82337161D01*
X130389147Y-82384780D01*
X130151052Y-82384780D01*
X130055814Y-82337161D01*
X130008195Y-82289542D01*
D12*
%TO.C,R14*%
X121771885Y-107349661D02*
X121560219Y-107047280D01*
X121409028Y-107349661D02*
X121409028Y-106714661D01*
X121650933Y-106714661D01*
X121711409Y-106744900D01*
X121741647Y-106775138D01*
X121771885Y-106835614D01*
X121771885Y-106926328D01*
X121741647Y-106986804D01*
X121711409Y-107017042D01*
X121650933Y-107047280D01*
X121409028Y-107047280D01*
X122376647Y-107349661D02*
X122013790Y-107349661D01*
X122195219Y-107349661D02*
X122195219Y-106714661D01*
X122134742Y-106805376D01*
X122074266Y-106865852D01*
X122013790Y-106896090D01*
X122920933Y-106926328D02*
X122920933Y-107349661D01*
X122769742Y-106684423D02*
X122618552Y-107137995D01*
X123011647Y-107137995D01*
D15*
%TO.C,P5*%
X138444623Y-88859780D02*
X137174623Y-88859780D01*
X137174623Y-88375971D01*
X137235100Y-88255019D01*
X137295576Y-88194542D01*
X137416528Y-88134066D01*
X137597957Y-88134066D01*
X137718909Y-88194542D01*
X137779385Y-88255019D01*
X137839861Y-88375971D01*
X137839861Y-88859780D01*
X137174623Y-86985019D02*
X137174623Y-87589780D01*
X137779385Y-87650257D01*
X137718909Y-87589780D01*
X137658433Y-87468828D01*
X137658433Y-87166447D01*
X137718909Y-87045495D01*
X137779385Y-86985019D01*
X137900338Y-86924542D01*
X138202719Y-86924542D01*
X138323671Y-86985019D01*
X138384147Y-87045495D01*
X138444623Y-87166447D01*
X138444623Y-87468828D01*
X138384147Y-87589780D01*
X138323671Y-87650257D01*
D16*
%TO.C,U4*%
X145084171Y-104733257D02*
X146009457Y-104733257D01*
X146118314Y-104678828D01*
X146172742Y-104624400D01*
X146227171Y-104515542D01*
X146227171Y-104297828D01*
X146172742Y-104188971D01*
X146118314Y-104134542D01*
X146009457Y-104080114D01*
X145084171Y-104080114D01*
X145465171Y-103045971D02*
X146227171Y-103045971D01*
X145029742Y-103318114D02*
X145846171Y-103590257D01*
X145846171Y-102882685D01*
D12*
%TO.C,R25*%
X140957361Y-116640614D02*
X140654980Y-116852280D01*
X140957361Y-117003471D02*
X140322361Y-117003471D01*
X140322361Y-116761566D01*
X140352600Y-116701090D01*
X140382838Y-116670852D01*
X140443314Y-116640614D01*
X140534028Y-116640614D01*
X140594504Y-116670852D01*
X140624742Y-116701090D01*
X140654980Y-116761566D01*
X140654980Y-117003471D01*
X140382838Y-116398709D02*
X140352600Y-116368471D01*
X140322361Y-116307995D01*
X140322361Y-116156804D01*
X140352600Y-116096328D01*
X140382838Y-116066090D01*
X140443314Y-116035852D01*
X140503790Y-116035852D01*
X140594504Y-116066090D01*
X140957361Y-116428947D01*
X140957361Y-116035852D01*
X140322361Y-115461328D02*
X140322361Y-115763709D01*
X140624742Y-115793947D01*
X140594504Y-115763709D01*
X140564266Y-115703233D01*
X140564266Y-115552042D01*
X140594504Y-115491566D01*
X140624742Y-115461328D01*
X140685219Y-115431090D01*
X140836409Y-115431090D01*
X140896885Y-115461328D01*
X140927123Y-115491566D01*
X140957361Y-115552042D01*
X140957361Y-115703233D01*
X140927123Y-115763709D01*
X140896885Y-115793947D01*
%TO.C,R26*%
X136987361Y-116550614D02*
X136684980Y-116762280D01*
X136987361Y-116913471D02*
X136352361Y-116913471D01*
X136352361Y-116671566D01*
X136382600Y-116611090D01*
X136412838Y-116580852D01*
X136473314Y-116550614D01*
X136564028Y-116550614D01*
X136624504Y-116580852D01*
X136654742Y-116611090D01*
X136684980Y-116671566D01*
X136684980Y-116913471D01*
X136412838Y-116308709D02*
X136382600Y-116278471D01*
X136352361Y-116217995D01*
X136352361Y-116066804D01*
X136382600Y-116006328D01*
X136412838Y-115976090D01*
X136473314Y-115945852D01*
X136533790Y-115945852D01*
X136624504Y-115976090D01*
X136987361Y-116338947D01*
X136987361Y-115945852D01*
X136352361Y-115401566D02*
X136352361Y-115522519D01*
X136382600Y-115582995D01*
X136412838Y-115613233D01*
X136503552Y-115673709D01*
X136624504Y-115703947D01*
X136866409Y-115703947D01*
X136926885Y-115673709D01*
X136957123Y-115643471D01*
X136987361Y-115582995D01*
X136987361Y-115462042D01*
X136957123Y-115401566D01*
X136926885Y-115371328D01*
X136866409Y-115341090D01*
X136715219Y-115341090D01*
X136654742Y-115371328D01*
X136624504Y-115401566D01*
X136594266Y-115462042D01*
X136594266Y-115582995D01*
X136624504Y-115643471D01*
X136654742Y-115673709D01*
X136715219Y-115703947D01*
D11*
%TO.C,P1*%
X157702004Y-62214780D02*
X157702004Y-61214780D01*
X158082957Y-61214780D01*
X158178195Y-61262400D01*
X158225814Y-61310019D01*
X158273433Y-61405257D01*
X158273433Y-61548114D01*
X158225814Y-61643352D01*
X158178195Y-61690971D01*
X158082957Y-61738590D01*
X157702004Y-61738590D01*
X159225814Y-62214780D02*
X158654385Y-62214780D01*
X158940100Y-62214780D02*
X158940100Y-61214780D01*
X158844861Y-61357638D01*
X158749623Y-61452876D01*
X158654385Y-61500495D01*
%TO.C,P15*%
X123455814Y-128004780D02*
X123455814Y-127004780D01*
X123836766Y-127004780D01*
X123932004Y-127052400D01*
X123979623Y-127100019D01*
X124027242Y-127195257D01*
X124027242Y-127338114D01*
X123979623Y-127433352D01*
X123932004Y-127480971D01*
X123836766Y-127528590D01*
X123455814Y-127528590D01*
X124979623Y-128004780D02*
X124408195Y-128004780D01*
X124693909Y-128004780D02*
X124693909Y-127004780D01*
X124598671Y-127147638D01*
X124503433Y-127242876D01*
X124408195Y-127290495D01*
X125884385Y-127004780D02*
X125408195Y-127004780D01*
X125360576Y-127480971D01*
X125408195Y-127433352D01*
X125503433Y-127385733D01*
X125741528Y-127385733D01*
X125836766Y-127433352D01*
X125884385Y-127480971D01*
X125932004Y-127576209D01*
X125932004Y-127814304D01*
X125884385Y-127909542D01*
X125836766Y-127957161D01*
X125741528Y-128004780D01*
X125503433Y-128004780D01*
X125408195Y-127957161D01*
X125360576Y-127909542D01*
D12*
%TO.C,C14*%
X136826885Y-76870614D02*
X136857123Y-76900852D01*
X136887361Y-76991566D01*
X136887361Y-77052042D01*
X136857123Y-77142757D01*
X136796647Y-77203233D01*
X136736171Y-77233471D01*
X136615219Y-77263709D01*
X136524504Y-77263709D01*
X136403552Y-77233471D01*
X136343076Y-77203233D01*
X136282600Y-77142757D01*
X136252361Y-77052042D01*
X136252361Y-76991566D01*
X136282600Y-76900852D01*
X136312838Y-76870614D01*
X136887361Y-76265852D02*
X136887361Y-76628709D01*
X136887361Y-76447280D02*
X136252361Y-76447280D01*
X136343076Y-76507757D01*
X136403552Y-76568233D01*
X136433790Y-76628709D01*
X136464028Y-75721566D02*
X136887361Y-75721566D01*
X136222123Y-75872757D02*
X136675695Y-76023947D01*
X136675695Y-75630852D01*
D13*
%TO.C,D1*%
X153841409Y-83429661D02*
X153841409Y-82794661D01*
X153992600Y-82794661D01*
X154083314Y-82824900D01*
X154143790Y-82885376D01*
X154174028Y-82945852D01*
X154204266Y-83066804D01*
X154204266Y-83157519D01*
X154174028Y-83278471D01*
X154143790Y-83338947D01*
X154083314Y-83399423D01*
X153992600Y-83429661D01*
X153841409Y-83429661D01*
X154809028Y-83429661D02*
X154446171Y-83429661D01*
X154627600Y-83429661D02*
X154627600Y-82794661D01*
X154567123Y-82885376D01*
X154506647Y-82945852D01*
X154446171Y-82976090D01*
D12*
%TO.C,R4*%
X145307361Y-94858233D02*
X145004980Y-95069900D01*
X145307361Y-95221090D02*
X144672361Y-95221090D01*
X144672361Y-94979185D01*
X144702600Y-94918709D01*
X144732838Y-94888471D01*
X144793314Y-94858233D01*
X144884028Y-94858233D01*
X144944504Y-94888471D01*
X144974742Y-94918709D01*
X145004980Y-94979185D01*
X145004980Y-95221090D01*
X144884028Y-94313947D02*
X145307361Y-94313947D01*
X144642123Y-94465138D02*
X145095695Y-94616328D01*
X145095695Y-94223233D01*
%TO.C,C3*%
X129206885Y-92538233D02*
X129237123Y-92568471D01*
X129267361Y-92659185D01*
X129267361Y-92719661D01*
X129237123Y-92810376D01*
X129176647Y-92870852D01*
X129116171Y-92901090D01*
X128995219Y-92931328D01*
X128904504Y-92931328D01*
X128783552Y-92901090D01*
X128723076Y-92870852D01*
X128662600Y-92810376D01*
X128632361Y-92719661D01*
X128632361Y-92659185D01*
X128662600Y-92568471D01*
X128692838Y-92538233D01*
X128632361Y-92326566D02*
X128632361Y-91933471D01*
X128874266Y-92145138D01*
X128874266Y-92054423D01*
X128904504Y-91993947D01*
X128934742Y-91963709D01*
X128995219Y-91933471D01*
X129146409Y-91933471D01*
X129206885Y-91963709D01*
X129237123Y-91993947D01*
X129267361Y-92054423D01*
X129267361Y-92235852D01*
X129237123Y-92296328D01*
X129206885Y-92326566D01*
D13*
%TO.C,U1*%
X140276290Y-79684661D02*
X140276290Y-80198709D01*
X140306528Y-80259185D01*
X140336766Y-80289423D01*
X140397242Y-80319661D01*
X140518195Y-80319661D01*
X140578671Y-80289423D01*
X140608909Y-80259185D01*
X140639147Y-80198709D01*
X140639147Y-79684661D01*
X141274147Y-80319661D02*
X140911290Y-80319661D01*
X141092719Y-80319661D02*
X141092719Y-79684661D01*
X141032242Y-79775376D01*
X140971766Y-79835852D01*
X140911290Y-79866090D01*
D12*
%TO.C,C7*%
X135644266Y-108949185D02*
X135614028Y-108979423D01*
X135523314Y-109009661D01*
X135462838Y-109009661D01*
X135372123Y-108979423D01*
X135311647Y-108918947D01*
X135281409Y-108858471D01*
X135251171Y-108737519D01*
X135251171Y-108646804D01*
X135281409Y-108525852D01*
X135311647Y-108465376D01*
X135372123Y-108404900D01*
X135462838Y-108374661D01*
X135523314Y-108374661D01*
X135614028Y-108404900D01*
X135644266Y-108435138D01*
X135855933Y-108374661D02*
X136279266Y-108374661D01*
X136007123Y-109009661D01*
D11*
%TO.C,U3*%
X137452480Y-98174304D02*
X138262004Y-98174304D01*
X138357242Y-98126685D01*
X138404861Y-98079066D01*
X138452480Y-97983828D01*
X138452480Y-97793352D01*
X138404861Y-97698114D01*
X138357242Y-97650495D01*
X138262004Y-97602876D01*
X137452480Y-97602876D01*
X137452480Y-97221923D02*
X137452480Y-96602876D01*
X137833433Y-96936209D01*
X137833433Y-96793352D01*
X137881052Y-96698114D01*
X137928671Y-96650495D01*
X138023909Y-96602876D01*
X138262004Y-96602876D01*
X138357242Y-96650495D01*
X138404861Y-96698114D01*
X138452480Y-96793352D01*
X138452480Y-97079066D01*
X138404861Y-97174304D01*
X138357242Y-97221923D01*
D12*
%TO.C,C1*%
X134446885Y-83148233D02*
X134477123Y-83178471D01*
X134507361Y-83269185D01*
X134507361Y-83329661D01*
X134477123Y-83420376D01*
X134416647Y-83480852D01*
X134356171Y-83511090D01*
X134235219Y-83541328D01*
X134144504Y-83541328D01*
X134023552Y-83511090D01*
X133963076Y-83480852D01*
X133902600Y-83420376D01*
X133872361Y-83329661D01*
X133872361Y-83269185D01*
X133902600Y-83178471D01*
X133932838Y-83148233D01*
X134507361Y-82543471D02*
X134507361Y-82906328D01*
X134507361Y-82724900D02*
X133872361Y-82724900D01*
X133963076Y-82785376D01*
X134023552Y-82845852D01*
X134053790Y-82906328D01*
%TO.C,C13*%
X134866885Y-67300614D02*
X134897123Y-67330852D01*
X134927361Y-67421566D01*
X134927361Y-67482042D01*
X134897123Y-67572757D01*
X134836647Y-67633233D01*
X134776171Y-67663471D01*
X134655219Y-67693709D01*
X134564504Y-67693709D01*
X134443552Y-67663471D01*
X134383076Y-67633233D01*
X134322600Y-67572757D01*
X134292361Y-67482042D01*
X134292361Y-67421566D01*
X134322600Y-67330852D01*
X134352838Y-67300614D01*
X134927361Y-66695852D02*
X134927361Y-67058709D01*
X134927361Y-66877280D02*
X134292361Y-66877280D01*
X134383076Y-66937757D01*
X134443552Y-66998233D01*
X134473790Y-67058709D01*
X134292361Y-66484185D02*
X134292361Y-66091090D01*
X134534266Y-66302757D01*
X134534266Y-66212042D01*
X134564504Y-66151566D01*
X134594742Y-66121328D01*
X134655219Y-66091090D01*
X134806409Y-66091090D01*
X134866885Y-66121328D01*
X134897123Y-66151566D01*
X134927361Y-66212042D01*
X134927361Y-66393471D01*
X134897123Y-66453947D01*
X134866885Y-66484185D01*
%TO.C,R20*%
X139841242Y-66887114D02*
X139587242Y-66524257D01*
X139405814Y-66887114D02*
X139405814Y-66125114D01*
X139696100Y-66125114D01*
X139768671Y-66161400D01*
X139804957Y-66197685D01*
X139841242Y-66270257D01*
X139841242Y-66379114D01*
X139804957Y-66451685D01*
X139768671Y-66487971D01*
X139696100Y-66524257D01*
X139405814Y-66524257D01*
X140131528Y-66197685D02*
X140167814Y-66161400D01*
X140240385Y-66125114D01*
X140421814Y-66125114D01*
X140494385Y-66161400D01*
X140530671Y-66197685D01*
X140566957Y-66270257D01*
X140566957Y-66342828D01*
X140530671Y-66451685D01*
X140095242Y-66887114D01*
X140566957Y-66887114D01*
X141038671Y-66125114D02*
X141111242Y-66125114D01*
X141183814Y-66161400D01*
X141220100Y-66197685D01*
X141256385Y-66270257D01*
X141292671Y-66415400D01*
X141292671Y-66596828D01*
X141256385Y-66741971D01*
X141220100Y-66814542D01*
X141183814Y-66850828D01*
X141111242Y-66887114D01*
X141038671Y-66887114D01*
X140966100Y-66850828D01*
X140929814Y-66814542D01*
X140893528Y-66741971D01*
X140857242Y-66596828D01*
X140857242Y-66415400D01*
X140893528Y-66270257D01*
X140929814Y-66197685D01*
X140966100Y-66161400D01*
X141038671Y-66125114D01*
D11*
%TO.C,X2*%
X129930576Y-71424780D02*
X130597242Y-72424780D01*
X130597242Y-71424780D02*
X129930576Y-72424780D01*
X130930576Y-71520019D02*
X130978195Y-71472400D01*
X131073433Y-71424780D01*
X131311528Y-71424780D01*
X131406766Y-71472400D01*
X131454385Y-71520019D01*
X131502004Y-71615257D01*
X131502004Y-71710495D01*
X131454385Y-71853352D01*
X130882957Y-72424780D01*
X131502004Y-72424780D01*
D12*
%TO.C,C16*%
X126356885Y-73970614D02*
X126387123Y-74000852D01*
X126417361Y-74091566D01*
X126417361Y-74152042D01*
X126387123Y-74242757D01*
X126326647Y-74303233D01*
X126266171Y-74333471D01*
X126145219Y-74363709D01*
X126054504Y-74363709D01*
X125933552Y-74333471D01*
X125873076Y-74303233D01*
X125812600Y-74242757D01*
X125782361Y-74152042D01*
X125782361Y-74091566D01*
X125812600Y-74000852D01*
X125842838Y-73970614D01*
X126417361Y-73365852D02*
X126417361Y-73728709D01*
X126417361Y-73547280D02*
X125782361Y-73547280D01*
X125873076Y-73607757D01*
X125933552Y-73668233D01*
X125963790Y-73728709D01*
X125782361Y-72821566D02*
X125782361Y-72942519D01*
X125812600Y-73002995D01*
X125842838Y-73033233D01*
X125933552Y-73093709D01*
X126054504Y-73123947D01*
X126296409Y-73123947D01*
X126356885Y-73093709D01*
X126387123Y-73063471D01*
X126417361Y-73002995D01*
X126417361Y-72882042D01*
X126387123Y-72821566D01*
X126356885Y-72791328D01*
X126296409Y-72761090D01*
X126145219Y-72761090D01*
X126084742Y-72791328D01*
X126054504Y-72821566D01*
X126024266Y-72882042D01*
X126024266Y-73002995D01*
X126054504Y-73063471D01*
X126084742Y-73093709D01*
X126145219Y-73123947D01*
%TO.C,R31*%
X121791885Y-89419661D02*
X121580219Y-89117280D01*
X121429028Y-89419661D02*
X121429028Y-88784661D01*
X121670933Y-88784661D01*
X121731409Y-88814900D01*
X121761647Y-88845138D01*
X121791885Y-88905614D01*
X121791885Y-88996328D01*
X121761647Y-89056804D01*
X121731409Y-89087042D01*
X121670933Y-89117280D01*
X121429028Y-89117280D01*
X122003552Y-88784661D02*
X122396647Y-88784661D01*
X122184980Y-89026566D01*
X122275695Y-89026566D01*
X122336171Y-89056804D01*
X122366409Y-89087042D01*
X122396647Y-89147519D01*
X122396647Y-89298709D01*
X122366409Y-89359185D01*
X122336171Y-89389423D01*
X122275695Y-89419661D01*
X122094266Y-89419661D01*
X122033790Y-89389423D01*
X122003552Y-89359185D01*
X123001409Y-89419661D02*
X122638552Y-89419661D01*
X122819980Y-89419661D02*
X122819980Y-88784661D01*
X122759504Y-88875376D01*
X122699028Y-88935852D01*
X122638552Y-88966090D01*
%TO.C,C12*%
X133366885Y-83160614D02*
X133397123Y-83190852D01*
X133427361Y-83281566D01*
X133427361Y-83342042D01*
X133397123Y-83432757D01*
X133336647Y-83493233D01*
X133276171Y-83523471D01*
X133155219Y-83553709D01*
X133064504Y-83553709D01*
X132943552Y-83523471D01*
X132883076Y-83493233D01*
X132822600Y-83432757D01*
X132792361Y-83342042D01*
X132792361Y-83281566D01*
X132822600Y-83190852D01*
X132852838Y-83160614D01*
X133427361Y-82555852D02*
X133427361Y-82918709D01*
X133427361Y-82737280D02*
X132792361Y-82737280D01*
X132883076Y-82797757D01*
X132943552Y-82858233D01*
X132973790Y-82918709D01*
X132852838Y-82313947D02*
X132822600Y-82283709D01*
X132792361Y-82223233D01*
X132792361Y-82072042D01*
X132822600Y-82011566D01*
X132852838Y-81981328D01*
X132913314Y-81951090D01*
X132973790Y-81951090D01*
X133064504Y-81981328D01*
X133427361Y-82344185D01*
X133427361Y-81951090D01*
D11*
%TO.C,P8*%
X164630100Y-60832400D02*
X163080100Y-60832400D01*
X168440100Y-61112400D02*
X165900100Y-61112400D01*
X165900100Y-63652400D02*
X163360100Y-63652400D01*
X163080100Y-60832400D02*
X163080100Y-62382400D01*
X165900100Y-61112400D02*
X165900100Y-63652400D01*
X168440100Y-119532400D02*
X168440100Y-61112400D01*
X168440100Y-119532400D02*
X163360100Y-119532400D01*
X163360100Y-119532400D02*
X163360100Y-63652400D01*
%TO.C,P9*%
X120180100Y-119532400D02*
X115100100Y-119532400D01*
X114820100Y-60832400D02*
X114820100Y-62382400D01*
X120180100Y-61112400D02*
X117640100Y-61112400D01*
X115100100Y-119532400D02*
X115100100Y-63652400D01*
X120180100Y-119532400D02*
X120180100Y-61112400D01*
X117640100Y-61112400D02*
X117640100Y-63652400D01*
X117640100Y-63652400D02*
X115100100Y-63652400D01*
X116370100Y-60832400D02*
X114820100Y-60832400D01*
%TO.C,R13*%
X121020100Y-104962400D02*
X121020100Y-106162400D01*
X122620100Y-104962400D02*
X123320100Y-104962400D01*
X121720100Y-104962400D02*
X121020100Y-104962400D01*
X121020100Y-106162400D02*
X121720100Y-106162400D01*
X123320100Y-106162400D02*
X122620100Y-106162400D01*
X123320100Y-104962400D02*
X123320100Y-106162400D01*
%TO.C,R18*%
X124740100Y-78192400D02*
X124740100Y-76992400D01*
X122440100Y-76992400D02*
X123140100Y-76992400D01*
X123140100Y-78192400D02*
X122440100Y-78192400D01*
X124040100Y-78192400D02*
X124740100Y-78192400D01*
X122440100Y-78192400D02*
X122440100Y-76992400D01*
X124740100Y-76992400D02*
X124040100Y-76992400D01*
D12*
%TO.C,F5*%
X161547100Y-125702400D02*
X161547100Y-124051400D01*
X161547100Y-120622400D02*
X161547100Y-122273400D01*
X163833100Y-125702400D02*
X161547100Y-125702400D01*
X163833100Y-124051400D02*
X163833100Y-125702400D01*
X163833100Y-122273400D02*
X163833100Y-120622400D01*
X163833100Y-120622400D02*
X161547100Y-120622400D01*
D11*
%TO.C,C17*%
X128890100Y-113942400D02*
X128890100Y-113242400D01*
X127690100Y-113942400D02*
X128890100Y-113942400D01*
X128890100Y-111642400D02*
X128890100Y-112342400D01*
X127690100Y-113242400D02*
X127690100Y-113942400D01*
X127690100Y-112342400D02*
X127690100Y-111642400D01*
X127690100Y-111642400D02*
X128890100Y-111642400D01*
%TO.C,U6*%
X123385100Y-81987400D02*
X126735100Y-81987400D01*
X123385100Y-78637400D02*
X126735100Y-78637400D01*
X126735100Y-81987400D02*
X126735100Y-81737400D01*
X126735100Y-78637400D02*
X126735100Y-78887400D01*
X123385100Y-78637400D02*
X123385100Y-78812400D01*
X123385100Y-81987400D02*
X123385100Y-81737400D01*
X123385100Y-78812400D02*
X122135100Y-78812400D01*
%TO.C,R24*%
X137000100Y-110282400D02*
X137000100Y-111482400D01*
X138600100Y-110282400D02*
X139300100Y-110282400D01*
X137700100Y-110282400D02*
X137000100Y-110282400D01*
X137000100Y-111482400D02*
X137700100Y-111482400D01*
X139300100Y-110282400D02*
X139300100Y-111482400D01*
X139300100Y-111482400D02*
X138600100Y-111482400D01*
%TO.C,R19*%
X125150100Y-83052400D02*
X125150100Y-84252400D01*
X125150100Y-84252400D02*
X124450100Y-84252400D01*
X123550100Y-83052400D02*
X122850100Y-83052400D01*
X122850100Y-83052400D02*
X122850100Y-84252400D01*
X122850100Y-84252400D02*
X123550100Y-84252400D01*
X124450100Y-83052400D02*
X125150100Y-83052400D01*
%TO.C,D10*%
X125210100Y-105572400D02*
X125810100Y-106072400D01*
D12*
X124994480Y-104739600D02*
X123978480Y-104739600D01*
D11*
X125210100Y-105572400D02*
X125210100Y-106072400D01*
D12*
X123978480Y-106367740D02*
X125002100Y-106367740D01*
X123973400Y-106362660D02*
X123973400Y-104752300D01*
X127034100Y-106367740D02*
X126010480Y-106367740D01*
X127039180Y-106362660D02*
X127039180Y-104752300D01*
X126018100Y-104739600D02*
X127034100Y-104739600D01*
D11*
X125810100Y-106072400D02*
X125810100Y-105072400D01*
X125210100Y-105572400D02*
X125210100Y-105072400D01*
X125810100Y-105072400D02*
X125210100Y-105572400D01*
%TO.C,Sw3*%
X127960100Y-96052400D02*
X126460100Y-96052400D01*
X128960100Y-95052400D02*
X128285100Y-95052400D01*
X127710100Y-99802400D02*
X127710100Y-96302400D01*
X128460100Y-100302400D02*
X125960100Y-100302400D01*
X128960100Y-101052400D02*
X128960100Y-95052400D01*
X126460100Y-96052400D02*
X126460100Y-100052400D01*
X128960100Y-101052400D02*
X128285100Y-101052400D01*
X125460100Y-95052400D02*
X125460100Y-101052400D01*
X126710100Y-99802400D02*
X127710100Y-99802400D01*
X125960100Y-100302400D02*
X125960100Y-101052400D01*
X125960100Y-95802400D02*
X125960100Y-95052400D01*
X128460100Y-101052400D02*
X128460100Y-100302400D01*
X128460100Y-95802400D02*
X125960100Y-95802400D01*
X127710100Y-96302400D02*
X126710100Y-96302400D01*
X127960100Y-100052400D02*
X127960100Y-96052400D01*
X125460100Y-95052400D02*
X126135100Y-95052400D01*
X128460100Y-95052400D02*
X128460100Y-95802400D01*
X125460100Y-101052400D02*
X126135100Y-101052400D01*
X126710100Y-96302400D02*
X126710100Y-99802400D01*
X126460100Y-100052400D02*
X127960100Y-100052400D01*
%TO.C,R5*%
X129550100Y-107672400D02*
X129550100Y-106472400D01*
X129550100Y-106472400D02*
X128850100Y-106472400D01*
X127250100Y-107672400D02*
X127250100Y-106472400D01*
X127250100Y-106472400D02*
X127950100Y-106472400D01*
X128850100Y-107672400D02*
X129550100Y-107672400D01*
X127950100Y-107672400D02*
X127250100Y-107672400D01*
D12*
%TO.C,D4*%
X135869100Y-120326400D02*
X135869100Y-117278400D01*
X135869100Y-117278400D02*
X136631100Y-117278400D01*
X136631100Y-117278400D02*
X136631100Y-120326400D01*
X136631100Y-120326400D02*
X135869100Y-120326400D01*
D11*
%TO.C,P2*%
X158060100Y-104652400D02*
X160060100Y-104652400D01*
X162360100Y-110852400D02*
X162360100Y-109652400D01*
X153060100Y-104652400D02*
X155060100Y-104652400D01*
X155060100Y-104652400D02*
X155060100Y-103652400D01*
X161660100Y-103652400D02*
X161660100Y-111452400D01*
X153060100Y-103652400D02*
X153060100Y-104652400D01*
X146460100Y-111452400D02*
X146460100Y-103652400D01*
X161660100Y-111452400D02*
X146460100Y-111452400D01*
X148060100Y-103652400D02*
X148060100Y-104652400D01*
X161660100Y-109652400D02*
X162360100Y-109652400D01*
X148060100Y-104652400D02*
X150060100Y-104652400D01*
X160060100Y-104652400D02*
X160060100Y-103652400D01*
X150060100Y-104652400D02*
X150060100Y-103652400D01*
X161660100Y-110852400D02*
X162360100Y-110852400D01*
X161660100Y-108952400D02*
X146460100Y-108952400D01*
X161660100Y-103652400D02*
X146460100Y-103652400D01*
X158060100Y-103652400D02*
X158060100Y-104652400D01*
%TO.C,D11*%
X125810100Y-107642400D02*
X125210100Y-108142400D01*
X125210100Y-108142400D02*
X125810100Y-108642400D01*
X125210100Y-108142400D02*
X125210100Y-108642400D01*
X125810100Y-108642400D02*
X125810100Y-107642400D01*
D12*
X123978480Y-108957740D02*
X125002100Y-108957740D01*
X126018100Y-107329600D02*
X127034100Y-107329600D01*
X127039180Y-108952660D02*
X127039180Y-107342300D01*
D11*
X125210100Y-108142400D02*
X125210100Y-107642400D01*
D12*
X127034100Y-108957740D02*
X126010480Y-108957740D01*
X124994480Y-107329600D02*
X123978480Y-107329600D01*
X123973400Y-108952660D02*
X123973400Y-107342300D01*
%TO.C,D3*%
X154646100Y-115081400D02*
X157694100Y-115081400D01*
X157694100Y-115081400D02*
X157694100Y-115843400D01*
X154646100Y-115843400D02*
X154646100Y-115081400D01*
X157694100Y-115843400D02*
X154646100Y-115843400D01*
%TO.C,R9*%
X151910360Y-116993320D02*
X150300000Y-116993320D01*
X150287300Y-119038020D02*
X150287300Y-120054020D01*
X151915440Y-116998400D02*
X151915440Y-118022020D01*
X150287300Y-118014400D02*
X150287300Y-116998400D01*
X151910360Y-120059100D02*
X150300000Y-120059100D01*
X151915440Y-120054020D02*
X151915440Y-119030400D01*
%TO.C,R2*%
X150482900Y-89340400D02*
X150482900Y-90356400D01*
X148854760Y-90356400D02*
X148854760Y-89332780D01*
X148859840Y-90361480D02*
X150470200Y-90361480D01*
X148859840Y-87295700D02*
X150470200Y-87295700D01*
X150482900Y-88316780D02*
X150482900Y-87300780D01*
X148854760Y-87300780D02*
X148854760Y-88324400D01*
D11*
%TO.C,R8*%
X146150100Y-110032400D02*
X146150100Y-109332400D01*
X144950100Y-109332400D02*
X144950100Y-110032400D01*
X146150100Y-111632400D02*
X144950100Y-111632400D01*
X146150100Y-109332400D02*
X144950100Y-109332400D01*
X146150100Y-110932400D02*
X146150100Y-111632400D01*
X144950100Y-111632400D02*
X144950100Y-110932400D01*
%TO.C,C18*%
X138810100Y-116662400D02*
X139510100Y-116662400D01*
X139510100Y-116662400D02*
X139510100Y-115462400D01*
X139510100Y-115462400D02*
X138810100Y-115462400D01*
X137910100Y-116662400D02*
X137210100Y-116662400D01*
X137210100Y-115462400D02*
X137910100Y-115462400D01*
X137210100Y-116662400D02*
X137210100Y-115462400D01*
D12*
%TO.C,U8*%
X134260100Y-77387400D02*
X134260100Y-80387400D01*
X129380100Y-77387400D02*
X129380100Y-80387400D01*
D17*
X133870100Y-76427400D02*
G75*
G03*
X133870100Y-76427400I-100000J0D01*
G01*
D11*
%TO.C,X1*%
X132200100Y-104712400D02*
X139000100Y-104712400D01*
X132200100Y-104712400D02*
X132200100Y-108112400D01*
X139000100Y-104712400D02*
X139000100Y-108112400D01*
X139000100Y-108112400D02*
X132200100Y-108112400D01*
D18*
%TO.C,P11*%
X147420100Y-114932400D02*
X142340100Y-114932400D01*
X147420100Y-112392400D02*
X147420100Y-114932400D01*
X142340100Y-114932400D02*
X142340100Y-112392400D01*
X142340100Y-112392400D02*
X147420100Y-112392400D01*
X144880100Y-112392400D02*
X144880100Y-114932400D01*
D11*
%TO.C,R29*%
X121120100Y-92362400D02*
X121120100Y-91162400D01*
X121120100Y-91162400D02*
X121820100Y-91162400D01*
X123420100Y-92362400D02*
X123420100Y-91162400D01*
X123420100Y-91162400D02*
X122720100Y-91162400D01*
X122720100Y-92362400D02*
X123420100Y-92362400D01*
X121820100Y-92362400D02*
X121120100Y-92362400D01*
%TO.C,U7*%
X131960100Y-68222400D02*
X135160100Y-68222400D01*
X135160100Y-68222400D02*
X135160100Y-68522400D01*
X131960100Y-71422400D02*
X131960100Y-71122400D01*
X131960100Y-71422400D02*
X135160100Y-71422400D01*
X131960100Y-68522400D02*
X130660100Y-68522400D01*
X135160100Y-71422400D02*
X135160100Y-71122400D01*
X131960100Y-68222400D02*
X131960100Y-68522400D01*
X132683707Y-68822400D02*
G75*
G03*
X132683707Y-68822400I-223607J0D01*
G01*
%TO.C,NTC1*%
X121570100Y-113762400D02*
X121570100Y-114962400D01*
X124170100Y-114962400D02*
X124170100Y-113762400D01*
X123270100Y-114962400D02*
X124170100Y-114962400D01*
X121570100Y-114962400D02*
X122470100Y-114962400D01*
X122470100Y-113762400D02*
X121570100Y-113762400D01*
X124170100Y-113762400D02*
X123270100Y-113762400D01*
D12*
%TO.C,F8*%
X143263100Y-78062400D02*
X140977100Y-78062400D01*
X140977100Y-78062400D02*
X140977100Y-76411400D01*
X143263100Y-72982400D02*
X140977100Y-72982400D01*
X143263100Y-76411400D02*
X143263100Y-78062400D01*
X140977100Y-72982400D02*
X140977100Y-74633400D01*
X143263100Y-74633400D02*
X143263100Y-72982400D01*
%TO.C,R1*%
X148854760Y-78986400D02*
X148854760Y-77962780D01*
X148859840Y-75925700D02*
X150470200Y-75925700D01*
X148859840Y-78991480D02*
X150470200Y-78991480D01*
X148854760Y-75930780D02*
X148854760Y-76954400D01*
X150482900Y-76946780D02*
X150482900Y-75930780D01*
X150482900Y-77970400D02*
X150482900Y-78986400D01*
D11*
%TO.C,P7*%
X149430100Y-127362400D02*
X149430100Y-128362400D01*
X142830100Y-121162400D02*
X142130100Y-121162400D01*
X142130100Y-121162400D02*
X142130100Y-122362400D01*
X142830100Y-120562400D02*
X158030100Y-120562400D01*
X156430100Y-127362400D02*
X154430100Y-127362400D01*
X142830100Y-123062400D02*
X158030100Y-123062400D01*
X142830100Y-128362400D02*
X158030100Y-128362400D01*
X156430100Y-128362400D02*
X156430100Y-127362400D01*
X151430100Y-128362400D02*
X151430100Y-127362400D01*
X142830100Y-122362400D02*
X142130100Y-122362400D01*
X146430100Y-128362400D02*
X146430100Y-127362400D01*
X158030100Y-120562400D02*
X158030100Y-128362400D01*
X146430100Y-127362400D02*
X144430100Y-127362400D01*
X154430100Y-127362400D02*
X154430100Y-128362400D01*
X142830100Y-128362400D02*
X142830100Y-120562400D01*
X144430100Y-127362400D02*
X144430100Y-128362400D01*
X151430100Y-127362400D02*
X149430100Y-127362400D01*
%TO.C,R12*%
X123290100Y-73362400D02*
X122590100Y-73362400D01*
X120990100Y-74562400D02*
X120990100Y-73362400D01*
X121690100Y-74562400D02*
X120990100Y-74562400D01*
X122590100Y-74562400D02*
X123290100Y-74562400D01*
X123290100Y-74562400D02*
X123290100Y-73362400D01*
X120990100Y-73362400D02*
X121690100Y-73362400D01*
D18*
%TO.C,P6*%
X139330100Y-97492400D02*
X141870100Y-97492400D01*
X139330100Y-94952400D02*
X141870100Y-94952400D01*
X141870100Y-94952400D02*
X141870100Y-100032400D01*
X141870100Y-100032400D02*
X139330100Y-100032400D01*
X139330100Y-100032400D02*
X139330100Y-94952400D01*
D11*
%TO.C,Sw4*%
X121690100Y-100302400D02*
X121690100Y-101052400D01*
X123690100Y-96052400D02*
X122190100Y-96052400D01*
X121190100Y-95052400D02*
X121865100Y-95052400D01*
X124190100Y-95052400D02*
X124190100Y-95802400D01*
X122190100Y-100052400D02*
X123690100Y-100052400D01*
X124690100Y-101052400D02*
X124015100Y-101052400D01*
X124190100Y-101052400D02*
X124190100Y-100302400D01*
X124190100Y-95802400D02*
X121690100Y-95802400D01*
X124690100Y-101052400D02*
X124690100Y-95052400D01*
X121190100Y-101052400D02*
X121865100Y-101052400D01*
X121690100Y-95802400D02*
X121690100Y-95052400D01*
X123440100Y-99802400D02*
X123440100Y-96302400D01*
X123440100Y-96302400D02*
X122440100Y-96302400D01*
X122440100Y-99802400D02*
X123440100Y-99802400D01*
X121190100Y-95052400D02*
X121190100Y-101052400D01*
X124690100Y-95052400D02*
X124015100Y-95052400D01*
X122440100Y-96302400D02*
X122440100Y-99802400D01*
X124190100Y-100302400D02*
X121690100Y-100302400D01*
X122190100Y-96052400D02*
X122190100Y-100052400D01*
X123690100Y-100052400D02*
X123690100Y-96052400D01*
D12*
%TO.C,D5*%
X146331100Y-68468400D02*
X146331100Y-71516400D01*
X146331100Y-71516400D02*
X145569100Y-71516400D01*
X145569100Y-71516400D02*
X145569100Y-68468400D01*
X145569100Y-68468400D02*
X146331100Y-68468400D01*
%TO.C,F7*%
X140063100Y-76411400D02*
X140063100Y-78062400D01*
X140063100Y-74633400D02*
X140063100Y-72982400D01*
X140063100Y-78062400D02*
X137777100Y-78062400D01*
X140063100Y-72982400D02*
X137777100Y-72982400D01*
X137777100Y-78062400D02*
X137777100Y-76411400D01*
X137777100Y-72982400D02*
X137777100Y-74633400D01*
%TO.C,F4*%
X151117100Y-96492400D02*
X151117100Y-98143400D01*
X153403100Y-96492400D02*
X151117100Y-96492400D01*
X153403100Y-98143400D02*
X153403100Y-96492400D01*
X153403100Y-101572400D02*
X151117100Y-101572400D01*
X153403100Y-99921400D02*
X153403100Y-101572400D01*
X151117100Y-101572400D02*
X151117100Y-99921400D01*
D18*
%TO.C,P10*%
X142320100Y-119022400D02*
X142320100Y-116482400D01*
X147400100Y-116482400D02*
X147400100Y-119022400D01*
X147400100Y-119022400D02*
X142320100Y-119022400D01*
X144860100Y-116482400D02*
X144860100Y-119022400D01*
X142320100Y-116482400D02*
X147400100Y-116482400D01*
D11*
%TO.C,R11*%
X123330100Y-112032400D02*
X123330100Y-113232400D01*
X123330100Y-113232400D02*
X122630100Y-113232400D01*
X121030100Y-112032400D02*
X121030100Y-113232400D01*
X121730100Y-112032400D02*
X121030100Y-112032400D01*
X121030100Y-113232400D02*
X121730100Y-113232400D01*
X122630100Y-112032400D02*
X123330100Y-112032400D01*
%TO.C,C15*%
X136760100Y-75122400D02*
X136760100Y-74422400D01*
X135560100Y-75122400D02*
X136760100Y-75122400D01*
X135560100Y-74422400D02*
X135560100Y-75122400D01*
X136760100Y-72822400D02*
X136760100Y-73522400D01*
X135560100Y-72822400D02*
X136760100Y-72822400D01*
X135560100Y-73522400D02*
X135560100Y-72822400D01*
D12*
%TO.C,F9*%
X119947100Y-126002400D02*
X119947100Y-124351400D01*
X122233100Y-126002400D02*
X119947100Y-126002400D01*
X122233100Y-120922400D02*
X119947100Y-120922400D01*
X122233100Y-122573400D02*
X122233100Y-120922400D01*
X119947100Y-120922400D02*
X119947100Y-122573400D01*
X122233100Y-124351400D02*
X122233100Y-126002400D01*
D18*
%TO.C,P3*%
X145320100Y-76902400D02*
X147860100Y-76902400D01*
X147860100Y-76902400D02*
X147860100Y-81982400D01*
X147860100Y-79442400D02*
X145320100Y-79442400D01*
X145320100Y-81982400D02*
X145320100Y-76902400D01*
X147860100Y-81982400D02*
X145320100Y-81982400D01*
D11*
%TO.C,U2*%
X136840100Y-94692400D02*
X136840100Y-89892400D01*
X132640100Y-89692400D02*
X132640100Y-89892400D01*
X136840100Y-89692400D02*
X136840100Y-89892400D01*
X136840100Y-94892400D02*
X136840100Y-94692400D01*
X132640100Y-89692400D02*
X136840100Y-89692400D01*
X132640100Y-89892400D02*
X132640100Y-94692400D01*
X132640100Y-94892400D02*
X132640100Y-94692400D01*
X132640100Y-94892400D02*
X136840100Y-94892400D01*
X133519186Y-90292400D02*
G75*
G03*
X133519186Y-90292400I-279086J0D01*
G01*
D12*
%TO.C,F6*%
X160953100Y-121172400D02*
X158667100Y-121172400D01*
X158667100Y-126252400D02*
X158667100Y-124601400D01*
X158667100Y-121172400D02*
X158667100Y-122823400D01*
X160953100Y-124601400D02*
X160953100Y-126252400D01*
X160953100Y-122823400D02*
X160953100Y-121172400D01*
X160953100Y-126252400D02*
X158667100Y-126252400D01*
%TO.C,F2*%
X154420100Y-86595400D02*
X156071100Y-86595400D01*
X159500100Y-86595400D02*
X157849100Y-86595400D01*
X154420100Y-84309400D02*
X154420100Y-86595400D01*
X157849100Y-84309400D02*
X159500100Y-84309400D01*
X156071100Y-84309400D02*
X154420100Y-84309400D01*
X159500100Y-84309400D02*
X159500100Y-86595400D01*
D11*
%TO.C,Sw1*%
X127980100Y-63812400D02*
X126480100Y-63812400D01*
X125980100Y-68812400D02*
X125980100Y-68062400D01*
X128480100Y-68062400D02*
X128480100Y-68812400D01*
X125980100Y-68062400D02*
X128480100Y-68062400D01*
X128480100Y-63562400D02*
X128480100Y-62812400D01*
X126480100Y-67812400D02*
X127980100Y-67812400D01*
X125480100Y-68812400D02*
X126155100Y-68812400D01*
X125480100Y-62812400D02*
X125480100Y-68812400D01*
X127730100Y-67562400D02*
X127730100Y-64062400D01*
X127730100Y-64062400D02*
X126730100Y-64062400D01*
X126730100Y-64062400D02*
X126730100Y-67562400D01*
X126730100Y-67562400D02*
X127730100Y-67562400D01*
X128980100Y-62812400D02*
X128305100Y-62812400D01*
X128980100Y-68812400D02*
X128980100Y-62812400D01*
X125480100Y-62812400D02*
X126155100Y-62812400D01*
X127980100Y-67812400D02*
X127980100Y-63812400D01*
X125980100Y-63562400D02*
X128480100Y-63562400D01*
X126480100Y-63812400D02*
X126480100Y-67812400D01*
X128980100Y-68812400D02*
X128305100Y-68812400D01*
X125980100Y-62812400D02*
X125980100Y-63562400D01*
D12*
%TO.C,D12*%
X127034100Y-111447740D02*
X126010480Y-111447740D01*
D11*
X125210100Y-110632400D02*
X125210100Y-110132400D01*
D12*
X123978480Y-111447740D02*
X125002100Y-111447740D01*
D11*
X125810100Y-110132400D02*
X125210100Y-110632400D01*
X125810100Y-111132400D02*
X125810100Y-110132400D01*
D12*
X124994480Y-109819600D02*
X123978480Y-109819600D01*
X127039180Y-111442660D02*
X127039180Y-109832300D01*
D11*
X125210100Y-110632400D02*
X125210100Y-111132400D01*
X125210100Y-110632400D02*
X125810100Y-111132400D01*
D12*
X123973400Y-111442660D02*
X123973400Y-109832300D01*
X126018100Y-109819600D02*
X127034100Y-109819600D01*
%TO.C,R3*%
X142729840Y-89375700D02*
X144340200Y-89375700D01*
X142729840Y-92441480D02*
X144340200Y-92441480D01*
X142724760Y-92436400D02*
X142724760Y-91412780D01*
X144352900Y-91420400D02*
X144352900Y-92436400D01*
X142724760Y-89380780D02*
X142724760Y-90404400D01*
X144352900Y-90396780D02*
X144352900Y-89380780D01*
D11*
%TO.C,C10*%
X148740100Y-118032400D02*
X149940100Y-118032400D01*
X148740100Y-117332400D02*
X148740100Y-118032400D01*
X149940100Y-118032400D02*
X149940100Y-117332400D01*
X149940100Y-115732400D02*
X149940100Y-116432400D01*
X148740100Y-115732400D02*
X149940100Y-115732400D01*
X148740100Y-116432400D02*
X148740100Y-115732400D01*
%TO.C,P12*%
X132690100Y-50632400D02*
X117490100Y-50632400D01*
X124090100Y-50632400D02*
X124090100Y-51632400D01*
X132690100Y-50632400D02*
X132690100Y-58432400D01*
X132690100Y-56632400D02*
X133390100Y-56632400D01*
X124090100Y-51632400D02*
X126090100Y-51632400D01*
X132690100Y-57832400D02*
X133390100Y-57832400D01*
X132690100Y-55932400D02*
X117490100Y-55932400D01*
X119090100Y-50632400D02*
X119090100Y-51632400D01*
X117490100Y-58432400D02*
X117490100Y-50632400D01*
X119090100Y-51632400D02*
X121090100Y-51632400D01*
X132690100Y-58432400D02*
X117490100Y-58432400D01*
X121090100Y-51632400D02*
X121090100Y-50632400D01*
X133390100Y-57832400D02*
X133390100Y-56632400D01*
X126090100Y-51632400D02*
X126090100Y-50632400D01*
X129090100Y-50632400D02*
X129090100Y-51632400D01*
X129090100Y-51632400D02*
X131090100Y-51632400D01*
X131090100Y-51632400D02*
X131090100Y-50632400D01*
D19*
%TO.C,U9*%
X132279060Y-110293040D02*
X131179240Y-111392860D01*
X132581320Y-110293040D02*
X131080180Y-111791640D01*
X131003980Y-110227000D02*
X131003980Y-115357800D01*
X132881040Y-110293040D02*
X131080180Y-112091360D01*
X131003980Y-115357800D02*
X134956220Y-115357800D01*
X131880280Y-110293040D02*
X131080180Y-111093140D01*
X134956220Y-110227000D02*
X131003980Y-110227000D01*
X134956220Y-115357800D02*
X134956220Y-110227000D01*
X131580560Y-110293040D02*
X131080180Y-110793420D01*
D11*
%TO.C,R27*%
X135980100Y-80502400D02*
X135980100Y-79302400D01*
X138280100Y-79302400D02*
X137580100Y-79302400D01*
X136680100Y-80502400D02*
X135980100Y-80502400D01*
X138280100Y-80502400D02*
X138280100Y-79302400D01*
X137580100Y-80502400D02*
X138280100Y-80502400D01*
X135980100Y-79302400D02*
X136680100Y-79302400D01*
%TO.C,C8*%
X128180100Y-106252400D02*
X128180100Y-105552400D01*
X129380100Y-106252400D02*
X128180100Y-106252400D01*
X129380100Y-103952400D02*
X128180100Y-103952400D01*
X129380100Y-105552400D02*
X129380100Y-106252400D01*
X128180100Y-103952400D02*
X128180100Y-104652400D01*
X129380100Y-104652400D02*
X129380100Y-103952400D01*
D12*
%TO.C,F1*%
X159490100Y-79829400D02*
X159490100Y-82115400D01*
X154410100Y-82115400D02*
X156061100Y-82115400D01*
X154410100Y-79829400D02*
X154410100Y-82115400D01*
X157839100Y-79829400D02*
X159490100Y-79829400D01*
X159490100Y-82115400D02*
X157839100Y-82115400D01*
X156061100Y-79829400D02*
X154410100Y-79829400D01*
D11*
%TO.C,R16*%
X121690100Y-73132400D02*
X120990100Y-73132400D01*
X120990100Y-73132400D02*
X120990100Y-71932400D01*
X123290100Y-71932400D02*
X122590100Y-71932400D01*
X122590100Y-73132400D02*
X123290100Y-73132400D01*
X120990100Y-71932400D02*
X121690100Y-71932400D01*
X123290100Y-73132400D02*
X123290100Y-71932400D01*
%TO.C,C4*%
X146320100Y-92142400D02*
X147020100Y-92142400D01*
X147020100Y-93342400D02*
X146320100Y-93342400D01*
X144720100Y-93342400D02*
X145420100Y-93342400D01*
X147020100Y-92142400D02*
X147020100Y-93342400D01*
X144720100Y-92142400D02*
X144720100Y-93342400D01*
X145420100Y-92142400D02*
X144720100Y-92142400D01*
%TO.C,R17*%
X123550100Y-84462400D02*
X122850100Y-84462400D01*
X125150100Y-85662400D02*
X124450100Y-85662400D01*
X122850100Y-84462400D02*
X122850100Y-85662400D01*
X122850100Y-85662400D02*
X123550100Y-85662400D01*
X124450100Y-84462400D02*
X125150100Y-84462400D01*
X125150100Y-84462400D02*
X125150100Y-85662400D01*
D12*
%TO.C,R10*%
X151885440Y-116734020D02*
X151885440Y-115710400D01*
X151885440Y-113678400D02*
X151885440Y-114702020D01*
X151880360Y-116739100D02*
X150270000Y-116739100D01*
X150257300Y-114694400D02*
X150257300Y-113678400D01*
X150257300Y-115718020D02*
X150257300Y-116734020D01*
X151880360Y-113673320D02*
X150270000Y-113673320D01*
%TO.C,D2*%
X149025100Y-92798400D02*
X149787100Y-92798400D01*
X149787100Y-92798400D02*
X149787100Y-95846400D01*
X149787100Y-95846400D02*
X149025100Y-95846400D01*
X149025100Y-95846400D02*
X149025100Y-92798400D01*
D11*
%TO.C,C5*%
X130480100Y-97042400D02*
X129280100Y-97042400D01*
X130480100Y-94742400D02*
X129280100Y-94742400D01*
X129280100Y-97042400D02*
X129280100Y-96342400D01*
X130480100Y-95442400D02*
X130480100Y-94742400D01*
X130480100Y-96342400D02*
X130480100Y-97042400D01*
X129280100Y-94742400D02*
X129280100Y-95442400D01*
D12*
%TO.C,F10*%
X125113100Y-123283400D02*
X125113100Y-121632400D01*
X125113100Y-121632400D02*
X122827100Y-121632400D01*
X125113100Y-126712400D02*
X122827100Y-126712400D01*
X122827100Y-126712400D02*
X122827100Y-125061400D01*
X122827100Y-121632400D02*
X122827100Y-123283400D01*
X125113100Y-125061400D02*
X125113100Y-126712400D01*
D11*
%TO.C,C2*%
X149090100Y-83562400D02*
X149090100Y-84262400D01*
X149090100Y-82662400D02*
X149090100Y-81962400D01*
X149090100Y-84262400D02*
X150290100Y-84262400D01*
X150290100Y-81962400D02*
X150290100Y-82662400D01*
X150290100Y-84262400D02*
X150290100Y-83562400D01*
X149090100Y-81962400D02*
X150290100Y-81962400D01*
%TO.C,C6*%
X134500100Y-109572400D02*
X134500100Y-108372400D01*
X132200100Y-109572400D02*
X132200100Y-108372400D01*
X132200100Y-108372400D02*
X132900100Y-108372400D01*
X134500100Y-108372400D02*
X133800100Y-108372400D01*
X133800100Y-109572400D02*
X134500100Y-109572400D01*
X132900100Y-109572400D02*
X132200100Y-109572400D01*
%TO.C,Sw2*%
X124890100Y-68812400D02*
X124890100Y-62812400D01*
X121390100Y-62812400D02*
X121390100Y-68812400D01*
X121890100Y-62812400D02*
X121890100Y-63562400D01*
X121890100Y-68812400D02*
X121890100Y-68062400D01*
X123640100Y-67562400D02*
X123640100Y-64062400D01*
X122640100Y-64062400D02*
X122640100Y-67562400D01*
X123890100Y-63812400D02*
X122390100Y-63812400D01*
X124890100Y-62812400D02*
X124215100Y-62812400D01*
X123640100Y-64062400D02*
X122640100Y-64062400D01*
X121390100Y-68812400D02*
X122065100Y-68812400D01*
X121390100Y-62812400D02*
X122065100Y-62812400D01*
X122390100Y-63812400D02*
X122390100Y-67812400D01*
X121890100Y-68062400D02*
X124390100Y-68062400D01*
X122640100Y-67562400D02*
X123640100Y-67562400D01*
X122390100Y-67812400D02*
X123890100Y-67812400D01*
X121890100Y-63562400D02*
X124390100Y-63562400D01*
X124390100Y-68062400D02*
X124390100Y-68812400D01*
X124890100Y-68812400D02*
X124215100Y-68812400D01*
X124390100Y-63562400D02*
X124390100Y-62812400D01*
X123890100Y-67812400D02*
X123890100Y-63812400D01*
%TO.C,C11*%
X126700100Y-77472400D02*
X126700100Y-78172400D01*
X127900100Y-75872400D02*
X127900100Y-76572400D01*
X126700100Y-78172400D02*
X127900100Y-78172400D01*
X126700100Y-76572400D02*
X126700100Y-75872400D01*
X127900100Y-78172400D02*
X127900100Y-77472400D01*
X126700100Y-75872400D02*
X127900100Y-75872400D01*
D12*
%TO.C,R21*%
X137911100Y-70209400D02*
X139562100Y-70209400D01*
X142991100Y-70209400D02*
X141340100Y-70209400D01*
X141340100Y-72495400D02*
X142991100Y-72495400D01*
X142991100Y-72495400D02*
X142991100Y-70209400D01*
X139562100Y-72495400D02*
X137911100Y-72495400D01*
X137911100Y-72495400D02*
X137911100Y-70209400D01*
D11*
%TO.C,R15*%
X123320100Y-111232400D02*
X122620100Y-111232400D01*
X123320100Y-110032400D02*
X123320100Y-111232400D01*
X121020100Y-110032400D02*
X121020100Y-111232400D01*
X122620100Y-110032400D02*
X123320100Y-110032400D01*
X121720100Y-110032400D02*
X121020100Y-110032400D01*
X121020100Y-111232400D02*
X121720100Y-111232400D01*
%TO.C,C9*%
X141090100Y-102802400D02*
X141790100Y-102802400D01*
X143390100Y-101602400D02*
X143390100Y-102802400D01*
X143390100Y-102802400D02*
X142690100Y-102802400D01*
X142690100Y-101602400D02*
X143390100Y-101602400D01*
X141790100Y-101602400D02*
X141090100Y-101602400D01*
X141090100Y-101602400D02*
X141090100Y-102802400D01*
%TO.C,R30*%
X123420100Y-88372400D02*
X123420100Y-87172400D01*
X123420100Y-87172400D02*
X122720100Y-87172400D01*
X121120100Y-88372400D02*
X121120100Y-87172400D01*
X121820100Y-88372400D02*
X121120100Y-88372400D01*
X122720100Y-88372400D02*
X123420100Y-88372400D01*
X121120100Y-87172400D02*
X121820100Y-87172400D01*
D12*
%TO.C,F3*%
X154527100Y-96492400D02*
X154527100Y-98143400D01*
X156813100Y-99921400D02*
X156813100Y-101572400D01*
X156813100Y-101572400D02*
X154527100Y-101572400D01*
X156813100Y-98143400D02*
X156813100Y-96492400D01*
X154527100Y-101572400D02*
X154527100Y-99921400D01*
X156813100Y-96492400D02*
X154527100Y-96492400D01*
D18*
%TO.C,P4*%
X145300100Y-89392400D02*
X145300100Y-84312400D01*
X147840100Y-84312400D02*
X147840100Y-89392400D01*
X147840100Y-89392400D02*
X145300100Y-89392400D01*
X147840100Y-86852400D02*
X145300100Y-86852400D01*
X145300100Y-84312400D02*
X147840100Y-84312400D01*
D11*
%TO.C,R28*%
X124990100Y-88222400D02*
X123790100Y-88222400D01*
X123790100Y-85922400D02*
X123790100Y-86622400D01*
X124990100Y-85922400D02*
X123790100Y-85922400D01*
X124990100Y-86622400D02*
X124990100Y-85922400D01*
X124990100Y-87522400D02*
X124990100Y-88222400D01*
X123790100Y-88222400D02*
X123790100Y-87522400D01*
D19*
%TO.C,U5*%
X128020100Y-83142400D02*
X127320100Y-83842400D01*
X127670100Y-83142400D02*
X127320100Y-83492400D01*
X127320100Y-87942400D02*
X130620100Y-87942400D01*
X130620100Y-87942400D02*
X130620100Y-83142400D01*
X128670100Y-83142400D02*
X127370100Y-84442400D01*
X127320100Y-83142400D02*
X127320100Y-87942400D01*
X130620100Y-83142400D02*
X127320100Y-83142400D01*
X128320100Y-83142400D02*
X127320100Y-84142400D01*
D11*
%TO.C,R14*%
X121720100Y-107542400D02*
X121020100Y-107542400D01*
X123320100Y-108742400D02*
X122620100Y-108742400D01*
X122620100Y-107542400D02*
X123320100Y-107542400D01*
X123320100Y-107542400D02*
X123320100Y-108742400D01*
X121020100Y-108742400D02*
X121720100Y-108742400D01*
X121020100Y-107542400D02*
X121020100Y-108742400D01*
D18*
%TO.C,P5*%
X139340100Y-90062400D02*
X141880100Y-90062400D01*
X141880100Y-92602400D02*
X139340100Y-92602400D01*
X139340100Y-92602400D02*
X139340100Y-87522400D01*
X141880100Y-87522400D02*
X141880100Y-92602400D01*
X139340100Y-87522400D02*
X141880100Y-87522400D01*
D19*
%TO.C,U4*%
X139724700Y-108978520D02*
X144855500Y-108978520D01*
X144789460Y-106603620D02*
X143290860Y-105102480D01*
X144789460Y-105602860D02*
X144289080Y-105102480D01*
X144855500Y-108978520D02*
X144855500Y-105026280D01*
X144855500Y-105026280D02*
X139724700Y-105026280D01*
X144789460Y-105902580D02*
X143989360Y-105102480D01*
X144789460Y-106903340D02*
X142991140Y-105102480D01*
X144789460Y-106301360D02*
X143689640Y-105201540D01*
X139724700Y-105026280D02*
X139724700Y-108978520D01*
D12*
%TO.C,R25*%
X140832900Y-114120400D02*
X140832900Y-115136400D01*
X140832900Y-113096780D02*
X140832900Y-112080780D01*
X139209840Y-115141480D02*
X140820200Y-115141480D01*
X139209840Y-112075700D02*
X140820200Y-112075700D01*
X139204760Y-112080780D02*
X139204760Y-113104400D01*
X139204760Y-115136400D02*
X139204760Y-114112780D01*
%TO.C,R26*%
X138910360Y-115149100D02*
X137300000Y-115149100D01*
X138915440Y-115144020D02*
X138915440Y-114120400D01*
X138910360Y-112083320D02*
X137300000Y-112083320D01*
X137287300Y-114128020D02*
X137287300Y-115144020D01*
X138915440Y-112088400D02*
X138915440Y-113112020D01*
X137287300Y-113104400D02*
X137287300Y-112088400D01*
D11*
%TO.C,P1*%
X162090100Y-53562400D02*
X162090100Y-52562400D01*
X157090100Y-53562400D02*
X157090100Y-52562400D01*
X153490100Y-60362400D02*
X153490100Y-52562400D01*
X167090100Y-53562400D02*
X167090100Y-52562400D01*
X169390100Y-59762400D02*
X169390100Y-58562400D01*
X165090100Y-53562400D02*
X167090100Y-53562400D01*
X168690100Y-52562400D02*
X168690100Y-60362400D01*
X168690100Y-57862400D02*
X153490100Y-57862400D01*
X160090100Y-53562400D02*
X162090100Y-53562400D01*
X168690100Y-60362400D02*
X153490100Y-60362400D01*
X168690100Y-58562400D02*
X169390100Y-58562400D01*
X168690100Y-52562400D02*
X153490100Y-52562400D01*
X168690100Y-59762400D02*
X169390100Y-59762400D01*
X155090100Y-52562400D02*
X155090100Y-53562400D01*
X160090100Y-52562400D02*
X160090100Y-53562400D01*
X155090100Y-53562400D02*
X157090100Y-53562400D01*
X165090100Y-52562400D02*
X165090100Y-53562400D01*
%TO.C,P15*%
X139900100Y-127392400D02*
X137900100Y-127392400D01*
X126300100Y-120592400D02*
X141500100Y-120592400D01*
X132900100Y-127392400D02*
X132900100Y-128392400D01*
X126300100Y-128392400D02*
X141500100Y-128392400D01*
X126300100Y-121192400D02*
X125600100Y-121192400D01*
X134900100Y-127392400D02*
X132900100Y-127392400D01*
X137900100Y-127392400D02*
X137900100Y-128392400D01*
X129900100Y-128392400D02*
X129900100Y-127392400D01*
X141500100Y-120592400D02*
X141500100Y-128392400D01*
X129900100Y-127392400D02*
X127900100Y-127392400D01*
X125600100Y-121192400D02*
X125600100Y-122392400D01*
X139900100Y-128392400D02*
X139900100Y-127392400D01*
X126300100Y-123092400D02*
X141500100Y-123092400D01*
X134900100Y-128392400D02*
X134900100Y-127392400D01*
X126300100Y-128392400D02*
X126300100Y-120592400D01*
X126300100Y-122392400D02*
X125600100Y-122392400D01*
X127900100Y-127392400D02*
X127900100Y-128392400D01*
%TO.C,C14*%
X134830100Y-78312400D02*
X134830100Y-79012400D01*
X136030100Y-79012400D02*
X136030100Y-78312400D01*
X134830100Y-76712400D02*
X136030100Y-76712400D01*
X134830100Y-77412400D02*
X134830100Y-76712400D01*
X134830100Y-79012400D02*
X136030100Y-79012400D01*
X136030100Y-76712400D02*
X136030100Y-77412400D01*
D12*
%TO.C,D1*%
X152481100Y-84626400D02*
X151719100Y-84626400D01*
X151719100Y-84626400D02*
X151719100Y-81578400D01*
X151719100Y-81578400D02*
X152481100Y-81578400D01*
X152481100Y-81578400D02*
X152481100Y-84626400D01*
%TO.C,R4*%
X144372900Y-93886780D02*
X144372900Y-92870780D01*
X142744760Y-95926400D02*
X142744760Y-94902780D01*
X142749840Y-95931480D02*
X144360200Y-95931480D01*
X144372900Y-94910400D02*
X144372900Y-95926400D01*
X142749840Y-92865700D02*
X144360200Y-92865700D01*
X142744760Y-92870780D02*
X142744760Y-93894400D01*
D11*
%TO.C,C3*%
X130790100Y-91212400D02*
X130790100Y-91912400D01*
X130790100Y-93512400D02*
X130790100Y-92812400D01*
X129590100Y-91212400D02*
X130790100Y-91212400D01*
X129590100Y-93512400D02*
X130790100Y-93512400D01*
X129590100Y-92812400D02*
X129590100Y-93512400D01*
X129590100Y-91912400D02*
X129590100Y-91212400D01*
%TO.C,U1*%
X138020100Y-80882400D02*
X138020100Y-81082400D01*
X138020100Y-86082400D02*
X138020100Y-85882400D01*
X138020100Y-80882400D02*
X142220100Y-80882400D01*
X138020100Y-86082400D02*
X142220100Y-86082400D01*
X142220100Y-86082400D02*
X142220100Y-85882400D01*
X142220100Y-85882400D02*
X142220100Y-81082400D01*
X138020100Y-81082400D02*
X138020100Y-85882400D01*
X142220100Y-80882400D02*
X142220100Y-81082400D01*
X138899186Y-81482400D02*
G75*
G03*
X138899186Y-81482400I-279086J0D01*
G01*
%TO.C,C7*%
X136520100Y-108352400D02*
X137220100Y-108352400D01*
X137220100Y-109552400D02*
X136520100Y-109552400D01*
X138820100Y-108352400D02*
X138120100Y-108352400D01*
X138820100Y-109552400D02*
X138820100Y-108352400D01*
X138120100Y-109552400D02*
X138820100Y-109552400D01*
X136520100Y-109552400D02*
X136520100Y-108352400D01*
D15*
%TO.C,U3*%
X130570100Y-101332400D02*
X131270100Y-102032400D01*
X130570100Y-97582400D02*
X130570100Y-102082400D01*
X130570100Y-102082400D02*
X137170100Y-102082400D01*
X137170100Y-102082400D02*
X137170100Y-97582400D01*
X137170100Y-97582400D02*
X130570100Y-97582400D01*
X130570100Y-100932400D02*
X131670100Y-102032400D01*
X130570100Y-101132400D02*
X131470100Y-102032400D01*
X130570100Y-101732400D02*
X130870100Y-102032400D01*
X130570100Y-101532400D02*
X131070100Y-102032400D01*
D11*
%TO.C,C1*%
X134870100Y-83882400D02*
X134870100Y-84582400D01*
X134870100Y-82982400D02*
X134870100Y-82282400D01*
X136070100Y-84582400D02*
X136070100Y-83882400D01*
X134870100Y-82282400D02*
X136070100Y-82282400D01*
X136070100Y-82282400D02*
X136070100Y-82982400D01*
X134870100Y-84582400D02*
X136070100Y-84582400D01*
%TO.C,C13*%
X135350100Y-66192400D02*
X135350100Y-65492400D01*
X135350100Y-65492400D02*
X136550100Y-65492400D01*
X136550100Y-67792400D02*
X136550100Y-67092400D01*
X136550100Y-65492400D02*
X136550100Y-66192400D01*
X135350100Y-67092400D02*
X135350100Y-67792400D01*
X135350100Y-67792400D02*
X136550100Y-67792400D01*
D12*
%TO.C,R20*%
X142991100Y-69555400D02*
X142991100Y-67269400D01*
X141340100Y-69555400D02*
X142991100Y-69555400D01*
X142991100Y-67269400D02*
X141340100Y-67269400D01*
X137911100Y-67269400D02*
X139562100Y-67269400D01*
X137911100Y-69555400D02*
X137911100Y-67269400D01*
X139562100Y-69555400D02*
X137911100Y-69555400D01*
D11*
%TO.C,X2*%
X135010100Y-76102400D02*
X135010100Y-72702400D01*
X128210100Y-76102400D02*
X128210100Y-72702400D01*
X128210100Y-72702400D02*
X135010100Y-72702400D01*
X135010100Y-76102400D02*
X128210100Y-76102400D01*
%TO.C,C16*%
X127930100Y-73412400D02*
X127930100Y-72712400D01*
X127930100Y-75012400D02*
X126730100Y-75012400D01*
X127930100Y-74312400D02*
X127930100Y-75012400D01*
X126730100Y-72712400D02*
X126730100Y-73412400D01*
X126730100Y-75012400D02*
X126730100Y-74312400D01*
X127930100Y-72712400D02*
X126730100Y-72712400D01*
%TO.C,R31*%
X123420100Y-89702400D02*
X122720100Y-89702400D01*
X122720100Y-90902400D02*
X123420100Y-90902400D01*
X121120100Y-90902400D02*
X121120100Y-89702400D01*
X121120100Y-89702400D02*
X121820100Y-89702400D01*
X123420100Y-90902400D02*
X123420100Y-89702400D01*
X121820100Y-90902400D02*
X121120100Y-90902400D01*
%TO.C,C12*%
X134100100Y-86132400D02*
X132900100Y-86132400D01*
X132900100Y-83832400D02*
X132900100Y-84532400D01*
X134100100Y-83832400D02*
X132900100Y-83832400D01*
X134100100Y-84532400D02*
X134100100Y-83832400D01*
X134100100Y-85432400D02*
X134100100Y-86132400D01*
X132900100Y-86132400D02*
X132900100Y-85432400D01*
%TD*%
D20*
%TO.C,P8*%
X164630100Y-62382400D03*
D21*
X167170100Y-62382400D03*
X164630100Y-64922400D03*
X167170100Y-64922400D03*
X164630100Y-67462400D03*
X167170100Y-67462400D03*
X164630100Y-70002400D03*
X167170100Y-70002400D03*
X164630100Y-72542400D03*
X167170100Y-72542400D03*
X164630100Y-75082400D03*
X167170100Y-75082400D03*
X164630100Y-77622400D03*
X167170100Y-77622400D03*
X164630100Y-80162400D03*
X167170100Y-80162400D03*
X164630100Y-82702400D03*
X167170100Y-82702400D03*
X164630100Y-85242400D03*
X167170100Y-85242400D03*
X164630100Y-87782400D03*
X167170100Y-87782400D03*
X164630100Y-90322400D03*
X167170100Y-90322400D03*
X164630100Y-92862400D03*
X167170100Y-92862400D03*
X164630100Y-95402400D03*
X167170100Y-95402400D03*
X164630100Y-97942400D03*
X167170100Y-97942400D03*
X164630100Y-100482400D03*
X167170100Y-100482400D03*
X164630100Y-103022400D03*
X167170100Y-103022400D03*
X164630100Y-105562400D03*
X167170100Y-105562400D03*
X164630100Y-108102400D03*
X167170100Y-108102400D03*
X164630100Y-110642400D03*
X167170100Y-110642400D03*
X164630100Y-113182400D03*
X167170100Y-113182400D03*
X164630100Y-115722400D03*
X167170100Y-115722400D03*
X164630100Y-118262400D03*
X167170100Y-118262400D03*
%TD*%
D20*
%TO.C,P9*%
X116370100Y-62382400D03*
D21*
X118910100Y-62382400D03*
X116370100Y-64922400D03*
X118910100Y-64922400D03*
X116370100Y-67462400D03*
X118910100Y-67462400D03*
X116370100Y-70002400D03*
X118910100Y-70002400D03*
X116370100Y-72542400D03*
X118910100Y-72542400D03*
X116370100Y-75082400D03*
X118910100Y-75082400D03*
X116370100Y-77622400D03*
X118910100Y-77622400D03*
X116370100Y-80162400D03*
X118910100Y-80162400D03*
X116370100Y-82702400D03*
X118910100Y-82702400D03*
X116370100Y-85242400D03*
X118910100Y-85242400D03*
X116370100Y-87782400D03*
X118910100Y-87782400D03*
X116370100Y-90322400D03*
X118910100Y-90322400D03*
X116370100Y-92862400D03*
X118910100Y-92862400D03*
X116370100Y-95402400D03*
X118910100Y-95402400D03*
X116370100Y-97942400D03*
X118910100Y-97942400D03*
X116370100Y-100482400D03*
X118910100Y-100482400D03*
X116370100Y-103022400D03*
X118910100Y-103022400D03*
X116370100Y-105562400D03*
X118910100Y-105562400D03*
X116370100Y-108102400D03*
X118910100Y-108102400D03*
X116370100Y-110642400D03*
X118910100Y-110642400D03*
X116370100Y-113182400D03*
X118910100Y-113182400D03*
X116370100Y-115722400D03*
X118910100Y-115722400D03*
X116370100Y-118262400D03*
X118910100Y-118262400D03*
%TD*%
D22*
%TO.C,P11*%
X143610100Y-113662400D03*
D23*
X146150100Y-113662400D03*
%TD*%
D24*
%TO.C,P6*%
X140600100Y-98762400D03*
D25*
X140600100Y-96222400D03*
%TD*%
D22*
%TO.C,P10*%
X143590100Y-117752400D03*
D23*
X146130100Y-117752400D03*
%TD*%
D24*
%TO.C,P3*%
X146590100Y-78172400D03*
D25*
X146590100Y-80712400D03*
%TD*%
D24*
%TO.C,P4*%
X146570100Y-85582400D03*
D25*
X146570100Y-88122400D03*
%TD*%
D24*
%TO.C,P5*%
X140610100Y-91332400D03*
D25*
X140610100Y-88792400D03*
%TD*%
M02*
