M48
; DRILL file {KiCad 5.99.0-unknown-b63c482347~127~ubuntu20.04.1} date Thu Apr 29 12:01:29 2021
; FORMAT={-:-/ absolute / inch / decimal}
; #@! TF.CreationDate,2021-04-29T12:01:29+02:00
; #@! TF.GenerationSoftware,Kicad,Pcbnew,5.99.0-unknown-b63c482347~127~ubuntu20.04.1
; #@! TF.FileFunction,Plated,1,2,PTH
FMAT,2
INCH
; #@! TA.AperFunction,Plated,PTH,ViaDrill
T1C0.0118
; #@! TA.AperFunction,Plated,PTH,ViaDrill
T2C0.0157
; #@! TA.AperFunction,Plated,PTH,ComponentDrill
T3C0.0400
; #@! TA.AperFunction,Plated,PTH,ComponentDrill
T4C0.0433
; #@! TA.AperFunction,Plated,PTH,ComponentDrill
T5C0.0551
%
G90
G05
T1
X4.8205Y-3.2883
X4.8504Y-2.3706
X4.8713Y-2.8832
X4.8972Y-3.0973
X4.9709Y-3.4749
X5.013Y-2.3654
X5.0165Y-4.2572
X5.0169Y-4.1556
X5.0173Y-4.356
X5.0198Y-2.9743
X5.2346Y-3.443
X5.3032Y-2.5918
X5.3335Y-3.3615
X5.3476Y-2.8214
X5.3606Y-3.2091
X5.8516Y-3.2438
X6.0252Y-3.1918
X6.028Y-3.3552
T2
X4.6291Y-3.784
X4.6551Y-4.0044
X4.7417Y-2.8966
X4.7429Y-3.7115
X4.7485Y-4.3274
X4.7532Y-2.8139
X4.7535Y-3.3084
X4.761Y-3.9883
X4.7721Y-3.2182
X4.7752Y-3.0466
X4.7867Y-3.9568
X4.7933Y-2.7249
X4.7992Y-3.3135
X4.8063Y-3.3855
X4.8089Y-3.816
X4.8114Y-4.0942
X4.8146Y-4.3088
X4.8555Y-3.8469
X4.8787Y-4.419
X4.8813Y-3.1274
X4.8889Y-3.8168
X4.9039Y-2.8355
X4.9098Y-4.5052
X4.9181Y-2.7737
X4.9209Y-4.6115
X4.9236Y-3.967
X4.926Y-3.4273
X4.93Y-3.2307
X4.9302Y-3.8196
X4.9343Y-3.0005
X4.9465Y-3.7111
X4.9473Y-2.749
X4.9508Y-3.256
X4.9539Y-2.9434
X4.9583Y-3.1387
X4.9673Y-4.9206
X4.9689Y-4.5375
X4.985Y-3.6174
X5.0134Y-4.6013
X5.0541Y-3.3119
X5.0541Y-3.384
X5.0583Y-3.0485
X5.0728Y-4.0694
X5.0752Y-3.8229
X5.0772Y-3.4847
X5.0894Y-3.2784
X5.1043Y-3.4481
X5.1059Y-3.3985
X5.1097Y-3.3126
X5.1146Y-3.9765
X5.1161Y-2.8308
X5.1228Y-3.8497
X5.1232Y-3.2127
X5.1323Y-4.6938
X5.1366Y-4.5997
X5.139Y-3.5584
X5.1449Y-3.7084
X5.1508Y-3.9568
X5.1701Y-2.8639
X5.1736Y-4.3472
X5.1886Y-4.5029
X5.2102Y-3.0091
X5.2212Y-3.2401
X5.2244Y-4.4753
X5.2429Y-3.6414
X5.248Y-2.7115
X5.2587Y-3.2072
X5.2618Y-4.4418
X5.2721Y-3.7472
X5.276Y-3.5792
X5.2776Y-4.1143
X5.2917Y-3.967
X5.2961Y-3.2918
X5.2976Y-4.4068
X5.2992Y-4.5371
X5.3098Y-3.73
X5.3098Y-3.9001
X5.3106Y-3.6568
X5.3319Y-3.0032
X5.3333Y-3.1661
X5.3461Y-4.1379
X5.352Y-3.5808
X5.3539Y-4.2958
X5.3591Y-3.967
X5.3612Y-4.2331
X5.363Y-3.5032
X5.3658Y-3.2572
X5.3728Y-3.1001
X5.3764Y-3.0686
X5.4028Y-3.1765
X5.4032Y-2.6895
X5.4035Y-3.0241
X5.4134Y-4.0476
X5.4173Y-4.6198
X5.4185Y-3.9603
X5.4453Y-3.3182
X5.4744Y-4.4733
X5.5118Y-3.0938
X5.5248Y-4.3867
X5.5315Y-2.6599
X5.5378Y-3.3021
X5.5532Y-3.2304
X5.5532Y-3.4143
X5.5665Y-4.0278
X5.5945Y-2.9883
X5.6331Y-4.3836
X5.6435Y-3.8178
X5.6453Y-3.8544
X5.6598Y-2.754
X5.6784Y-3.9099
X5.7874Y-3.6895
X5.9476Y-3.317
X6.1496Y-4.4591
X6.2516Y-4.5879
T3
X4.5815Y-2.456
X4.5815Y-2.556
X4.5815Y-2.656
X4.5815Y-2.756
X4.5815Y-2.856
X4.5815Y-2.956
X4.5815Y-3.056
X4.5815Y-3.156
X4.5815Y-3.256
X4.5815Y-3.356
X4.5815Y-3.456
X4.5815Y-3.556
X4.5815Y-3.656
X4.5815Y-3.756
X4.5815Y-3.856
X4.5815Y-3.956
X4.5815Y-4.056
X4.5815Y-4.156
X4.5815Y-4.256
X4.5815Y-4.356
X4.5815Y-4.456
X4.5815Y-4.556
X4.5815Y-4.656
X4.6815Y-2.456
X4.6815Y-2.556
X4.6815Y-2.656
X4.6815Y-2.756
X4.6815Y-2.856
X4.6815Y-2.956
X4.6815Y-3.056
X4.6815Y-3.156
X4.6815Y-3.256
X4.6815Y-3.356
X4.6815Y-3.456
X4.6815Y-3.556
X4.6815Y-3.656
X4.6815Y-3.756
X4.6815Y-3.856
X4.6815Y-3.956
X4.6815Y-4.056
X4.6815Y-4.156
X4.6815Y-4.256
X4.6815Y-4.356
X4.6815Y-4.456
X4.6815Y-4.556
X4.6815Y-4.656
X6.4815Y-2.456
X6.4815Y-2.556
X6.4815Y-2.656
X6.4815Y-2.756
X6.4815Y-2.856
X6.4815Y-2.956
X6.4815Y-3.056
X6.4815Y-3.156
X6.4815Y-3.256
X6.4815Y-3.356
X6.4815Y-3.456
X6.4815Y-3.556
X6.4815Y-3.656
X6.4815Y-3.756
X6.4815Y-3.856
X6.4815Y-3.956
X6.4815Y-4.056
X6.4815Y-4.156
X6.4815Y-4.256
X6.4815Y-4.356
X6.4815Y-4.456
X6.4815Y-4.556
X6.4815Y-4.656
X6.5815Y-2.456
X6.5815Y-2.556
X6.5815Y-2.656
X6.5815Y-2.756
X6.5815Y-2.856
X6.5815Y-2.956
X6.5815Y-3.056
X6.5815Y-3.156
X6.5815Y-3.256
X6.5815Y-3.356
X6.5815Y-3.456
X6.5815Y-3.556
X6.5815Y-3.656
X6.5815Y-3.756
X6.5815Y-3.856
X6.5815Y-3.956
X6.5815Y-4.056
X6.5815Y-4.156
X6.5815Y-4.256
X6.5815Y-4.356
X6.5815Y-4.456
X6.5815Y-4.556
X6.5815Y-4.656
T4
X5.5354Y-3.7883
X5.5354Y-3.8883
X5.5358Y-3.4958
X5.5358Y-3.5958
X5.6532Y-4.6359
X5.6539Y-4.4749
X5.7532Y-4.6359
X5.7539Y-4.4749
X5.7705Y-3.3694
X5.7705Y-3.4694
X5.7713Y-3.0777
X5.7713Y-3.1777
T5
X4.728Y-2.1194
X4.9248Y-2.1194
X5.0748Y-4.9288
X5.1217Y-2.1194
X5.2717Y-4.9288
X5.4685Y-4.9288
X5.7256Y-4.9277
X5.8685Y-4.2068
X5.9224Y-4.9277
X6.0654Y-4.2068
X6.1193Y-4.9277
X6.1453Y-2.1954
X6.2622Y-4.2068
X6.3421Y-2.1954
X6.539Y-2.1954
T0
M30
