%TF.GenerationSoftware,KiCad,Pcbnew,5.99.0-unknown-b63c482347~127~ubuntu20.04.1*%
%TF.CreationDate,2021-04-29T12:01:30+02:00*%
%TF.ProjectId,bbb-can-bus-cape,6262622d-6361-46e2-9d62-75732d636170,rev?*%
%TF.SameCoordinates,Original*%
%TF.FileFunction,Soldermask,Top*%
%TF.FilePolarity,Negative*%
%FSLAX46Y46*%
G04 Gerber Fmt 4.6, Leading zero omitted, Abs format (unit mm)*
G04 Created by KiCad (PCBNEW 5.99.0-unknown-b63c482347~127~ubuntu20.04.1) date 2021-04-29 12:01:30*
%MOMM*%
%LPD*%
G01*
G04 APERTURE LIST*
G04 Aperture macros list*
%AMRoundRect*
0 Rectangle with rounded corners*
0 $1 Rounding radius*
0 $2 $3 $4 $5 $6 $7 $8 $9 X,Y pos of 4 corners*
0 Add a 4 corners polygon primitive as box body*
4,1,4,$2,$3,$4,$5,$6,$7,$8,$9,$2,$3,0*
0 Add four circle primitives for the rounded corners*
1,1,$1+$1,$2,$3*
1,1,$1+$1,$4,$5*
1,1,$1+$1,$6,$7*
1,1,$1+$1,$8,$9*
0 Add four rect primitives between the rounded corners*
20,1,$1+$1,$2,$3,$4,$5,0*
20,1,$1+$1,$4,$5,$6,$7,0*
20,1,$1+$1,$6,$7,$8,$9,0*
20,1,$1+$1,$8,$9,$2,$3,0*%
G04 Aperture macros list end*
%ADD10R,1.727200X1.727200*%
%ADD11O,1.727200X1.727200*%
%ADD12RoundRect,0.010000X-0.300000X-0.500000X0.300000X-0.500000X0.300000X0.500000X-0.300000X0.500000X0*%
%ADD13RoundRect,0.010000X0.300000X0.500000X-0.300000X0.500000X-0.300000X-0.500000X0.300000X-0.500000X0*%
%ADD14R,2.032000X1.524000*%
%ADD15R,1.000000X0.600000*%
%ADD16RoundRect,0.030000X-0.725000X-0.225000X0.725000X-0.225000X0.725000X0.225000X-0.725000X0.225000X0*%
%ADD17RoundRect,0.010000X-0.444500X-0.698500X0.444500X-0.698500X0.444500X0.698500X-0.444500X0.698500X0*%
%ADD18RoundRect,0.200000X-0.800000X1.250000X-0.800000X-1.250000X0.800000X-1.250000X0.800000X1.250000X0*%
%ADD19R,0.914400X0.914400*%
%ADD20C,3.200000*%
%ADD21R,1.397000X0.889000*%
%ADD22RoundRect,0.010000X-0.500000X0.300000X-0.500000X-0.300000X0.500000X-0.300000X0.500000X0.300000X0*%
%ADD23R,0.600000X1.000000*%
%ADD24RoundRect,0.030000X-0.170000X0.405000X-0.170000X-0.405000X0.170000X-0.405000X0.170000X0.405000X0*%
%ADD25RoundRect,0.030000X-2.100000X0.800000X-2.100000X-0.800000X2.100000X-0.800000X2.100000X0.800000X0*%
%ADD26RoundRect,0.100000X-0.950000X-1.200000X0.950000X-1.200000X0.950000X1.200000X-0.950000X1.200000X0*%
%ADD27R,1.524000X1.850000*%
%ADD28O,1.524000X1.850000*%
%ADD29RoundRect,0.010000X-0.700000X-0.200000X0.700000X-0.200000X0.700000X0.200000X-0.700000X0.200000X0*%
%ADD30RoundRect,0.010000X-0.400000X-0.500000X0.400000X-0.500000X0.400000X0.500000X-0.400000X0.500000X0*%
%ADD31R,1.850000X1.524000*%
%ADD32O,1.850000X1.524000*%
%ADD33RoundRect,0.010000X0.500000X-0.300000X0.500000X0.300000X-0.500000X0.300000X-0.500000X-0.300000X0*%
%ADD34RoundRect,0.010000X-0.655000X0.325000X-0.655000X-0.325000X0.655000X-0.325000X0.655000X0.325000X0*%
%ADD35R,1.524000X2.032000*%
%ADD36RoundRect,0.200000X0.800000X-1.250000X0.800000X1.250000X-0.800000X1.250000X-0.800000X-1.250000X0*%
%ADD37O,1.398880X0.799440*%
%ADD38RoundRect,0.050000X0.762000X1.016000X-0.762000X1.016000X-0.762000X-1.016000X0.762000X-1.016000X0*%
%ADD39O,1.650000X0.700000*%
%ADD40O,0.799440X1.398880*%
%ADD41O,0.550000X1.700200*%
%ADD42RoundRect,0.100000X0.950000X1.200000X-0.950000X1.200000X-0.950000X-1.200000X0.950000X-1.200000X0*%
G04 APERTURE END LIST*
D10*
%TO.C,P8*%
X164630100Y-62382400D03*
D11*
X167170100Y-62382400D03*
X164630100Y-64922400D03*
X167170100Y-64922400D03*
X164630100Y-67462400D03*
X167170100Y-67462400D03*
X164630100Y-70002400D03*
X167170100Y-70002400D03*
X164630100Y-72542400D03*
X167170100Y-72542400D03*
X164630100Y-75082400D03*
X167170100Y-75082400D03*
X164630100Y-77622400D03*
X167170100Y-77622400D03*
X164630100Y-80162400D03*
X167170100Y-80162400D03*
X164630100Y-82702400D03*
X167170100Y-82702400D03*
X164630100Y-85242400D03*
X167170100Y-85242400D03*
X164630100Y-87782400D03*
X167170100Y-87782400D03*
X164630100Y-90322400D03*
X167170100Y-90322400D03*
X164630100Y-92862400D03*
X167170100Y-92862400D03*
X164630100Y-95402400D03*
X167170100Y-95402400D03*
X164630100Y-97942400D03*
X167170100Y-97942400D03*
X164630100Y-100482400D03*
X167170100Y-100482400D03*
X164630100Y-103022400D03*
X167170100Y-103022400D03*
X164630100Y-105562400D03*
X167170100Y-105562400D03*
X164630100Y-108102400D03*
X167170100Y-108102400D03*
X164630100Y-110642400D03*
X167170100Y-110642400D03*
X164630100Y-113182400D03*
X167170100Y-113182400D03*
X164630100Y-115722400D03*
X167170100Y-115722400D03*
X164630100Y-118262400D03*
X167170100Y-118262400D03*
%TD*%
D10*
%TO.C,P9*%
X116370100Y-62382400D03*
D11*
X118910100Y-62382400D03*
X116370100Y-64922400D03*
X118910100Y-64922400D03*
X116370100Y-67462400D03*
X118910100Y-67462400D03*
X116370100Y-70002400D03*
X118910100Y-70002400D03*
X116370100Y-72542400D03*
X118910100Y-72542400D03*
X116370100Y-75082400D03*
X118910100Y-75082400D03*
X116370100Y-77622400D03*
X118910100Y-77622400D03*
X116370100Y-80162400D03*
X118910100Y-80162400D03*
X116370100Y-82702400D03*
X118910100Y-82702400D03*
X116370100Y-85242400D03*
X118910100Y-85242400D03*
X116370100Y-87782400D03*
X118910100Y-87782400D03*
X116370100Y-90322400D03*
X118910100Y-90322400D03*
X116370100Y-92862400D03*
X118910100Y-92862400D03*
X116370100Y-95402400D03*
X118910100Y-95402400D03*
X116370100Y-97942400D03*
X118910100Y-97942400D03*
X116370100Y-100482400D03*
X118910100Y-100482400D03*
X116370100Y-103022400D03*
X118910100Y-103022400D03*
X116370100Y-105562400D03*
X118910100Y-105562400D03*
X116370100Y-108102400D03*
X118910100Y-108102400D03*
X116370100Y-110642400D03*
X118910100Y-110642400D03*
X116370100Y-113182400D03*
X118910100Y-113182400D03*
X116370100Y-115722400D03*
X118910100Y-115722400D03*
X116370100Y-118262400D03*
X118910100Y-118262400D03*
%TD*%
D12*
%TO.C,R13*%
X121470100Y-105562400D03*
X122870100Y-105562400D03*
%TD*%
D13*
%TO.C,R18*%
X124290100Y-77592400D03*
X122890100Y-77592400D03*
%TD*%
D14*
%TO.C,F5*%
X162690100Y-121511400D03*
X162690100Y-124813400D03*
%TD*%
D15*
%TO.C,C17*%
X128290100Y-113492400D03*
X128290100Y-112092400D03*
%TD*%
D16*
%TO.C,U6*%
X122860100Y-79337400D03*
X122860100Y-79987400D03*
X122860100Y-80637400D03*
X122860100Y-81287400D03*
X127260100Y-81287400D03*
X127260100Y-80637400D03*
X127260100Y-79987400D03*
X127260100Y-79337400D03*
%TD*%
D12*
%TO.C,R24*%
X137450100Y-110882400D03*
X138850100Y-110882400D03*
%TD*%
%TO.C,R19*%
X123300100Y-83652400D03*
X124700100Y-83652400D03*
%TD*%
D17*
%TO.C,D10*%
X126462600Y-105552400D03*
X124557600Y-105552400D03*
%TD*%
D18*
%TO.C,Sw3*%
X127210100Y-94302400D03*
X127210100Y-101802400D03*
%TD*%
D13*
%TO.C,R5*%
X129100100Y-107072400D03*
X127700100Y-107072400D03*
%TD*%
D19*
%TO.C,D4*%
X135234100Y-117913400D03*
X135234100Y-119691400D03*
X137266100Y-118802400D03*
%TD*%
D20*
%TO.C,P2*%
X159060100Y-106852400D03*
X154060100Y-106852400D03*
X149060100Y-106852400D03*
%TD*%
D17*
%TO.C,D11*%
X126462600Y-108142400D03*
X124557600Y-108142400D03*
%TD*%
D19*
%TO.C,D3*%
X155281100Y-116478400D03*
X157059100Y-116478400D03*
X156170100Y-114446400D03*
%TD*%
D21*
%TO.C,R9*%
X151100100Y-119474900D03*
X151100100Y-117569900D03*
%TD*%
%TO.C,R2*%
X149670100Y-87879900D03*
X149670100Y-89784900D03*
%TD*%
D22*
%TO.C,R8*%
X145550100Y-109782400D03*
X145550100Y-111182400D03*
%TD*%
D23*
%TO.C,C18*%
X139060100Y-116062400D03*
X137660100Y-116062400D03*
%TD*%
D24*
%TO.C,U8*%
X133770100Y-77437400D03*
X133120100Y-77437400D03*
X132470100Y-77437400D03*
X131820100Y-77437400D03*
X131170100Y-77437400D03*
X130520100Y-77437400D03*
X129870100Y-77437400D03*
X129870100Y-80337400D03*
X130520100Y-80337400D03*
X131170100Y-80337400D03*
X131820100Y-80337400D03*
X132470100Y-80337400D03*
X133120100Y-80337400D03*
X133770100Y-80337400D03*
D25*
X131820100Y-78887400D03*
%TD*%
D26*
%TO.C,X1*%
X133550100Y-106412400D03*
X137650099Y-106412400D03*
%TD*%
D27*
%TO.C,P11*%
X143610100Y-113662400D03*
D28*
X146150100Y-113662400D03*
%TD*%
D13*
%TO.C,R29*%
X122970100Y-91762400D03*
X121570100Y-91762400D03*
%TD*%
D29*
%TO.C,U7*%
X131360100Y-68847400D03*
X131360100Y-69497400D03*
X131360100Y-70147400D03*
X131360100Y-70797400D03*
X135760100Y-70797400D03*
X135760100Y-70147400D03*
X135760100Y-69497400D03*
X135760100Y-68847400D03*
%TD*%
D30*
%TO.C,NTC1*%
X122070100Y-114362400D03*
X123670100Y-114362400D03*
%TD*%
D14*
%TO.C,F8*%
X142120100Y-73871400D03*
X142120100Y-77173400D03*
%TD*%
D21*
%TO.C,R1*%
X149670100Y-76509900D03*
X149670100Y-78414900D03*
%TD*%
D20*
%TO.C,P7*%
X145430100Y-125162400D03*
X150430100Y-125162400D03*
X155430100Y-125162400D03*
%TD*%
D13*
%TO.C,R12*%
X122840100Y-73962400D03*
X121440100Y-73962400D03*
%TD*%
D31*
%TO.C,P6*%
X140600100Y-98762400D03*
D32*
X140600100Y-96222400D03*
%TD*%
D18*
%TO.C,Sw4*%
X122940100Y-94302400D03*
X122940100Y-101802400D03*
%TD*%
D19*
%TO.C,D5*%
X146966100Y-70881400D03*
X146966100Y-69103400D03*
X144934100Y-69992400D03*
%TD*%
D14*
%TO.C,F7*%
X138920100Y-73871400D03*
X138920100Y-77173400D03*
%TD*%
%TO.C,F4*%
X152260100Y-97381400D03*
X152260100Y-100683400D03*
%TD*%
D27*
%TO.C,P10*%
X143590100Y-117752400D03*
D28*
X146130100Y-117752400D03*
%TD*%
D12*
%TO.C,R11*%
X121480100Y-112632400D03*
X122880100Y-112632400D03*
%TD*%
D33*
%TO.C,C15*%
X136160100Y-74672400D03*
X136160100Y-73272400D03*
%TD*%
D14*
%TO.C,F9*%
X121090100Y-121811400D03*
X121090100Y-125113400D03*
%TD*%
D31*
%TO.C,P3*%
X146590100Y-78172400D03*
D32*
X146590100Y-80712400D03*
%TD*%
D34*
%TO.C,U2*%
X131895100Y-90387400D03*
X131895100Y-91657400D03*
X131895100Y-92927400D03*
X131895100Y-94197400D03*
X137585100Y-94197400D03*
X137585100Y-92927400D03*
X137585100Y-91657400D03*
X137585100Y-90387400D03*
%TD*%
D14*
%TO.C,F6*%
X159810100Y-122061400D03*
X159810100Y-125363400D03*
%TD*%
D35*
%TO.C,F2*%
X155309100Y-85452400D03*
X158611100Y-85452400D03*
%TD*%
D36*
%TO.C,Sw1*%
X127230100Y-69562400D03*
X127230100Y-62062400D03*
%TD*%
D17*
%TO.C,D12*%
X126462600Y-110632400D03*
X124557600Y-110632400D03*
%TD*%
D21*
%TO.C,R3*%
X143540100Y-89959900D03*
X143540100Y-91864900D03*
%TD*%
D15*
%TO.C,C10*%
X149340100Y-117582400D03*
X149340100Y-116182400D03*
%TD*%
D20*
%TO.C,P12*%
X130090100Y-53832400D03*
X125090100Y-53832400D03*
X120090100Y-53832400D03*
%TD*%
D37*
%TO.C,U9*%
X129980360Y-110887400D03*
X129980360Y-112157400D03*
X129980360Y-113427400D03*
X129980360Y-114697400D03*
X135979840Y-114697400D03*
X135979840Y-113427400D03*
X135979840Y-112157400D03*
X135979840Y-110887400D03*
%TD*%
D13*
%TO.C,R27*%
X137830100Y-79902400D03*
X136430100Y-79902400D03*
%TD*%
D15*
%TO.C,C8*%
X128780100Y-104402400D03*
X128780100Y-105802400D03*
%TD*%
D35*
%TO.C,F1*%
X155299100Y-80972400D03*
X158601100Y-80972400D03*
%TD*%
D13*
%TO.C,R16*%
X122840100Y-72532400D03*
X121440100Y-72532400D03*
%TD*%
D23*
%TO.C,C4*%
X145170100Y-92742400D03*
X146570100Y-92742400D03*
%TD*%
D12*
%TO.C,R17*%
X123300100Y-85062400D03*
X124700100Y-85062400D03*
%TD*%
D21*
%TO.C,R10*%
X151070100Y-116154900D03*
X151070100Y-114249900D03*
%TD*%
D19*
%TO.C,D2*%
X150422100Y-95211400D03*
X150422100Y-93433400D03*
X148390100Y-94322400D03*
%TD*%
D15*
%TO.C,C5*%
X129880100Y-95192400D03*
X129880100Y-96592400D03*
%TD*%
D14*
%TO.C,F10*%
X123970100Y-122521400D03*
X123970100Y-125823400D03*
%TD*%
D15*
%TO.C,C2*%
X149690100Y-83812400D03*
X149690100Y-82412400D03*
%TD*%
D13*
%TO.C,C6*%
X134050100Y-108972400D03*
X132650100Y-108972400D03*
%TD*%
D36*
%TO.C,Sw2*%
X123140100Y-69562400D03*
X123140100Y-62062400D03*
%TD*%
D15*
%TO.C,C11*%
X127300100Y-77722400D03*
X127300100Y-76322400D03*
%TD*%
D38*
%TO.C,R21*%
X142102100Y-71352400D03*
X138800100Y-71352400D03*
%TD*%
D12*
%TO.C,R15*%
X121470100Y-110632400D03*
X122870100Y-110632400D03*
%TD*%
D23*
%TO.C,C9*%
X141540100Y-102202400D03*
X142940100Y-102202400D03*
%TD*%
D13*
%TO.C,R30*%
X122970100Y-87772400D03*
X121570100Y-87772400D03*
%TD*%
D14*
%TO.C,F3*%
X155670100Y-97381400D03*
X155670100Y-100683400D03*
%TD*%
D31*
%TO.C,P4*%
X146570100Y-85582400D03*
D32*
X146570100Y-88122400D03*
%TD*%
D22*
%TO.C,R28*%
X124390100Y-86372400D03*
X124390100Y-87772400D03*
%TD*%
D39*
%TO.C,U5*%
X126270100Y-83637400D03*
X126270100Y-84907400D03*
X126270100Y-86177400D03*
X126270100Y-87447400D03*
X131670100Y-87447400D03*
X131670100Y-86177400D03*
X131670100Y-84907400D03*
X131670100Y-83637400D03*
%TD*%
D12*
%TO.C,R14*%
X121470100Y-108142400D03*
X122870100Y-108142400D03*
%TD*%
D31*
%TO.C,P5*%
X140610100Y-91332400D03*
D32*
X140610100Y-88792400D03*
%TD*%
D40*
%TO.C,U4*%
X144195100Y-104002660D03*
X142925100Y-104002660D03*
X141655100Y-104002660D03*
X140385100Y-104002660D03*
X140385100Y-110002140D03*
X141655100Y-110002140D03*
X142925100Y-110002140D03*
X144195100Y-110002140D03*
%TD*%
D21*
%TO.C,R25*%
X140020100Y-112659900D03*
X140020100Y-114564900D03*
%TD*%
%TO.C,R26*%
X138100100Y-114564900D03*
X138100100Y-112659900D03*
%TD*%
D20*
%TO.C,P1*%
X166090100Y-55762400D03*
X161090100Y-55762400D03*
X156090100Y-55762400D03*
%TD*%
%TO.C,P15*%
X128900100Y-125192400D03*
X133900100Y-125192400D03*
X138900100Y-125192400D03*
%TD*%
D15*
%TO.C,C14*%
X135430100Y-78562400D03*
X135430100Y-77162400D03*
%TD*%
D19*
%TO.C,D1*%
X153116100Y-83991400D03*
X153116100Y-82213400D03*
X151084100Y-83102400D03*
%TD*%
D21*
%TO.C,R4*%
X143560100Y-93449900D03*
X143560100Y-95354900D03*
%TD*%
D15*
%TO.C,C3*%
X130190100Y-93062400D03*
X130190100Y-91662400D03*
%TD*%
D34*
%TO.C,U1*%
X137275100Y-81577400D03*
X137275100Y-82847400D03*
X137275100Y-84117400D03*
X137275100Y-85387400D03*
X142965100Y-85387400D03*
X142965100Y-84117400D03*
X142965100Y-82847400D03*
X142965100Y-81577400D03*
%TD*%
D13*
%TO.C,C7*%
X138370100Y-108952400D03*
X136970100Y-108952400D03*
%TD*%
D41*
%TO.C,U3*%
X130945100Y-103132400D03*
X131595100Y-103132400D03*
X132245100Y-103132400D03*
X132895100Y-103132400D03*
X133545100Y-103132400D03*
X134195100Y-103132400D03*
X134845100Y-103132400D03*
X135495100Y-103132400D03*
X136145100Y-103132400D03*
X136795100Y-103132400D03*
X136795100Y-96532400D03*
X136145100Y-96532400D03*
X135495100Y-96532400D03*
X134845100Y-96532400D03*
X134195100Y-96532400D03*
X133545100Y-96532400D03*
X132895100Y-96532400D03*
X132245100Y-96532400D03*
X131595100Y-96532400D03*
X130945100Y-96532400D03*
%TD*%
D15*
%TO.C,C1*%
X135470100Y-84132400D03*
X135470100Y-82732400D03*
%TD*%
%TO.C,C13*%
X135950100Y-67342400D03*
X135950100Y-65942400D03*
%TD*%
D38*
%TO.C,R20*%
X142102100Y-68412400D03*
X138800100Y-68412400D03*
%TD*%
D42*
%TO.C,X2*%
X133660100Y-74402400D03*
X129560101Y-74402400D03*
%TD*%
D22*
%TO.C,C16*%
X127330100Y-73162400D03*
X127330100Y-74562400D03*
%TD*%
D13*
%TO.C,R31*%
X122970100Y-90302400D03*
X121570100Y-90302400D03*
%TD*%
D15*
%TO.C,C12*%
X133500100Y-84282400D03*
X133500100Y-85682400D03*
%TD*%
M02*
